<?xml version="1.0" encoding="utf-8"?>
<!-- Generator: Adobe Illustrator 21.0.2, SVG Export Plug-In . SVG Version: 6.00 Build 0)  -->
<svg version="1.1" id="Layer_1" xmlns="http://www.w3.org/2000/svg" xmlns:xlink="http://www.w3.org/1999/xlink" x="0px" y="0px"
	 viewBox="0 0 302.3 85" enable-background="new 0 0 302.3 85" xml:space="preserve">
<g>
	<polygon points="94.1,63.5 93.6,64.9 93.6,64.9 93.1,63.5 89.6,52.8 87.5,52.8 92.5,66.7 94.7,66.7 99.6,52.8 97.6,52.8 	"/>
	<rect x="102" y="52.8" width="2" height="13.9"/>
	<path d="M112.6,52.8h-4.8v13.9h4.8c4,0,6-2,6-7C118.6,54.8,116.8,52.8,112.6,52.8z M112.6,64.9h-2.9V54.6h2.9c2.9,0,4,1.1,4,5.1
		C116.6,63.9,115.3,64.9,112.6,64.9z"/>
	<polygon points="123.4,60.3 129.2,60.3 129.2,58.7 123.4,58.7 123.4,54.5 130.1,54.5 130.1,52.8 121.5,52.8 121.5,66.7 130.4,66.7 
		130.4,65 123.4,65 	"/>
	<path d="M142.3,56.8c0-2.7-1.4-4-4.5-4h-4.7v13.9h1.9v-5.9h2.8l3.1,5.9h2.3l-3.6-6.2C141.3,60.2,142.3,58.9,142.3,56.8z
		 M137.7,59.3H135v-4.9h2.8c1.7,0,2.5,0.7,2.5,2.4C140.3,58.7,139.5,59.3,137.7,59.3z"/>
	<polygon points="147.3,60.3 153,60.3 153,58.7 147.3,58.7 147.3,54.5 154,54.5 154,52.8 145.4,52.8 145.4,66.7 154.3,66.7 
		154.3,65 147.3,65 	"/>
	<path d="M164.9,64.8c-0.7,0.3-1.5,0.4-2.4,0.4c-3,0-4.2-1.3-4.2-5.4c0-4.2,1.3-5.5,4.4-5.5c1.3,0,2.4,0.2,3.4,0.7l0.2-1.7
		c-1-0.4-2.4-0.7-3.7-0.7c-4.4,0-6.3,2.2-6.3,7.2c0,5,1.9,7.2,6.3,7.2c1.5,0,3-0.3,4.1-0.8v-6.8h-1.7V64.8z"/>
	<path d="M176.2,51.8c0-0.9-0.6-1.5-1.9-1.5c-1.3,0-1.8,0.6-1.8,1.5c0,0.6,0.2,1,0.6,1.3l-5,13.7h2l1.1-3.3h6.1l1.1,3.3h2.1
		L175.6,53C176,52.8,176.2,52.3,176.2,51.8z M174.4,51.1c0.6,0,0.9,0.3,0.9,0.7c0,0.5-0.3,0.7-0.9,0.7c-0.7,0-0.9-0.3-0.9-0.7
		S173.7,51.1,174.4,51.1z M176.9,61.7h-5l2.1-6.1l0.5-1.4h0.1l0.4,1.4L176.9,61.7z"/>
	<polygon points="184.7,60.3 190.5,60.3 190.5,58.7 184.7,58.7 184.7,54.5 191.4,54.5 191.4,52.8 182.8,52.8 182.8,66.7 191.7,66.7 
		191.7,65 184.7,65 	"/>
	<polygon points="203.2,61.8 203.2,63.3 203.2,63.3 196.1,52.8 194.4,52.8 194.4,66.7 196.1,66.7 196.1,57.4 196.1,55.9 196.1,55.9 
		196.9,57.1 203.5,66.7 204.9,66.7 204.9,52.8 203.2,52.8 	"/>
	<path d="M213.2,52.8h-4.8v13.9h4.8c4,0,6-2,6-7C219.2,54.8,217.5,52.8,213.2,52.8z M213.2,64.9h-2.9V54.6h2.9c2.9,0,4,1.1,4,5.1
		C217.3,63.9,216,64.9,213.2,64.9z"/>
	<polygon points="224.1,60.3 229.8,60.3 229.8,58.7 224.1,58.7 224.1,54.5 230.8,54.5 230.7,52.8 222.2,52.8 222.2,66.7 231.1,66.7 
		231.1,65 224.1,65 	"/>
	<path d="M240.4,56.3c0-1.1,0.7-2.1,2.8-2.1c1.2,0,2.2,0.2,3.3,0.7l0.3-1.7c-1-0.5-2.3-0.7-3.7-0.7c-3.2,0-4.6,1.7-4.6,3.9
		c0,4.6,6.9,3.3,6.9,6.4c0,1.5-1,2.4-2.9,2.4c-1.4,0-2.6-0.4-3.8-1.1l-0.3,1.7c1.1,0.7,2.5,1.1,4.1,1.1c3.1,0,4.8-1.6,4.8-4.2
		C247.3,58,240.4,59.4,240.4,56.3z"/>
	<polygon points="260.4,52.8 258.1,52.8 253.8,58.7 251.8,58.7 251.8,52.8 249.9,52.8 249.9,66.7 251.8,66.7 251.8,60.3 253.8,60.3 
		258.3,66.7 260.7,66.7 255.6,59.4 	"/>
	<path d="M268,52.6c-4.1,0-5.8,2.1-5.8,7.2c0,5.1,1.7,7.2,5.8,7.2c4.2,0,5.8-2.1,5.8-7.2C273.8,54.7,272.2,52.6,268,52.6z M268,65.2
		c-2.7,0-3.8-1.2-3.8-5.4c0-4.3,1-5.4,3.8-5.4c2.8,0,3.8,1.2,3.8,5.4C271.8,64,270.8,65.2,268,65.2z"/>
	<polygon points="278.6,52.8 276.7,52.8 276.7,66.7 285.1,66.7 285.1,64.9 278.6,64.9 	"/>
	<polygon points="289.3,65 289.3,60.3 295,60.3 295,58.7 289.3,58.7 289.3,54.5 296,54.5 295.9,52.8 287.4,52.8 287.4,66.7 
		296.2,66.7 296.3,65 	"/>
	<path d="M101.6,28.1c1.8-1,2.7-2.7,2.7-5.1c0-4-2.7-6.3-7.7-6.3h-9.4v24.1h9.7c5.5,0,8.3-2.4,8.3-7.1C105.2,30.9,104,29,101.6,28.1
		z M92,30.5h4.8c2.4,0,3.4,0.9,3.4,3c0,2.3-0.9,3.2-3.3,3.2H92V30.5z M96.7,26.6H92v-5.5h4.5c2.2,0,3.1,0.7,3.1,2.7
		C99.6,25.7,98.7,26.6,96.7,26.6z"/>
	<path d="M114.1,35.8h9l1.5,5h5.5l-8.6-24.1h-5.6l-8.6,24.1h5.3L114.1,35.8z M119.1,22.8l2.7,8.8h-6.3l2.7-8.8l0.5-1.6L119.1,22.8z"
		/>
	<polygon points="152.5,26.9 152.9,25.9 152.8,40.9 157.4,40.9 157.4,16.8 152.1,16.8 145.9,31.9 145.3,33.7 138.6,17 138.5,16.8 
		133.2,16.8 133.2,40.9 137.6,40.9 137.6,27 137.6,25.9 143.5,40.9 146.9,40.9 	"/>
	<path d="M177.9,28.1c1.8-1,2.7-2.7,2.7-5.1c0-4-2.7-6.3-7.7-6.3h-9.4v24.1h9.7c5.5,0,8.3-2.4,8.3-7.1
		C181.5,30.9,180.2,29,177.9,28.1z M168.3,30.5h4.8c2.4,0,3.4,0.9,3.4,3c0,2.3-0.9,3.2-3.3,3.2h-4.9V30.5z M172.9,26.6h-4.7v-5.5
		h4.5c2.2,0,3.1,0.7,3.1,2.7C175.8,25.7,175,26.6,172.9,26.6z"/>
	<polygon points="201.4,36.3 191.1,36.3 191.1,16.8 186.2,16.8 186.2,40.9 201.3,40.9 	"/>
	<polygon points="209.8,30.5 219,30.5 219,26.3 209.8,26.3 209.8,21.3 220.6,21.3 220.6,16.8 204.9,16.8 204.9,40.9 221,40.9 
		221.1,36.4 209.8,36.4 	"/>
</g>
<g>
	<g>
		<g>
			<g>
				<path d="M1.8,1.8c0,0,0.1,27.7,5.4,44.5c4.9,15.2,15.8,27.9,29,36.1C49.4,74.2,60,61.5,64.9,46.3c5.4-16.8,5.4-44.5,5.4-44.5
					H1.8z"/>
			</g>
		</g>
	</g>
	<g>
		<path fill="#FFD520" d="M36.2,81.1C22.9,72.6,12.8,59.8,8.3,45.9C3.7,31.4,3,8.3,3,2.9h66.2c-0.1,5.4-0.7,28.5-5.4,43
			C59.3,60.2,49.5,72.6,36.2,81.1z"/>
		<g>
			<path d="M14.2,41.9c0.1-0.1,0.6-0.6,1.1-1c2.8-2.3,7.8-6.9,13.7-6.3c5.4,0.6,7.5,4.6,7.5,4.6c-2.4,2.6-3.9,6.4-4.1,9.6
				c-0.1,3.1,0.9,22.4,0.9,22.4s0.1,5.1,0.3,8.1c0.9,0.7,1.9,1.3,2.8,1.9c0.8-0.5,1.5-1,2.3-1.5L39,58.2c0.2-3.6-0.4-8.3,2.5-11.3
				c0.2-0.2,1.1-0.9,1.1-0.9s0.9,0.8,1.2,0.9c0.1,0.1,0.3,0.1,0.4,0L51,41c0.1-0.1,0.2-0.3,0.1-0.4c-0.2-0.5-0.6-1.2-0.6-1.2
				s5.5-5.4,8.9-7.8c0.3-0.2,0.1-0.7-0.3-0.5c-1.7,0.7-3.5,0.5-4.5-0.5c-0.4-0.4-0.6-1.1-1.2-0.7c-4,2.7-7.3,3.7-7.3,3.7
				c-1.2-1-2-2.1-2.7-3.3c-3.3-6.7-1.6-15.4,3.1-20.9c1.5-1.7,2.9-2.8,4.7-3.9c0.2-0.1,0.2-0.5-0.2-0.5c-14.9,0.9-28.1,10.7-34,24.3
				c-1.7,3.9-3,8.4-3.2,12.2C13.7,41.9,13.8,42.2,14.2,41.9z"/>
			<g>
				<g>
					<path fill="#FFD520" d="M51.7,32.9c0.5-0.1,1.1-0.1,1.3,0.1c0.3,0.3-0.4,1.4-0.8,2c-0.9,1.6-1,1.7-1.9,3.1c0,0-0.1-0.7,0.1-1.4
						c0.2-0.8,0.6-1.4,0.9-1.9c0.4-0.5,0.7-0.9,0.7-1.2c-0.1-0.3-1.1,0.1-1.5,0.1c-0.5,0.1-1.6,0.5-2.6-0.1
						C47.8,33.9,50.6,33.1,51.7,32.9z"/>
					<path fill="#FFD520" d="M36.1,46.3c0.4-0.1,2.3-1.4,3.8-1.2c1.1,0.1,1.7,0.5,1.7,0.5c-1.1,0.1-2-0.1-3.8,0.8
						c-0.9,0.5-2,1.4-2.7,0.7c-0.4-0.4-0.4-1.3,0-3.2c0.5-2.1,1.3-3.4,1.3-3.4s0.1,0.8-0.7,4.7C35.6,46,35.6,46.5,36.1,46.3z"/>
				</g>
				<path fill="#FFD520" d="M33.9,69.5c0,0-0.2,1.4,1,2.8c1.1,1.4,2.8,3.1,2.8,3.1s0.3-1.2-0.9-2.6C35.6,71.3,33.9,69.5,33.9,69.5z"
					/>
				<path fill="#FFD520" d="M33.5,59.1c0,0-0.1,1.5,1.1,2.9c1.2,1.4,3.2,3.3,3.2,3.3s0.2-1.2-1.1-2.7S33.5,59.1,33.5,59.1z"/>
				<path fill="#FFD520" d="M33.3,48.7c0,0-0.2,1.4,1.1,3c1.3,1.5,3.8,4.5,3.8,4.5s0.2-1.5-1.1-3.1S33.3,48.7,33.3,48.7z"/>
			</g>
		</g>
	</g>
</g>
</svg>
