<?xml version="1.0" encoding="utf-8"?>
<!-- Generator: Adobe Illustrator 21.0.2, SVG Export Plug-In . SVG Version: 6.00 Build 0)  -->
<svg version="1.1" id="Layer_1" xmlns="http://www.w3.org/2000/svg" xmlns:xlink="http://www.w3.org/1999/xlink" x="0px" y="0px"
	 viewBox="0 0 304.5 82.1" enable-background="new 0 0 304.5 82.1" xml:space="preserve">
<g>
	<polygon points="92.3,63.2 91.8,64.6 91.8,64.6 91.3,63.2 87.8,52.5 85.7,52.5 90.7,66.4 92.8,66.4 97.8,52.5 95.8,52.5 	"/>
	<rect x="100.2" y="52.5" width="2" height="13.9"/>
	<path d="M110.8,52.5H106v13.9h4.8c4,0,6-2,6-7C116.8,54.5,115,52.5,110.8,52.5z M110.8,64.7h-2.9V54.3h2.9c2.9,0,4,1.1,4,5.1
		C114.8,63.6,113.5,64.7,110.8,64.7z"/>
	<path d="M123.4,52.5l-5.1,13.9h2l1.1-3.3h6.1l1.1,3.3h2.1l-5.1-13.9H123.4z M121.9,61.4l2.1-6.1l0.5-1.4h0.1l0.4,1.4l2,6.1H121.9z"
		/>
	<path d="M142.1,56.5c0-2.7-1.4-4-4.5-4h-4.7v13.9h1.9v-5.9h2.8l3.1,5.9h2.3l-3.6-6.2C141.1,59.9,142.1,58.6,142.1,56.5z M137.6,59
		h-2.8v-4.9h2.8c1.7,0,2.5,0.7,2.5,2.4C140.1,58.4,139.3,59,137.6,59z"/>
	<polygon points="147.1,60 152.9,60 152.9,58.4 147.1,58.4 147.1,54.2 153.8,54.2 153.8,52.5 145.2,52.5 145.2,66.4 154.1,66.4 
		154.2,64.7 147.1,64.7 	"/>
	<path d="M164.7,64.5c-0.7,0.3-1.5,0.4-2.4,0.4c-3,0-4.2-1.3-4.2-5.4c0-4.2,1.3-5.5,4.4-5.5c1.3,0,2.4,0.2,3.4,0.7l0.2-1.7
		c-1-0.4-2.4-0.7-3.7-0.7c-4.4,0-6.3,2.2-6.3,7.2c0,5,1.9,7.2,6.3,7.2c1.5,0,3-0.3,4.1-0.8V59h-1.7V64.5z"/>
	<path d="M176,51.5c0-0.9-0.6-1.5-1.9-1.5c-1.3,0-1.8,0.6-1.8,1.5c0,0.6,0.2,1,0.6,1.3l-5,13.7h2l1.1-3.3h6.1l1.1,3.3h2.1l-5.1-13.7
		C175.8,52.5,176,52,176,51.5z M174.2,50.8c0.6,0,0.9,0.3,0.9,0.7c0,0.5-0.3,0.7-0.9,0.7c-0.7,0-0.9-0.3-0.9-0.7
		S173.6,50.8,174.2,50.8z M176.7,61.4h-5l2.1-6.1l0.5-1.4h0.1l0.4,1.4L176.7,61.4z"/>
	<path d="M186.3,52.5l-5.1,13.9h2l1.1-3.3h6.1l1.1,3.3h2.1l-5.1-13.9H186.3z M184.9,61.4l2.1-6.1l0.5-1.4h0.1l0.4,1.4l2,6.1H184.9z"
		/>
	<polygon points="204.6,61.5 204.7,63 204.6,63 197.6,52.5 195.8,52.5 195.8,66.4 197.5,66.4 197.5,57.1 197.5,55.6 197.6,55.6 
		198.4,56.8 205,66.4 206.3,66.4 206.3,52.5 204.6,52.5 	"/>
	<path d="M214.7,52.5h-4.8v13.9h4.8c4,0,6-2,6-7C220.7,54.5,218.9,52.5,214.7,52.5z M214.7,64.7h-2.9V54.3h2.9c2.9,0,4,1.1,4,5.1
		C218.7,63.6,217.4,64.7,214.7,64.7z"/>
	<polygon points="225.5,60 231.3,60 231.3,58.4 225.5,58.4 225.5,54.2 232.2,54.2 232.2,52.5 223.6,52.5 223.6,66.4 232.5,66.4 
		232.6,64.7 225.5,64.7 	"/>
	<path d="M241.9,56.1c0-1.1,0.7-2.1,2.8-2.1c1.2,0,2.2,0.2,3.3,0.7l0.3-1.7c-1-0.5-2.3-0.7-3.7-0.7c-3.2,0-4.6,1.7-4.6,3.9
		c0,4.6,6.9,3.3,6.9,6.4c0,1.5-1,2.4-2.9,2.4c-1.4,0-2.6-0.4-3.8-1.1l-0.3,1.7c1.1,0.7,2.5,1.1,4.1,1.1c3.1,0,4.8-1.6,4.8-4.2
		C248.8,57.7,241.9,59.1,241.9,56.1z"/>
	<polygon points="261.8,52.5 259.6,52.5 255.3,58.4 253.2,58.4 253.2,52.5 251.3,52.5 251.3,66.4 253.2,66.4 253.2,60 255.3,60 
		259.7,66.4 262.1,66.4 257,59.1 	"/>
	<path d="M272.8,61.4c0,2.4-1.1,3.5-3.4,3.5c-2.3,0-3.4-1.1-3.4-3.5v-8.9h-1.9v8.9c0,3.7,1.9,5.3,5.3,5.3c3.4,0,5.3-1.6,5.3-5.3
		v-8.9h-1.9V61.4z"/>
	<polygon points="280,52.5 278.1,52.5 278.1,66.4 286.4,66.4 286.5,64.6 280,64.6 	"/>
	<polygon points="290.6,64.7 290.6,60 296.4,60 296.4,58.4 290.6,58.4 290.6,54.2 297.4,54.2 297.3,52.5 288.7,52.5 288.7,66.4 
		297.6,66.4 297.7,64.7 	"/>
	<path d="M99.8,27.8c1.8-1,2.7-2.7,2.7-5.1c0-4-2.7-6.3-7.7-6.3h-9.4v24.1h9.7c5.5,0,8.3-2.4,8.3-7.1
		C103.4,30.7,102.2,28.7,99.8,27.8z M90.2,30.2h4.8c2.4,0,3.4,0.9,3.4,3c0,2.3-0.9,3.2-3.3,3.2h-4.9V30.2z M94.9,26.3h-4.7v-5.5h4.5
		c2.2,0,3.1,0.7,3.1,2.7C97.8,25.5,96.9,26.3,94.9,26.3z"/>
	<path d="M128.6,28.5c0-3.2-0.4-5.7-1.3-7.6l2.1-2.6l-2.5-2.4l-1.8,2.1c-1.6-1.3-3.9-2-6.9-2c-7.3,0-10.4,3.7-10.4,12.4
		c0,3.4,0.5,6,1.4,8l-1.9,2.4l2.5,2.4l1.6-2c1.6,1.2,3.8,1.8,6.7,1.8C125.6,41,128.6,37.4,128.6,28.5z M118.3,20.7
		c1.9,0,3.1,0.4,3.8,1.3l-8.9,10.4c-0.2-1-0.2-2.2-0.2-3.8C113,23.1,113.8,20.7,118.3,20.7z M118.3,36.4c-1.8,0-2.9-0.3-3.7-1.1
		l8.8-10.2c0.1,1,0.2,2.1,0.2,3.4C123.5,35.2,121.8,36.4,118.3,36.4z"/>
</g>
<g>
	<g>
		<g>
			<g>
				<path d="M0,1.5c0,0,0.1,27.7,5.4,44.5c4.9,15.2,15.8,27.9,29,36.1C47.6,73.9,58.2,61.2,63.1,46c5.4-16.8,5.4-44.5,5.4-44.5H0z"
					/>
			</g>
		</g>
	</g>
	<g>
		<path fill="#FFD520" d="M34.4,80.8C21.1,72.3,11,59.5,6.5,45.7C1.9,31.1,1.2,8,1.1,2.6h66.2c-0.1,5.4-0.7,28.5-5.4,43
			C57.4,59.9,47.7,72.3,34.4,80.8z"/>
		<g>
			<path d="M12.3,41.6c0.1-0.1,0.6-0.6,1.1-1c2.8-2.3,7.8-6.9,13.7-6.3c5.4,0.6,7.5,4.6,7.5,4.6c-2.4,2.6-3.9,6.4-4.1,9.6
				c-0.1,3.1,0.9,22.4,0.9,22.4s0.1,5.1,0.3,8.1c0.9,0.7,1.9,1.3,2.8,1.9c0.8-0.5,1.5-1,2.3-1.5l0.5-21.4c0.2-3.6-0.4-8.3,2.5-11.3
				c0.2-0.2,1.1-0.9,1.1-0.9s0.9,0.8,1.2,0.9c0.1,0.1,0.3,0.1,0.4,0l6.8-5.8c0.1-0.1,0.2-0.3,0.1-0.4c-0.2-0.5-0.6-1.2-0.6-1.2
				s5.5-5.4,8.9-7.8c0.3-0.2,0.1-0.7-0.3-0.5c-1.7,0.7-3.5,0.5-4.5-0.5c-0.4-0.4-0.6-1.1-1.2-0.7c-4,2.7-7.3,3.7-7.3,3.7
				c-1.2-1-2-2.1-2.7-3.3C38.3,23.2,40,14.5,44.7,9c1.5-1.7,2.9-2.8,4.7-3.9c0.2-0.1,0.2-0.5-0.2-0.5C34.3,5.5,21,15.3,15.1,28.9
				c-1.7,3.9-3,8.4-3.2,12.2C11.9,41.6,12,41.9,12.3,41.6z"/>
			<g>
				<g>
					<path fill="#FFD520" d="M49.9,32.6c0.5-0.1,1.1-0.1,1.3,0.1c0.3,0.3-0.4,1.4-0.8,2c-0.9,1.6-1,1.7-1.9,3.1c0,0-0.1-0.7,0.1-1.4
						c0.2-0.8,0.6-1.4,0.9-1.9c0.4-0.5,0.7-0.9,0.7-1.2c-0.1-0.3-1.1,0.1-1.5,0.1c-0.5,0.1-1.6,0.5-2.6-0.1
						C46,33.6,48.8,32.9,49.9,32.6z"/>
					<path fill="#FFD520" d="M34.3,46c0.4-0.1,2.3-1.4,3.8-1.2c1.1,0.1,1.7,0.5,1.7,0.5c-1.1,0.1-2-0.1-3.8,0.8
						c-0.9,0.5-2,1.4-2.7,0.7c-0.4-0.4-0.4-1.3,0-3.2c0.5-2.1,1.3-3.4,1.3-3.4s0.1,0.8-0.7,4.7C33.8,45.7,33.8,46.2,34.3,46z"/>
				</g>
				<path fill="#FFD520" d="M32.1,69.2c0,0-0.2,1.4,1,2.8c1.1,1.4,2.8,3.1,2.8,3.1s0.3-1.2-0.9-2.6C33.8,71,32.1,69.2,32.1,69.2z"/>
				<path fill="#FFD520" d="M31.7,58.8c0,0-0.1,1.5,1.1,2.9c1.2,1.4,3.2,3.3,3.2,3.3s0.2-1.2-1.1-2.7S31.7,58.8,31.7,58.8z"/>
				<path fill="#FFD520" d="M31.5,48.5c0,0-0.2,1.4,1.1,3c1.3,1.5,3.8,4.5,3.8,4.5s0.2-1.5-1.1-3.1C33.9,51.3,31.5,48.5,31.5,48.5z"
					/>
			</g>
		</g>
	</g>
</g>
</svg>
