<?xml version="1.0" encoding="utf-8"?>
<!-- Generator: Adobe Illustrator 21.0.2, SVG Export Plug-In . SVG Version: 6.00 Build 0)  -->
<svg version="1.1" id="Layer_1" xmlns="http://www.w3.org/2000/svg" xmlns:xlink="http://www.w3.org/1999/xlink" x="0px" y="0px"
	 viewBox="0 0 264.5 84.1" enable-background="new 0 0 264.5 84.1" xml:space="preserve">
<g>
	<g>
		<g>
			<g>
				<path d="M3.4,3.5c0,0,0.1,27.7,5.4,44.5c4.9,15.2,15.8,27.9,29,36.1C50.9,75.9,61.6,63.2,66.5,48c5.4-16.8,5.4-44.5,5.4-44.5
					H3.4z"/>
			</g>
		</g>
	</g>
	<g>
		<path fill="#FFD520" d="M37.8,82.7C24.5,74.2,14.3,61.5,9.9,47.6C5.2,33.1,4.6,10,4.5,4.6h66.2c-0.1,5.4-0.7,28.5-5.4,43
			C60.8,61.9,51,74.3,37.8,82.7z"/>
		<g>
			<path d="M15.7,43.5c0.1-0.1,0.6-0.6,1.1-1c2.8-2.3,7.8-6.9,13.7-6.3c5.4,0.6,7.5,4.6,7.5,4.6c-2.4,2.6-3.9,6.4-4.1,9.6
				c-0.1,3.1,0.9,22.4,0.9,22.4s0.1,5.1,0.3,8.1c0.9,0.7,1.9,1.3,2.8,1.9c0.8-0.5,1.5-1,2.3-1.5l0.5-21.4c0.2-3.6-0.4-8.3,2.5-11.3
				c0.2-0.2,1.1-0.9,1.1-0.9s0.9,0.8,1.2,0.9c0.1,0.1,0.3,0.1,0.4,0l6.8-5.8c0.1-0.1,0.2-0.3,0.1-0.4c-0.2-0.5-0.6-1.2-0.6-1.2
				s5.5-5.4,8.9-7.8c0.3-0.2,0.1-0.7-0.3-0.5c-1.7,0.7-3.5,0.5-4.5-0.5c-0.4-0.4-0.6-1.1-1.2-0.7c-4,2.7-7.3,3.7-7.3,3.7
				c-1.2-1-2-2.1-2.7-3.3c-3.3-6.7-1.6-15.4,3.1-20.9c1.5-1.7,2.9-2.8,4.7-3.9C53,7,53,6.6,52.5,6.6c-14.9,0.9-28.1,10.7-34,24.3
				c-1.7,3.9-3,8.4-3.2,12.2C15.3,43.6,15.4,43.9,15.7,43.5z"/>
			<g>
				<g>
					<path fill="#FFD520" d="M53.3,34.6c0.5-0.1,1.1-0.1,1.3,0.1c0.3,0.3-0.4,1.4-0.8,2c-0.9,1.6-1,1.7-1.9,3.1c0,0-0.1-0.7,0.1-1.4
						c0.2-0.8,0.6-1.4,0.9-1.9c0.4-0.5,0.7-0.9,0.7-1.2c-0.1-0.3-1.1,0.1-1.5,0.1c-0.5,0.1-1.6,0.5-2.6-0.1
						C49.4,35.5,52.1,34.8,53.3,34.6z"/>
					<path fill="#FFD520" d="M37.6,48c0.4-0.1,2.3-1.4,3.8-1.2c1.1,0.1,1.7,0.5,1.7,0.5c-1.1,0.1-2-0.1-3.8,0.8
						c-0.9,0.5-2,1.4-2.7,0.7c-0.4-0.4-0.4-1.3,0-3.2c0.5-2.1,1.3-3.4,1.3-3.4s0.1,0.8-0.7,4.7C37.2,47.7,37.2,48.2,37.6,48z"/>
				</g>
				<path fill="#FFD520" d="M35.5,71.1c0,0-0.2,1.4,1,2.8c1.1,1.4,2.8,3.1,2.8,3.1s0.3-1.2-0.9-2.6C37.2,73,35.5,71.1,35.5,71.1z"/>
				<path fill="#FFD520" d="M35,60.8c0,0-0.1,1.5,1.1,2.9s3.2,3.3,3.2,3.3s0.2-1.2-1.1-2.7C37.1,62.8,35,60.8,35,60.8z"/>
				<path fill="#FFD520" d="M34.8,50.4c0,0-0.2,1.4,1.1,3c1.3,1.5,3.8,4.5,3.8,4.5s0.2-1.5-1.1-3.1C37.3,53.2,34.8,50.4,34.8,50.4z"
					/>
			</g>
		</g>
	</g>
</g>
<g>
	<polygon points="92.9,30.7 100.7,30.7 100.8,26.7 92.9,26.7 92.9,22.1 102.3,22.1 102.2,18 88.5,18 88.5,39.1 92.9,39.1 	"/>
	<path d="M108.7,34.7h7.8l1.3,4.4h4.9L115.1,18h-5l-7.5,21.2h4.7L108.7,34.7z M113,23.3l2.4,7.7h-5.4l2.4-7.7l0.4-1.3L113,23.3z"/>
	<path d="M133.8,39.5c2.2,0,4.6-0.5,6.2-1.2l0.2-0.1V27.5h-3.9v7.6c-0.8,0.2-1.6,0.3-2.5,0.3c-3.9,0-5.2-1.7-5.2-6.9
		c0-5.3,1.3-6.9,5.6-6.9c1.7,0,3.5,0.3,4.9,0.9l0.4,0.1l0.5-4l-0.2-0.1c-1.6-0.6-3.8-1-5.7-1c-6.8,0-10,3.5-10,11
		C124,36.2,127,39.5,133.8,39.5z"/>
	<path d="M152.1,26.4c-1.9-0.7-3.6-1.2-3.6-2.6c0-1.4,1.1-2.1,3.4-2.1c1.5,0,3.1,0.3,4.8,0.9l0.3,0.1l0.6-3.9l-0.2-0.1
		c-1.6-0.7-3.7-1.1-5.7-1.1c-4.7,0-7.4,2.4-7.4,6.4c0,4.1,3.4,5.4,6.1,6.3c2,0.7,3.7,1.3,3.7,2.7c0,1.7-1.1,2.5-3.4,2.5
		c-1.9,0-3.7-0.5-5.5-1.5l-0.4-0.2l-0.6,4l0.2,0.1c1.8,1,4,1.6,6.4,1.6c4.8,0,7.7-2.5,7.7-6.7C158.3,28.6,154.8,27.4,152.1,26.4z"/>
	<polygon points="178.9,18 173.7,18 168.2,26.4 166,26.4 166,18 161.6,18 161.6,39.1 166,39.1 166,30.1 168.1,30.1 173.9,39.1 
		179.2,39.1 172.1,28 	"/>
	<path d="M190.2,39.5c6.4,0,9.1-3.3,9.1-11c0-7.7-2.7-10.9-9.1-10.9c-6.4,0-9.1,3.3-9.1,10.9C181,36.1,183.9,39.5,190.2,39.5z
		 M190.2,35.4c-3.1,0-4.6-1-4.6-6.9c0-5.9,1.4-6.8,4.5-6.8c3.2,0,4.6,1,4.6,6.8C194.7,34.4,193.3,35.4,190.2,35.4z"/>
	<polygon points="216.5,35.1 207.5,35.1 207.5,18 203.1,18 203.1,39.1 216.4,39.1 	"/>
	<polygon points="233.8,35.2 223.9,35.2 223.9,30.1 231.9,30.1 231.9,26.4 223.9,26.4 223.9,22 233.4,22 233.3,18 219.5,18 
		219.5,39.1 233.7,39.1 	"/>
	<polygon points="250.1,18 250.1,29.9 250.1,31.2 241.2,18.1 241.1,18 237.3,18 237.3,39.1 241.3,39.1 241.3,26.7 241.3,25.4 
		250.9,39.1 254,39.1 254,18 	"/>
	<polygon points="86.7,47.9 86.6,52 92.4,52 92.4,69 96.8,69 96.8,52 102.6,52 102.6,47.9 	"/>
	<polygon points="109.8,60 117.8,60 117.8,56.3 109.8,56.3 109.8,51.9 119.3,51.9 119.2,47.9 105.4,47.9 105.4,69 119.6,69 
		119.7,65.1 109.8,65.1 	"/>
	<polygon points="128.6,47.9 124.2,47.9 124.2,69 137.5,69 137.6,65 128.6,65 	"/>
	<polygon points="145,60 153.1,60 153.1,56.3 145,56.3 145,51.9 154.5,51.9 154.4,47.9 140.6,47.9 140.6,69 154.8,69 154.9,65.1 
		145,65.1 	"/>
	<polygon points="170.6,61.2 170.1,62.6 164.2,47.9 159.4,47.9 159.4,69 163.4,69 163.4,56.8 163.4,56.1 168.5,69 171.5,69 
		176.4,56.8 176.7,56.1 176.6,69 180.7,69 180.7,47.9 176,47.9 	"/>
	<path d="M190.8,47.9L183.3,69h4.7l1.4-4.4h7.8l1.3,4.4h4.9l-7.6-21.2H190.8z M193.6,53.2l2.4,7.7h-5.4l2.4-7.7l0.4-1.3L193.6,53.2z
		"/>
	<path d="M221,54.3c0-4.4-2.4-6.5-7.5-6.5H206V69h4.4v-8.1h3l4.1,8.1h5.2l-5.1-9C219.8,59.4,221,57.3,221,54.3z M216.5,54.5
		c0,2.2-0.8,2.9-3,2.9h-3.1v-5.7h3.2C215.8,51.7,216.5,52.4,216.5,54.5z"/>
	<polygon points="242.4,47.9 237.3,47.9 231.7,56.3 229.6,56.3 229.6,47.9 225.2,47.9 225.2,69 229.6,69 229.6,60 231.7,60 
		237.5,69 242.8,69 235.6,57.9 	"/>
</g>
</svg>
