<?xml version="1.0" encoding="utf-8"?>
<!-- Generator: Adobe Illustrator 21.0.2, SVG Export Plug-In . SVG Version: 6.00 Build 0)  -->
<svg version="1.1" id="Layer_1" xmlns="http://www.w3.org/2000/svg" xmlns:xlink="http://www.w3.org/1999/xlink" x="0px" y="0px"
	 viewBox="0 0 428.9 82.6" enable-background="new 0 0 428.9 82.6" xml:space="preserve">
<g>
	<polygon points="94.2,63.6 93.7,65.1 93.7,65.1 93.2,63.6 89.7,52.9 87.6,52.9 92.6,66.9 94.7,66.9 99.7,52.9 97.7,52.9 	"/>
	<rect x="102.1" y="52.9" width="2" height="13.9"/>
	<path d="M112.7,52.9h-4.8v13.9h4.8c4,0,6-2,6-7C118.7,55,116.9,52.9,112.7,52.9z M112.7,65.1h-2.9V54.7h2.9c2.9,0,4,1.1,4,5.1
		C116.7,64.1,115.4,65.1,112.7,65.1z"/>
	<polygon points="123.5,60.4 129.3,60.4 129.3,58.8 123.5,58.8 123.5,54.7 130.2,54.7 130.2,52.9 121.6,52.9 121.6,66.9 130.5,66.9 
		130.5,65.2 123.5,65.2 	"/>
	<path d="M142.4,56.9c0-2.7-1.4-4-4.5-4h-4.7v13.9h1.9V61h2.8l3.1,5.9h2.3l-3.6-6.2C141.4,60.4,142.4,59.1,142.4,56.9z M137.8,59.5
		h-2.8v-4.9h2.8c1.7,0,2.5,0.7,2.5,2.4C140.4,58.8,139.6,59.5,137.8,59.5z"/>
	<polygon points="147.4,60.4 153.1,60.4 153.1,58.8 147.4,58.8 147.4,54.7 154.1,54.7 154,52.9 145.5,52.9 145.5,66.9 154.4,66.9 
		154.4,65.2 147.4,65.2 	"/>
	<path d="M165,65c-0.7,0.3-1.5,0.4-2.4,0.4c-3,0-4.2-1.3-4.2-5.4c0-4.2,1.3-5.5,4.4-5.5c1.3,0,2.4,0.2,3.4,0.7l0.2-1.7
		c-1-0.4-2.4-0.7-3.7-0.7c-4.4,0-6.3,2.2-6.3,7.2c0,5,1.9,7.2,6.3,7.2c1.5,0,3-0.3,4.1-0.8v-6.8H165V65z"/>
	<path d="M176.3,51.9c0-0.9-0.6-1.5-1.9-1.5c-1.3,0-1.8,0.6-1.8,1.5c0,0.6,0.2,1,0.6,1.3l-5,13.7h2l1.1-3.3h6.1l1.1,3.3h2.1
		l-5.1-13.7C176.1,52.9,176.3,52.5,176.3,51.9z M174.4,51.3c0.6,0,0.9,0.3,0.9,0.7c0,0.5-0.3,0.7-0.9,0.7c-0.7,0-0.9-0.3-0.9-0.7
		S173.8,51.3,174.4,51.3z M177,61.9h-5l2.1-6.1l0.5-1.4h0.1l0.4,1.4L177,61.9z"/>
	<polygon points="184.8,60.4 190.5,60.4 190.5,58.8 184.8,58.8 184.8,54.7 191.5,54.7 191.5,52.9 182.9,52.9 182.9,66.9 191.8,66.9 
		191.8,65.2 184.8,65.2 	"/>
	<polygon points="203.3,62 203.3,63.5 203.3,63.5 196.2,52.9 194.5,52.9 194.5,66.9 196.2,66.9 196.2,57.6 196.2,56.1 196.2,56 
		197,57.3 203.6,66.9 204.9,66.9 204.9,52.9 203.3,52.9 	"/>
	<path d="M213.3,52.9h-4.8v13.9h4.8c4,0,6-2,6-7C219.3,55,217.6,52.9,213.3,52.9z M213.3,65.1h-2.9V54.7h2.9c2.9,0,4,1.1,4,5.1
		C217.3,64.1,216.1,65.1,213.3,65.1z"/>
	<polygon points="224.1,60.4 229.9,60.4 229.9,58.8 224.1,58.8 224.1,54.7 230.9,54.7 230.8,52.9 222.3,52.9 222.3,66.9 231.1,66.9 
		231.2,65.2 224.1,65.2 	"/>
	<path d="M240.5,56.5c0-1.1,0.7-2.1,2.8-2.1c1.2,0,2.2,0.2,3.3,0.7l0.3-1.7c-1-0.5-2.3-0.7-3.7-0.7c-3.2,0-4.6,1.7-4.6,3.9
		c0,4.6,6.9,3.3,6.9,6.4c0,1.5-1,2.4-2.9,2.4c-1.4,0-2.6-0.4-3.8-1.1l-0.3,1.7c1.1,0.7,2.5,1.1,4.1,1.1c3.1,0,4.8-1.6,4.8-4.2
		C247.4,58.1,240.5,59.5,240.5,56.5z"/>
	<polygon points="260.5,52.9 258.2,52.9 253.9,58.8 251.9,58.8 251.9,52.9 250,52.9 250,66.9 251.9,66.9 251.9,60.5 253.9,60.5 
		258.4,66.9 260.7,66.9 255.6,59.5 	"/>
	<path d="M268.1,52.7c-4.1,0-5.8,2.1-5.8,7.2c0,5.1,1.7,7.2,5.8,7.2c4.2,0,5.8-2.1,5.8-7.2C273.9,54.8,272.3,52.7,268.1,52.7z
		 M268.1,65.4c-2.7,0-3.8-1.2-3.8-5.4c0-4.3,1-5.4,3.8-5.4c2.8,0,3.8,1.2,3.8,5.4C271.9,64.2,270.9,65.4,268.1,65.4z"/>
	<polygon points="278.7,52.9 276.8,52.9 276.8,66.9 285.1,66.9 285.2,65.1 278.7,65.1 	"/>
	<polygon points="289.3,60.4 295.1,60.4 295.1,58.8 289.3,58.8 289.3,54.7 296.1,54.7 296,52.9 287.4,52.9 287.4,66.9 296.3,66.9 
		296.4,65.2 289.3,65.2 	"/>
	<polygon points="101.2,26.4 92.3,26.4 92.3,16.9 87.4,16.9 87.4,41 92.3,41 92.3,30.9 101.2,30.9 101.2,41 106.2,41 106.2,16.9 
		101.2,16.9 	"/>
	<path d="M114.8,41.5c6.1,0,9.2-3,9.2-9V16.9h-5v15.4c0,3.2-1.5,4.6-4.8,4.6c-1.5,0-2.7-0.3-3.6-0.9l-0.4-0.3l-0.3,4.5l0.2,0.1
		C111.2,41.1,112.9,41.5,114.8,41.5z"/>
	<path d="M140.8,16.9h-5.6L126.7,41h5.3l1.6-5h9l1.5,5h5.5L140.8,16.9z M138.4,22.9l2.7,8.8h-6.3l2.7-8.8l0.5-1.6L138.4,22.9z"/>
	<polygon points="157.2,16.9 152.2,16.9 152.2,41 167.3,41 167.4,36.5 157.2,36.5 	"/>
	<polygon points="189.9,27.1 190.3,26.1 190.3,41 194.9,41 194.9,16.9 189.6,16.9 183.4,32.1 182.8,33.8 176,16.9 170.7,16.9 
		170.7,41 175.1,41 175.1,27.2 175.1,26.1 181,41 184.4,41 	"/>
	<path d="M206.2,16.9L197.6,41h5.3l1.6-5h9l1.5,5h5.5l-8.6-24.1H206.2z M208.9,21.3l0.4,1.6l2.7,8.8h-6.3l2.7-8.8L208.9,21.3z"/>
	<path d="M236.2,30.8c2.6-0.8,4.1-3.1,4.1-6.5c0-4.9-2.8-7.3-8.5-7.3h-8.6V41h4.9v-9.2h3.5l4.6,9.2h5.8L236.2,30.8z M235.2,24.4
		c0,2.5-0.9,3.4-3.5,3.4h-3.6v-6.6h3.7C234.3,21.2,235.2,22.1,235.2,24.4z"/>
	<path d="M256.6,41.5c6.1,0,9.2-3,9.2-9V16.9h-5v15.4c0,3.2-1.5,4.6-4.8,4.6c-1.5,0-2.7-0.3-3.6-0.9l-0.4-0.3l-0.3,4.5l0.2,0.1
		C253.1,41.1,254.7,41.5,256.6,41.5z"/>
	<path d="M290.6,29c0-8.7-3.1-12.4-10.3-12.4c-7.3,0-10.4,3.7-10.4,12.4c0,8.6,3.2,12.5,10.4,12.5C287.6,41.5,290.6,37.9,290.6,29z
		 M280.3,21.1c3.6,0,5.2,1.1,5.2,7.8c0,6.7-1.7,7.9-5.2,7.9c-3.6,0-5.2-1.2-5.2-7.9C275,22.3,276.7,21.1,280.3,21.1z"/>
	<polygon points="308.6,26.4 299.7,26.4 299.7,16.9 294.8,16.9 294.8,41 299.7,41 299.7,30.9 308.6,30.9 308.6,41 313.6,41 
		313.6,16.9 308.6,16.9 	"/>
	<path d="M324.9,16.9L316.3,41h5.3l1.6-5h9l1.5,5h5.5l-8.6-24.1H324.9z M327.7,21.3l0.4,1.6l2.7,8.8h-6.3l2.7-8.8L327.7,21.3z"/>
	<polygon points="356.4,30.5 356.5,32.1 346.2,17.1 346.1,16.9 341.9,16.9 341.9,41 346.3,41 346.3,26.9 346.3,25.2 347.2,26.6 
		357.4,41 360.9,41 360.9,16.9 356.4,16.9 	"/>
	<path d="M373.8,26.6c-2.2-0.8-4.1-1.4-4.1-3c0-1.7,1.3-2.5,3.9-2.5c1.8,0,3.6,0.3,5.5,1l0.3,0.1l0.7-4.3l-0.2-0.1
		c-1.8-0.8-4.2-1.3-6.5-1.3c-5.3,0-8.4,2.7-8.4,7.2c0,4.7,3.9,6.1,7,7.2c2.3,0.8,4.2,1.5,4.2,3.2c0,1.9-1.3,2.9-4,2.9
		c-2.2,0-4.3-0.6-6.3-1.7l-0.4-0.2l-0.7,4.5l0.2,0.1c2.1,1.2,4.6,1.8,7.2,1.8c5.4,0,8.7-2.9,8.7-7.6C380.9,29,377,27.7,373.8,26.6z"
		/>
	<polygon points="389.4,30.7 398.5,30.7 398.5,26.5 389.4,26.5 389.4,21.5 400.2,21.5 400.1,16.9 384.5,16.9 384.5,41 400.6,41 
		400.7,36.6 389.4,36.6 	"/>
	<polygon points="419,16.9 419,30.5 419,32.1 408.8,17.1 408.7,16.9 404.5,16.9 404.5,41 408.9,41 408.9,26.9 408.9,25.2 
		409.8,26.6 419.9,41 423.4,41 423.4,16.9 	"/>
</g>
<g>
	<g>
		<g>
			<g>
				<path d="M1.9,2c0,0,0.1,27.7,5.4,44.5c4.9,15.2,15.8,27.9,29,36.1C49.5,74.4,60.1,61.7,65,46.5C70.4,29.7,70.4,2,70.4,2H1.9z"/>
			</g>
		</g>
	</g>
	<g>
		<path fill="#FFD520" d="M36.3,81.2C23,72.7,12.9,60,8.4,46.1C3.8,31.6,3.1,8.5,3,3.1h66.2c-0.1,5.4-0.7,28.5-5.4,43
			C59.3,60.3,49.6,72.8,36.3,81.2z"/>
		<g>
			<path d="M14.2,42c0.1-0.1,0.6-0.6,1.1-1c2.8-2.3,7.8-6.9,13.7-6.3c5.4,0.6,7.5,4.6,7.5,4.6c-2.4,2.6-3.9,6.4-4.1,9.6
				c-0.1,3.1,0.9,22.4,0.9,22.4s0.1,5.1,0.3,8.1c0.9,0.7,1.9,1.3,2.8,1.9c0.8-0.5,1.5-1,2.3-1.5l0.5-21.4c0.2-3.6-0.4-8.3,2.5-11.3
				c0.2-0.2,1.1-0.9,1.1-0.9s0.9,0.8,1.2,0.9c0.1,0.1,0.3,0.1,0.4,0l6.8-5.8c0.1-0.1,0.2-0.3,0.1-0.4c-0.2-0.5-0.6-1.2-0.6-1.2
				s5.5-5.4,8.9-7.8c0.3-0.2,0.1-0.7-0.3-0.5c-1.7,0.7-3.5,0.5-4.5-0.5c-0.4-0.4-0.6-1.1-1.2-0.7c-4,2.7-7.3,3.7-7.3,3.7
				c-1.2-1-2-2.1-2.7-3.3c-3.3-6.7-1.6-15.4,3.1-20.9c1.5-1.7,2.9-2.8,4.7-3.9c0.2-0.1,0.2-0.5-0.2-0.5C36.2,5.9,22.9,15.8,17,29.4
				c-1.7,3.9-3,8.4-3.2,12.2C13.8,42.1,13.9,42.4,14.2,42z"/>
			<g>
				<g>
					<path fill="#FFD520" d="M51.8,33.1c0.5-0.1,1.1-0.1,1.3,0.1c0.3,0.3-0.4,1.4-0.8,2c-0.9,1.6-1,1.7-1.9,3.1c0,0-0.1-0.7,0.1-1.4
						c0.2-0.8,0.6-1.4,0.9-1.9c0.4-0.5,0.7-0.9,0.7-1.2c-0.1-0.3-1.1,0.1-1.5,0.1c-0.5,0.1-1.6,0.5-2.6-0.1
						C47.9,34,50.7,33.3,51.8,33.1z"/>
					<path fill="#FFD520" d="M36.2,46.5c0.4-0.1,2.3-1.4,3.8-1.2c1.1,0.1,1.7,0.5,1.7,0.5c-1.1,0.1-2-0.1-3.8,0.8
						c-0.9,0.5-2,1.4-2.7,0.7c-0.4-0.4-0.4-1.3,0-3.2c0.5-2.1,1.3-3.4,1.3-3.4s0.1,0.8-0.7,4.7C35.7,46.2,35.7,46.7,36.2,46.5z"/>
				</g>
				<path fill="#FFD520" d="M34,69.6c0,0-0.2,1.4,1,2.8c1.1,1.4,2.8,3.1,2.8,3.1s0.3-1.2-0.9-2.6C35.7,71.5,34,69.6,34,69.6z"/>
				<path fill="#FFD520" d="M33.6,59.3c0,0-0.1,1.5,1.1,2.9c1.2,1.4,3.2,3.3,3.2,3.3s0.2-1.2-1.1-2.7C35.6,61.3,33.6,59.3,33.6,59.3
					z"/>
				<path fill="#FFD520" d="M33.4,48.9c0,0-0.2,1.4,1.1,3c1.3,1.5,3.8,4.5,3.8,4.5s0.2-1.5-1.1-3.1C35.8,51.7,33.4,48.9,33.4,48.9z"
					/>
			</g>
		</g>
	</g>
</g>
</svg>
