<svg id="ORIGINAL_2_copy_2" data-name="ORIGINAL 2 copy 2" xmlns="http://www.w3.org/2000/svg" viewBox="0 0 2222.28 647.5"><defs><style>.cls-1{fill:#e40017;}.cls-2{fill:#ffcd00;}</style></defs><title>Logo-01-Horisontal-Skogmo-Vgs-RGB</title><path d="M966,497.44q-18-7.65-27.75-21.9t-9.75-33.15v-6.6a3.59,3.59,0,0,1,3.6-3.6h34.2a3.59,3.59,0,0,1,3.6,3.6v4.5q0,12,11.1,20.25t30,8.25q15.9,0,23.7-6.75a21.17,21.17,0,0,0,7.8-16.65,16.79,16.79,0,0,0-4.8-12.15,42.39,42.39,0,0,0-13-8.7q-8.25-3.75-26.25-10.35a257.06,257.06,0,0,1-34-14.1,68.38,68.38,0,0,1-23.4-19.65q-9.45-12.45-9.45-30.75,0-18,9.3-31.5t25.8-20.7q16.5-7.2,38.1-7.2,22.8,0,40.65,8.1t27.9,22.65q10,14.55,10,33.75v4.5a3.59,3.59,0,0,1-3.6,3.6h-34.5a3.59,3.59,0,0,1-3.6-3.6v-2.4q0-12.6-10.35-21.45t-28.35-8.85q-14.1,0-22,6t-8,16.5a18,18,0,0,0,4.65,12.6q4.65,5.1,13.8,9.15t28.35,11a353.11,353.11,0,0,1,33.45,13.8,66.65,66.65,0,0,1,21.9,17.85q9.75,11.85,9.75,30.75,0,28.2-20.7,44.55T1008,505.09Q984,505.09,966,497.44Z" transform="translate(-215.83 -215.08)"/><path d="M1116.65,501.64a3.47,3.47,0,0,1-1.05-2.55V296.29a3.59,3.59,0,0,1,3.6-3.6h35.1a3.59,3.59,0,0,1,3.6,3.6v101.1q0,.9.6,1.05a1.25,1.25,0,0,0,1.2-.45l40.8-47.4a6.31,6.31,0,0,1,4.5-2.1h39.9q3,0,3,2.1a5.13,5.13,0,0,1-.9,2.4l-38.1,48.3a2.73,2.73,0,0,0-.3,2.1l44.7,95.1a4.61,4.61,0,0,1,.6,1.8q0,2.4-3.3,2.4h-36.9a4.25,4.25,0,0,1-4.2-2.7l-29.7-70.2a1.4,1.4,0,0,0-1-.75.86.86,0,0,0-1,.45l-19.2,24a4.61,4.61,0,0,0-.6,1.8v43.8a3.59,3.59,0,0,1-3.6,3.6h-35.1A3.47,3.47,0,0,1,1116.65,501.64Z" transform="translate(-215.83 -215.08)"/><path d="M1296.74,491.89q-18-13.2-24.6-36a106.42,106.42,0,0,1-4.2-30.6,111,111,0,0,1,4.2-31.8q6.88-22.2,24.9-34.8t43.2-12.6q24.59,0,42,12.45t24.6,34.65a103,103,0,0,1,4.8,31.5,106,106,0,0,1-4.2,30.3q-6.6,23.4-24.45,36.75t-43,13.35Q1314.74,505.09,1296.74,491.89Zm60-29.1q6.9-6,9.9-16.5a87,87,0,0,0,2.4-21,81.63,81.63,0,0,0-2.4-21.3q-3.32-10.2-10.2-15.9a25.53,25.53,0,0,0-16.8-5.7q-10.2,0-17,5.7t-9.75,15.9q-2.42,7.2-2.4,21.3,0,13.5,2.1,21,3,10.5,10,16.5a25.69,25.69,0,0,0,17.25,6A24.73,24.73,0,0,0,1356.74,462.79Z" transform="translate(-215.83 -215.08)"/><path d="M1537.36,349.54a3.47,3.47,0,0,1,2.55-1.05H1575a3.59,3.59,0,0,1,3.6,3.6v136.8q0,39.29-22.65,56.1t-58.35,16.8a206.52,206.52,0,0,1-23.4-1.5c-2-.21-3-1.5-3-3.9l1.2-30.9q0-3.91,4.2-3.3a121.19,121.19,0,0,0,19.8,1.8q19.2,0,29.55-8.4t10.35-27q0-.9-.6-1a1.25,1.25,0,0,0-1.2.45q-11.4,12.3-33.3,12.3a70.37,70.37,0,0,1-35.85-9.45q-16.35-9.45-23.25-30.45-4.5-13.8-4.5-35.7,0-23.4,5.4-38.1a59.88,59.88,0,0,1,21.3-29.4q15-11.1,34.8-11.1,23.1,0,35.4,13.8a1.25,1.25,0,0,0,1.2.45q.6-.15.6-1v-7.2A3.47,3.47,0,0,1,1537.36,349.54Zm-1,74.85a131.42,131.42,0,0,0-.6-14.4,48,48,0,0,0-2.1-9.6,27,27,0,0,0-9-13.05q-6.3-4.95-15.6-4.95a24,24,0,0,0-15.3,4.95,29,29,0,0,0-9.3,13.05q-4.2,9-4.2,24.3,0,16.8,3.6,24a26,26,0,0,0,9.45,13.05,26.4,26.4,0,0,0,16,4.95q9.6,0,15.9-4.95a25.28,25.28,0,0,0,8.7-12.75Q1536.31,440,1536.31,424.39Z" transform="translate(-215.83 -215.08)"/><path d="M1823,360.19q13.2,14.1,13.2,39.6v99.3a3.59,3.59,0,0,1-3.6,3.6h-35.1a3.59,3.59,0,0,1-3.6-3.6v-90q0-12.3-6.3-19.5t-16.8-7.2q-10.5,0-17.1,7.2t-6.6,19.2v90.3a3.59,3.59,0,0,1-3.6,3.6h-34.8a3.59,3.59,0,0,1-3.6-3.6v-90q0-12-6.6-19.35t-17.1-7.35q-9.6,0-16.05,5.7t-7.65,15.9v95.1a3.59,3.59,0,0,1-3.6,3.6H1619a3.59,3.59,0,0,1-3.6-3.6v-147a3.59,3.59,0,0,1,3.6-3.6h35.1a3.59,3.59,0,0,1,3.6,3.6v11.7a1.21,1.21,0,0,0,.6,1.2q.6.3,1.2-.6,12.3-18.3,38.1-18.3,15,0,26.25,6.3a42.23,42.23,0,0,1,17.25,18q.9,1.8,2.1,0a43.23,43.23,0,0,1,17.85-18.3,53,53,0,0,1,25.35-6Q1809.79,346.09,1823,360.19Z" transform="translate(-215.83 -215.08)"/><path d="M1895,491.89q-18-13.2-24.6-36a106.77,106.77,0,0,1-4.2-30.6,111.32,111.32,0,0,1,4.2-31.8q6.9-22.2,24.9-34.8t43.2-12.6q24.6,0,42,12.45t24.6,34.65a102.72,102.72,0,0,1,4.8,31.5,105.67,105.67,0,0,1-4.2,30.3q-6.6,23.4-24.45,36.75t-43,13.35Q1913,505.09,1895,491.89Zm60-29.1q6.9-6,9.9-16.5a86.5,86.5,0,0,0,2.4-21,81.2,81.2,0,0,0-2.4-21.3q-3.3-10.2-10.2-15.9a25.51,25.51,0,0,0-16.8-5.7q-10.2,0-17,5.7t-9.75,15.9q-2.4,7.2-2.4,21.3,0,13.5,2.1,21,3,10.5,10,16.5a25.71,25.71,0,0,0,17.25,6A24.71,24.71,0,0,0,1955,462.79Z" transform="translate(-215.83 -215.08)"/><path d="M1006.17,629.81h12.6l-37.32,89.05H971l-37.2-89.05h12.84l29.76,72.63Z" transform="translate(-215.83 -215.08)"/><path d="M1040.06,718.86V629.81h12.36v89.05Z" transform="translate(-215.83 -215.08)"/><path d="M1082.76,629.81h29.64q20.52,0,31.8,11.62t11.28,32.84q0,21.22-11.28,32.91t-31.8,11.68h-29.64ZM1111.68,708q31.2,0,31.2-33.73t-31.2-33.6h-16.56V708Z" transform="translate(-215.83 -215.08)"/><path d="M1182.13,718.86V629.81h55v10.48h-42.84v28h40.44v10.61h-40.44v29.44h42.84v10.48Z" transform="translate(-215.83 -215.08)"/><path d="M1331.15,718.86h-13.68l-14.4-28.55a15,15,0,0,0-5.7-6.38,17.9,17.9,0,0,0-8.7-1.83h-13.92v36.76h-12.24V629.81h36q14,0,21.42,6.57t7.38,19.2q0,10.23-5.46,16.8t-15.54,8.33q6.24,2,10.32,9.86Zm-34.08-47.24q9.36,0,13.86-3.85t4.5-11.94q0-8.08-4.44-11.81t-13.92-3.73h-22.44v31.33Z" transform="translate(-215.83 -215.08)"/><path d="M1355.27,718.86V629.81h55v10.48h-42.84v28h40.44v10.61h-40.44v29.44h42.84v10.48Z" transform="translate(-215.83 -215.08)"/><path d="M1503.09,671.62v41.93a50.6,50.6,0,0,1-13.56,4.62,81.21,81.21,0,0,1-16.56,1.7q-12.84,0-22.2-5.43a35.28,35.28,0,0,1-14.28-15.66q-4.92-10.24-4.92-24.51,0-14,4.92-24.32a35.54,35.54,0,0,1,14.1-15.72q9.18-5.43,21.66-5.43a47.49,47.49,0,0,1,16.56,2.78,34.66,34.66,0,0,1,12.84,8.08l-4.44,9.6a41.1,41.1,0,0,0-11.88-7.45,35.57,35.57,0,0,0-13-2.28q-13.68,0-20.94,8.91t-7.26,25.83q0,17.31,7.44,26.21t21.72,8.91a60.46,60.46,0,0,0,18.48-2.91v-25h-19.68v-9.85Z" transform="translate(-215.83 -215.08)"/><path d="M1588.24,696.88H1545.4l-9,22h-12.48l36.72-86.65a12,12,0,0,1-4.56-4.61,13,13,0,0,1-1.68-6.51,12.69,12.69,0,0,1,3.6-9.16,11.73,11.73,0,0,1,8.76-3.72,11.87,11.87,0,0,1,8.88,3.72,12.69,12.69,0,0,1,3.6,9.16,13,13,0,0,1-1.68,6.51,12,12,0,0,1-4.56,4.61l36.6,86.65h-12.36Zm-38.64-10.36H1584l-17.16-42.19Zm13.2-69.85a7,7,0,0,0,0,8.84,5,5,0,0,0,4,1.77,5.15,5.15,0,0,0,4-1.83,6.68,6.68,0,0,0,0-8.72,5.15,5.15,0,0,0-4-1.83A5,5,0,0,0,1562.8,616.67Z" transform="translate(-215.83 -215.08)"/><path d="M1631.65,718.86V629.81h55v10.48h-42.83v28h40.44v10.61h-40.44v29.44h42.83v10.48Z" transform="translate(-215.83 -215.08)"/><path d="M1769.88,629.81h11.64v89.05H1772l-48.36-67.2v67.2H1712V629.81h9.36l48.48,67.32Z" transform="translate(-215.83 -215.08)"/><path d="M1811.86,629.81h29.64q20.52,0,31.8,11.62t11.28,32.84q0,21.22-11.28,32.91t-31.8,11.68h-29.64ZM1840.78,708q31.2,0,31.2-33.73t-31.2-33.6h-16.56V708Z" transform="translate(-215.83 -215.08)"/><path d="M1911.23,718.86V629.81h55v10.48h-42.84v28h40.44v10.61h-40.44v29.44h42.84v10.48Z" transform="translate(-215.83 -215.08)"/><path d="M2046.77,717.09a38.67,38.67,0,0,1-14.1-8.21l4.44-9.6a40.68,40.68,0,0,0,12.9,7.64,44.87,44.87,0,0,0,14.94,2.34q9.48,0,14.64-3.73a12.23,12.23,0,0,0,5.16-10.54,9.4,9.4,0,0,0-4.8-8.66q-4.8-2.83-15.36-5.36a90,90,0,0,1-16.56-5.18,24.85,24.85,0,0,1-10.14-7.9c-2.45-3.32-3.66-7.56-3.66-12.69a24.52,24.52,0,0,1,3.9-13.77,26.06,26.06,0,0,1,11.1-9.29,39.2,39.2,0,0,1,16.68-3.34,48.72,48.72,0,0,1,16.74,2.84,32.76,32.76,0,0,1,12.9,8.15l-4.32,9.6a43,43,0,0,0-12.06-7.52,35.27,35.27,0,0,0-13.14-2.46q-9.12,0-14.34,4a13.1,13.1,0,0,0-5.22,11.05c0,4,1.51,7.09,4.56,9.16s7.92,3.93,14.64,5.62a116.86,116.86,0,0,1,17.1,5.24,26.21,26.21,0,0,1,10.44,7.45q3.9,4.74,3.9,12.32a23.64,23.64,0,0,1-3.9,13.51,25,25,0,0,1-11.16,9,42.9,42.9,0,0,1-17.22,3.16A56.12,56.12,0,0,1,2046.77,717.09Z" transform="translate(-215.83 -215.08)"/><path d="M2192.29,718.86h-15.48l-41.64-41.94v41.94h-12.36V629.81h12.36v40.55L2175,629.81h15.24l-42.72,43.07Z" transform="translate(-215.83 -215.08)"/><path d="M2220.32,714.31a36.38,36.38,0,0,1-13.62-15.79q-4.8-10.23-4.8-24.12t4.74-24.32a35.44,35.44,0,0,1,13.62-15.79q8.88-5.49,20.88-5.49t21,5.49a35.44,35.44,0,0,1,13.62,15.79q4.74,10.3,4.74,24.19t-4.74,24.19a35.82,35.82,0,0,1-13.62,15.85q-8.88,5.57-21,5.56T2220.32,714.31Zm40.62-14.14q7.08-9.1,7.08-25.9t-7-25.83q-7-9-19.86-9-12.6,0-19.62,9t-7,25.83q0,16.8,7,25.9t19.62,9.09Q2253.86,709.26,2260.94,700.17Z" transform="translate(-215.83 -215.08)"/><path d="M2307.23,718.86V629.81h12.36V708h41v10.86Z" transform="translate(-215.83 -215.08)"/><path d="M2383.15,718.86V629.81h55v10.48h-42.84v28h40.44v10.61h-40.44v29.44h42.84v10.48Z" transform="translate(-215.83 -215.08)"/><path class="cls-1" d="M215.83,215.08V574.55c0,9.48.47,24.18,1.38,33.42,14.16,142.94,135.13,254.61,282.25,254.61S767.54,750.91,781.7,608c.92-9.24,1.39-23.94,1.39-33.42V215.08Z" transform="translate(-215.83 -215.08)"/><path class="cls-2" d="M507,685.19a.29.29,0,0,1,.22-.32.29.29,0,0,1,.33.18c9,28.16,25.55,54.08,46.2,76.59,8.5-3.46,17.63-6.69,26.9-10.21C545.6,720.76,515.72,680.09,507,632.92a.29.29,0,0,1,.55-.14c14.35,45,48.17,84.37,86.95,113.13a166.26,166.26,0,0,0,30.84-16.56c-51.67-30.84-106.07-84.45-118.34-151a.29.29,0,0,1,.55-.15c19.61,61.58,75.63,112.49,131,140.31a95.86,95.86,0,0,0,20.3-28.47C599.86,665.3,522,603.31,507,522a.29.29,0,0,1,.22-.32.29.29,0,0,1,.33.18c22.76,71.46,94.54,128.55,157.37,151.87,3.78-13,5.92-28.2,5.92-46.25C595.07,604.34,507,515.21,507,425.37h0v-56H491.91v56.06c0,88-94.11,180.77-163.85,202.1,0,18.05,2.15,33.28,5.93,46.25,62.83-23.32,134.61-80.41,157.36-151.87a.31.31,0,0,1,.34-.18.27.27,0,0,1,.21.32c-15,81.27-92.84,143.26-151.79,168a95.86,95.86,0,0,0,20.3,28.47c55.32-27.82,111.34-78.73,130.94-140.31a.31.31,0,0,1,.34-.18.28.28,0,0,1,.21.33c-12.26,66.52-66.66,120.13-118.33,151a166.26,166.26,0,0,0,30.84,16.56c38.78-28.76,72.6-68.1,86.94-113.13a.29.29,0,0,1,.34-.18.26.26,0,0,1,.21.32c-8.69,47.17-38.57,87.84-73.64,118.51,9.27,3.52,18.4,6.75,26.9,10.21,20.65-22.51,37.23-48.43,46.19-76.59a.31.31,0,0,1,.34-.18.27.27,0,0,1,.21.32c-5.46,29.67-19.31,56.76-37.56,80.42,21.77,10.11,37.56,23.43,37.57,50.73v0H507v0c0-27.3,15.8-40.63,37.57-50.74C526.34,742,512.49,714.86,507,685.19Z" transform="translate(-215.83 -215.08)"/><ellipse class="cls-2" cx="677.06" cy="385.37" rx="16.49" ry="16.76" transform="translate(64.1 840.51) rotate(-89)"/><path class="cls-2" d="M730.14,471.69c-26,62.21-138.41,63.63-158.27-8.43,10.25,17.6,29.53,31.66,58.58,32.16,57.61,1,105.15-46.14,106.19-105.32q.08-4.22-.17-8.35c-.11-2.48-.35-4.95-.69-7.42a109.13,109.13,0,0,0-5-21.63c-6.32-21.11-15.15-42.57-12-65.61a13.16,13.16,0,1,0,5-25.42c-6.87-.12-12.91,3.63-16.9,11.91-5.79,12-1.69,29.82,2.86,42.85-18.71-21.23-36.35-35.29-75.48-35.29-32.19,0-92.58,9.71-105.48-24.29A40.57,40.57,0,0,0,522.82,277c-.84,28.69,32.47,32.76,34.2,32.41-38.61,37.18,7.76,88.4,45.37,58.45,3.3-2.63,7.25-7,8.36-11a25.43,25.43,0,0,1-33.56-28.29c4.4-21,26.28-35.85,63.59-35.58-41.68,8.52-37.87,46.71-28.27,49.18,0,0-.24-2.14-.22-3.23.28-16.12,17.58-31.57,42.56-31.57,29.84,0,48.61,23.06,55.4,35.49a44.76,44.76,0,0,0-71.74,34.93c-.16,8.91,4.22,24.82,20.16,26.82-18.43-24.78-1.5-47.23,18.74-47.55,21.28-.34,37.28,17.92,37.28,39.2,0,34.09-35.11,57.72-71.78,57.72-15.4,0-31.28-4.74-41.41-13.3a24.92,24.92,0,0,0,17.83-23.46c.24-13.75-10.71-25.34-24.47-25.34-30.54,0-37.69,32.22-37.69,48,0,117.73,162,131.91,152.19,181.9,7.56-4.39,9.66-15,9.08-22.47-1.94-25.54-47.42-50.37-57.16-56.95C673.35,546.62,746.07,528.05,730.14,471.69Z" transform="translate(-215.83 -215.08)"/><path class="cls-2" d="M273.76,261.71c21.49-1.83,28.5,32.18-1.24,56.49a10.48,10.48,0,0,1-6.44,2.67c4.56-3.43,14.06-21.34,11.83-33.94-8.64,1.2-13.93-3.33-15.49-9.65C260.55,269.71,266.29,262.35,273.76,261.71Z" transform="translate(-215.83 -215.08)"/><path class="cls-2" d="M476.21,277a40.57,40.57,0,0,0-5.89-20.17c-12.9,34-73.29,24.29-105.47,24.29-60.75,0-103.49,49.79-102.46,109S311,496.43,368.59,495.42c27.73-.48,46.57-13.32,57.13-29.81h0c-18,66-127.44,69.46-155.35,6.08C259,482,263.22,502,274.16,507.13c-5.77,25.62,36.39,41.68,59,33.51-16,8-69.18,49.62-43.51,81.14C279.74,571,442.1,557.55,442.1,442.35c0-10.89-3.57-50.47-37.93-50.47-13.76,0-24.71,11.59-24.47,25.34a24.92,24.92,0,0,0,17.83,23.46c-10.13,9-26,13.3-41.41,13.3-26.26,0-74.19-14.34-74.19-61.45,0-20.43,15.91-37.27,36.34-37.63a36.93,36.93,0,0,1,28.32,12.46,18.31,18.31,0,1,0-10.34,33.19c16.58-.29,18.44-18.1,18.65-17.2a43,43,0,0,0-43-50.75,42.68,42.68,0,0,0-20.26,5.47c18.47-28.47,42.81-30.53,52.54-30.7,25-.44,42.28,15.45,42.56,31.57a19.76,19.76,0,0,1-.41,4.29c11.47-6.56,10-43.1-28-50,33.72-.83,59,13.7,63.53,35.3a25.73,25.73,0,0,1,.37,4.33,25.44,25.44,0,0,1-33.93,24c1.12,4,5.07,8.39,8.37,11,37.6,29.95,84-21.27,45.36-58.45C443.74,309.78,477.06,305.71,476.21,277Z" transform="translate(-215.83 -215.08)"/></svg>