<svg xmlns="http://www.w3.org/2000/svg" viewBox="0 0 2263.2 647.5"><defs><style>.cls-1{fill:#e40017;}.cls-2{fill:#ffcd00;}</style></defs><title>Logo-01-Horisontal-Bø-Vgs-RGB</title><g id="Layer_2" data-name="Layer 2"><g id="ORIGINAL_2_copy_2" data-name="ORIGINAL 2 copy 2"><path d="M842.85,179.91q28.5,14.7,28.5,48.9,0,29.1-19.8,43.95t-51.9,14.85H722a3.59,3.59,0,0,1-3.6-3.6V81.21a3.59,3.59,0,0,1,3.6-3.6h75.3q71.1,0,71.1,57.6,0,30-25.5,42.9Q841.05,179,842.85,179.91Zm-82.2-64.5v46.8a1.33,1.33,0,0,0,1.5,1.5h35.1q14.1,0,21.9-6.6t7.8-18q0-11.7-7.8-18.45t-21.9-6.75h-35.1A1.33,1.33,0,0,0,760.65,115.41ZM821.25,244q7.8-7.05,7.8-19.35t-7.8-19.35q-7.8-7-21.9-7h-37.2a1.33,1.33,0,0,0-1.5,1.5v49.8a1.33,1.33,0,0,0,1.5,1.5h37.5Q813.45,251,821.25,244Z"/><path d="M1031.43,162.51q3.6,5.4,7.2,15.6a102.72,102.72,0,0,1,4.8,31.5,105.67,105.67,0,0,1-4.2,30.3q-6.6,23.4-24.45,36.75t-43,13.35a81.53,81.53,0,0,1-27.6-4.5q-1.5-.6-2.1.6l-11.1,16.2a3,3,0,0,1-2.7,1.5,5.13,5.13,0,0,1-2.4-.9l-24.3-19.5a3,3,0,0,1-1.5-2.7,4,4,0,0,1,.9-2.4l11.4-16.8a1.5,1.5,0,0,0,0-1.8,78.23,78.23,0,0,1-8.4-18.9,106.77,106.77,0,0,1-4.2-30.6,111.32,111.32,0,0,1,4.2-31.8q6.9-22.2,24.9-34.8T972,131q16.2,0,27.9,4.8,1.5.6,2.1-.6l12-17.1a3,3,0,0,1,2.7-1.5,5.13,5.13,0,0,1,2.4.9l24.3,19.5a4.14,4.14,0,0,1,1.5,2.7,5.13,5.13,0,0,1-.9,2.4l-12.6,18.3A3.73,3.73,0,0,0,1031.43,162.51Zm-30.6,47.7a81.2,81.2,0,0,0-2.4-21.3q-3.3-10.2-10.2-15.9a25.51,25.51,0,0,0-16.8-5.7q-10.2,0-16.95,5.7t-9.75,15.9q-2.4,7.2-2.4,21.3,0,13.5,2.1,21,3,10.5,10.05,16.5a25.71,25.71,0,0,0,17.25,6,24.71,24.71,0,0,0,16.8-6q6.9-6,9.9-16.5A86.5,86.5,0,0,0,1000.83,210.21Z"/><path d="M790.34,414.73h12.6l-37.32,89H755.18l-37.2-89h12.84l29.76,72.63Z"/><path d="M824.23,503.78v-89h12.36v89Z"/><path d="M866.92,414.73h29.64q20.52,0,31.8,11.62t11.28,32.84q0,21.22-11.28,32.9t-31.8,11.69H866.92Zm28.92,78.19q31.2,0,31.2-33.73t-31.2-33.6H879.28v67.33Z"/><path d="M1026.86,503.78l-9-22H975l-9,22H953.54l37.68-89h10.32l37.68,89Zm-47.64-32.34h34.44L996.5,429.25Z"/><path d="M1129.91,503.78h-13.68l-14.4-28.55a15,15,0,0,0-5.7-6.38,17.9,17.9,0,0,0-8.7-1.83h-13.92v36.76h-12.24v-89h36q14,0,21.42,6.56t7.38,19.21q0,10.23-5.46,16.79t-15.54,8.34q6.24,2,10.32,9.85Zm-34.08-47.24q9.36,0,13.86-3.86t4.5-11.93q0-8.08-4.44-11.81t-13.92-3.73h-22.44v31.33Z"/><path d="M1154,503.78v-89h55v10.48h-42.84v28h40.44v10.61h-40.44v29.43H1209v10.49Z"/><path d="M1301.85,456.54v41.93a50.26,50.26,0,0,1-13.56,4.61,80.52,80.52,0,0,1-16.56,1.71q-12.84,0-22.2-5.43a35.28,35.28,0,0,1-14.28-15.66q-4.92-10.24-4.92-24.51,0-14,4.92-24.32a35.54,35.54,0,0,1,14.1-15.72q9.18-5.43,21.66-5.43a47.49,47.49,0,0,1,16.56,2.78,34.66,34.66,0,0,1,12.84,8.08l-4.44,9.6a41.1,41.1,0,0,0-11.88-7.45,35.57,35.57,0,0,0-13-2.28q-13.68,0-20.94,8.91t-7.26,25.83q0,17.31,7.44,26.21t21.72,8.91a60.46,60.46,0,0,0,18.48-2.91v-25h-19.68v-9.85Z"/><path d="M1387,481.8h-42.84l-9,22h-12.48l36.72-86.65a12,12,0,0,1-4.56-4.61,13,13,0,0,1-1.68-6.51,12.69,12.69,0,0,1,3.6-9.16,11.73,11.73,0,0,1,8.76-3.72,11.87,11.87,0,0,1,8.88,3.72A12.69,12.69,0,0,1,1378,406a13,13,0,0,1-1.68,6.51,12,12,0,0,1-4.56,4.61l36.6,86.65H1396Zm-38.64-10.36h34.44l-17.16-42.19Zm13.2-69.85a7,7,0,0,0,0,8.84,5,5,0,0,0,4,1.77,5.15,5.15,0,0,0,4-1.83,6.68,6.68,0,0,0,0-8.72,5.15,5.15,0,0,0-4-1.83A5,5,0,0,0,1361.56,401.59Z"/><path d="M1499.85,503.78l-9-22H1448l-9,22h-12.48l37.68-89h10.32l37.68,89Zm-47.64-32.34h34.44l-17.16-42.19Z"/><path d="M1592.1,414.73h11.64v89h-9.48l-48.36-67.2v67.2h-11.64v-89h9.36l48.48,67.32Z"/><path d="M1634.08,414.73h29.64q20.52,0,31.8,11.62t11.28,32.84q0,21.22-11.28,32.9t-31.8,11.69h-29.64ZM1663,492.92q31.2,0,31.2-33.73t-31.2-33.6h-16.56v67.33Z"/><path d="M1733.45,503.78v-89h55v10.48h-42.84v28H1786v10.61h-40.44v29.43h42.84v10.49Z"/><path d="M1869,502a38.67,38.67,0,0,1-14.1-8.21l4.44-9.6a40.57,40.57,0,0,0,12.9,7.64,44.87,44.87,0,0,0,14.94,2.34q9.46,0,14.64-3.73a12.26,12.26,0,0,0,5.16-10.54,9.42,9.42,0,0,0-4.8-8.66q-4.8-2.83-15.36-5.37a89.31,89.31,0,0,1-16.56-5.17,24.85,24.85,0,0,1-10.14-7.9c-2.45-3.32-3.66-7.56-3.66-12.69a24.52,24.52,0,0,1,3.9-13.77,26,26,0,0,1,11.1-9.29,39.17,39.17,0,0,1,16.68-3.34,48.72,48.72,0,0,1,16.74,2.84,32.83,32.83,0,0,1,12.9,8.15l-4.32,9.6a43.15,43.15,0,0,0-12.06-7.52,35.27,35.27,0,0,0-13.14-2.46q-9.12,0-14.34,4a13.1,13.1,0,0,0-5.22,11.05c0,4,1.51,7.09,4.56,9.16s7.92,3.93,14.64,5.62a116.86,116.86,0,0,1,17.1,5.24,26.28,26.28,0,0,1,10.44,7.45c2.59,3.16,3.9,7.26,3.9,12.32a23.72,23.72,0,0,1-3.9,13.51,25,25,0,0,1-11.16,9,42.94,42.94,0,0,1-17.22,3.16A56.08,56.08,0,0,1,1869,502Z"/><path d="M2014.51,503.78H1999l-41.64-41.94v41.94H1945v-89h12.36v40.54l39.84-40.54h15.24l-42.72,43.07Z"/><path d="M2042.36,495.57q-8.76-9.22-8.76-27.16V414.73h12.24v54.56q0,12.25,5.58,18.57t16.62,6.32q10.92,0,16.56-6.32t5.64-18.57V414.73h12.24v53.68q0,17.8-8.82,27.1T2068,504.79Q2051.12,504.79,2042.36,495.57Z"/><path d="M2132.31,503.78v-89h12.36v78.19h41v10.86Z"/><path d="M2208.24,503.78v-89h55v10.48h-42.84v28h40.44v10.61h-40.44v29.43h42.84v10.49Z"/><path class="cls-1" d="M0,0V359.47c0,9.48.47,24.18,1.38,33.42C15.53,535.83,136.5,647.5,283.63,647.5S551.71,535.83,565.87,392.89c.91-9.24,1.38-23.94,1.38-33.42V0Z"/><path class="cls-2" d="M291.19,470.11a.29.29,0,0,1,.22-.32.3.3,0,0,1,.33.18c9,28.16,25.55,54.08,46.19,76.59,8.51-3.46,17.63-6.69,26.91-10.21-35.07-30.67-64.95-71.34-73.65-118.51a.29.29,0,0,1,.55-.14c14.34,45,48.16,84.36,86.94,113.13a166.34,166.34,0,0,0,30.85-16.56c-51.67-30.84-106.08-84.45-118.34-151a.29.29,0,0,1,.22-.32.3.3,0,0,1,.33.18c19.61,61.58,75.63,112.49,131,140.31A95.86,95.86,0,0,0,443,475c-59-24.77-136.82-86.76-151.8-168a.29.29,0,0,1,.22-.32.3.3,0,0,1,.33.18c22.76,71.46,94.54,128.55,157.37,151.87,3.78-13,5.92-28.2,5.92-46.25-75.79-23.18-163.84-112.31-163.84-202.15h0v-56H276.07v56.06c0,88-94.1,180.77-163.84,202.1,0,18.05,2.14,33.28,5.93,46.25C181,435.37,252.77,378.28,275.52,306.82a.31.31,0,0,1,.34-.18.29.29,0,0,1,.21.32c-15,81.27-92.84,143.26-151.79,168a96,96,0,0,0,20.29,28.47c55.32-27.82,111.34-78.73,131-140.31a.31.31,0,0,1,.34-.18.29.29,0,0,1,.21.32c-12.26,66.53-66.66,120.14-118.34,151a166.66,166.66,0,0,0,30.85,16.56c38.78-28.77,72.6-68.1,86.94-113.13a.29.29,0,0,1,.34-.18.28.28,0,0,1,.21.32c-8.69,47.17-38.57,87.84-73.64,118.51,9.27,3.52,18.4,6.75,26.9,10.21C250,524.05,266.56,498.13,275.52,470a.31.31,0,0,1,.34-.18.29.29,0,0,1,.21.32c-5.47,29.67-19.32,56.76-37.56,80.42,21.76,10.11,37.55,23.43,37.56,50.73v0h15.12v0c0-27.31,15.8-40.63,37.57-50.74C310.51,526.87,296.66,499.78,291.19,470.11Z"/><ellipse class="cls-2" cx="461.22" cy="170.29" rx="16.49" ry="16.76" transform="translate(282.91 628.47) rotate(-89)"/><path class="cls-2" d="M514.31,256.61c-26,62.21-138.41,63.63-158.27-8.43,10.24,17.6,29.53,31.66,58.57,32.16,57.62,1,105.16-46.14,106.2-105.32,0-2.81,0-5.59-.17-8.35-.11-2.48-.35-4.95-.69-7.42a108.45,108.45,0,0,0-5-21.63c-6.31-21.11-15.14-42.57-12-65.61a13.16,13.16,0,1,0,5-25.42C501,46.47,495,50.22,491,58.5c-5.79,12-1.68,29.82,2.87,42.85-18.72-21.23-36.36-35.29-75.49-35.29-32.18,0-92.57,9.71-105.47-24.29A40.57,40.57,0,0,0,307,61.94c-.85,28.68,32.47,32.76,34.2,32.41-38.62,37.18,7.76,88.4,45.36,58.45,3.3-2.63,7.25-7,8.37-11a25.43,25.43,0,0,1-33.56-28.29c4.4-21,26.27-35.86,63.59-35.58-41.68,8.52-37.87,46.71-28.27,49.18,0,0-.24-2.14-.22-3.23C396.74,107.74,414,92.28,439,92.28c29.84,0,48.61,23.07,55.4,35.5a44.76,44.76,0,0,0-71.74,34.93c-.16,8.91,4.22,24.82,20.16,26.82-18.44-24.79-1.51-47.23,18.74-47.55,21.27-.34,37.28,17.92,37.28,39.2,0,34.09-35.12,57.72-71.78,57.72-15.4,0-31.28-4.74-41.41-13.31a24.9,24.9,0,0,0,17.83-23.45c.24-13.75-10.71-25.34-24.47-25.34-30.55,0-37.7,32.22-37.7,48,0,117.73,162,131.91,152.19,181.9,7.56-4.39,9.66-15,9.09-22.47-1.95-25.54-47.42-50.37-57.16-57C457.51,331.54,530.24,313,514.31,256.61Z"/><path class="cls-2" d="M57.93,46.63c21.49-1.83,28.5,32.18-1.24,56.49a10.5,10.5,0,0,1-6.44,2.67c4.56-3.43,14.06-21.34,11.83-33.94-8.64,1.2-13.93-3.33-15.49-9.65C44.72,54.63,50.46,47.27,57.93,46.63Z"/><path class="cls-2" d="M260.38,61.94a40.57,40.57,0,0,0-5.89-20.17c-12.9,34-73.29,24.29-105.48,24.29-60.74,0-103.48,49.79-102.45,109S95.14,281.35,152.75,280.34c27.74-.48,46.58-13.32,57.14-29.81h0c-18,66-127.44,69.46-155.36,6.08-11.38,10.34-7.15,30.3,3.8,35.44-5.77,25.62,36.39,41.68,59,33.51-16,8-69.18,49.62-43.52,81.14-9.93-50.78,152.43-64.23,152.43-179.43,0-10.9-3.58-50.47-37.93-50.47-13.76,0-24.71,11.59-24.47,25.34a24.9,24.9,0,0,0,17.83,23.45c-10.13,9-26,13.31-41.41,13.31-26.26,0-74.19-14.34-74.19-61.45,0-20.43,15.91-37.27,36.33-37.63a36.92,36.92,0,0,1,28.32,12.46,18.3,18.3,0,1,0-10.33,33.19c16.58-.29,18.44-18.1,18.65-17.2a43,43,0,0,0-43-50.75A42.65,42.65,0,0,0,75.81,123c18.47-28.47,42.81-30.54,52.54-30.71,25-.43,42.28,15.46,42.56,31.58a19.82,19.82,0,0,1-.41,4.29c11.46-6.56,10-43.1-28-50,33.72-.83,59,13.7,63.53,35.3a25.73,25.73,0,0,1,.37,4.33,25.44,25.44,0,0,1-33.93,24c1.11,4,5.06,8.39,8.36,11,37.61,29.95,84-21.27,45.37-58.45C227.91,94.7,261.22,90.62,260.38,61.94Z"/></g></g></svg>