<svg xmlns="http://www.w3.org/2000/svg" viewBox="0 0 3151.33 647.5"><defs><style>.cls-1{fill:#e40017;}.cls-2{fill:#ffcd00;}</style></defs><title>Logo-01-Horisontal-Hjalmar-Johansen-Vgs-RGB</title><g id="Layer_2" data-name="Layer 2"><g id="ORIGINAL_2_copy_2" data-name="ORIGINAL 2 copy 2"><path d="M830.79,78.66a3.46,3.46,0,0,1,2.55-1h35.1a3.59,3.59,0,0,1,3.6,3.6V284a3.59,3.59,0,0,1-3.6,3.6h-35.1a3.59,3.59,0,0,1-3.6-3.6v-82.8a1.33,1.33,0,0,0-1.5-1.5h-66.3a1.32,1.32,0,0,0-1.5,1.5V284a3.59,3.59,0,0,1-3.6,3.6h-35.1a3.59,3.59,0,0,1-3.6-3.6V81.21a3.59,3.59,0,0,1,3.6-3.6h35.1a3.59,3.59,0,0,1,3.6,3.6v80.7a1.32,1.32,0,0,0,1.5,1.5h66.3a1.33,1.33,0,0,0,1.5-1.5V81.21A3.43,3.43,0,0,1,830.79,78.66Z"/><path d="M874.49,345.21v-28.5c0-2.61,1.31-3.71,3.9-3.3q17.72.58,24.75-5.1t7.05-20.1l-.6-151.2a3.59,3.59,0,0,1,3.6-3.6h35.1a3.59,3.59,0,0,1,3.6,3.6v150.6q0,24.3-6.6,37.65T922.94,344q-15.75,5.4-44.85,4.8Q874.49,348.81,874.49,345.21Zm39.3-235.95a23.26,23.26,0,0,1-6.6-17q0-10.5,6.6-17.1t16.8-6.6q10.5,0,17.1,6.6t6.6,17.1a23.08,23.08,0,0,1-23.7,23.7Q920.39,116,913.79,109.26Z"/><path d="M1086.35,137.76q15.3,6.75,23.85,18.45a43.19,43.19,0,0,1,8.55,26.1V284a3.59,3.59,0,0,1-3.6,3.6h-35.1a3.59,3.59,0,0,1-3.6-3.6v-9.9a1.21,1.21,0,0,0-.6-1.2q-.6-.3-1.2.6-12.6,16.5-40.5,16.5-23.4,0-37.8-11.4T982,245q0-23.1,16.2-35.85t46.2-12.75H1075a1.33,1.33,0,0,0,1.5-1.5v-6.6q0-9.9-6-15.45t-18-5.55q-9.3,0-15.45,3.3a15.41,15.41,0,0,0-8,9.3q-.9,3.3-3.9,3l-36.3-4.8q-3.6-.6-3.3-2.7a39.94,39.94,0,0,1,10.05-22.8q8.85-10.2,23.4-15.9a88.59,88.59,0,0,1,32.55-5.7Q1071.05,131,1086.35,137.76Zm-18.9,113.85q9-6.9,9-17.7v-10.8a1.33,1.33,0,0,0-1.5-1.5h-21.6q-13.5,0-21.15,5.1a16.33,16.33,0,0,0-7.65,14.4q0,8.1,5.7,12.75t15.3,4.65Q1058.45,258.51,1067.45,251.61Z"/><path d="M1155.89,286.56a3.47,3.47,0,0,1-1.05-2.55V81.21a3.59,3.59,0,0,1,3.6-3.6h35.1a3.59,3.59,0,0,1,3.6,3.6V284a3.59,3.59,0,0,1-3.6,3.6h-35.1A3.47,3.47,0,0,1,1155.89,286.56Z"/><path d="M1441.64,145.11q13.2,14.1,13.2,39.6V284a3.59,3.59,0,0,1-3.6,3.6h-35.1a3.59,3.59,0,0,1-3.6-3.6V194q0-12.3-6.3-19.5t-16.8-7.2q-10.5,0-17.1,7.2t-6.6,19.2V284a3.59,3.59,0,0,1-3.6,3.6h-34.8a3.59,3.59,0,0,1-3.6-3.6V194q0-12-6.6-19.35t-17.1-7.35q-9.6,0-16,5.7t-7.65,15.9V284a3.59,3.59,0,0,1-3.6,3.6h-35.1a3.59,3.59,0,0,1-3.6-3.6V137a3.59,3.59,0,0,1,3.6-3.6h35.1a3.59,3.59,0,0,1,3.6,3.6v11.7a1.21,1.21,0,0,0,.6,1.2q.6.3,1.2-.6,12.3-18.3,38.1-18.3,15,0,26.25,6.3a42.23,42.23,0,0,1,17.25,18q.9,1.8,2.1,0a43.23,43.23,0,0,1,17.85-18.3,53,53,0,0,1,25.35-6Q1428.44,131,1441.64,145.11Z"/><path d="M1587.35,137.76q15.3,6.75,23.85,18.45a43.19,43.19,0,0,1,8.55,26.1V284a3.59,3.59,0,0,1-3.6,3.6h-35.1a3.59,3.59,0,0,1-3.6-3.6v-9.9a1.21,1.21,0,0,0-.6-1.2c-.41-.2-.8,0-1.2.6q-12.6,16.5-40.5,16.5-23.4,0-37.8-11.4T1483,245q0-23.1,16.2-35.85t46.2-12.75H1576a1.33,1.33,0,0,0,1.5-1.5v-6.6q0-9.9-6-15.45t-18-5.55q-9.3,0-15.45,3.3a15.41,15.41,0,0,0-8,9.3c-.6,2.2-1.91,3.2-3.9,3l-36.3-4.8q-3.6-.6-3.3-2.7a39.88,39.88,0,0,1,10-22.8q8.84-10.2,23.4-15.9a88.59,88.59,0,0,1,32.55-5.7Q1572.05,131,1587.35,137.76Zm-18.9,113.85q9-6.9,9-17.7v-10.8a1.33,1.33,0,0,0-1.5-1.5h-21.6q-13.5,0-21.15,5.1a16.33,16.33,0,0,0-7.65,14.4q0,8.1,5.7,12.75t15.3,4.65Q1559.44,258.51,1568.45,251.61Z"/><path d="M1749.74,135.51q2.4,1.2,1.8,4.5l-6.3,34.2c-.2,2.4-1.61,3.1-4.2,2.1a33.24,33.24,0,0,0-10.5-1.5,49.47,49.47,0,0,0-6.6.6,29.46,29.46,0,0,0-18.3,8q-7.5,7-7.5,18.75V284a3.59,3.59,0,0,1-3.6,3.6h-35.1a3.59,3.59,0,0,1-3.6-3.6V137a3.59,3.59,0,0,1,3.6-3.6h35.1a3.59,3.59,0,0,1,3.6,3.6v11.4a1.19,1.19,0,0,0,.6,1.2.59.59,0,0,0,.9-.3q12.3-18,33-18Q1743.44,131.31,1749.74,135.51Z"/><path d="M1871.39,281.46a62.83,62.83,0,0,1-26.25-24q-9.32-15.45-9.3-35.85v-18.9a3.58,3.58,0,0,1,3.59-3.6h35.11a3.59,3.59,0,0,1,3.6,3.6v18.9q0,14.4,8.84,23.25t24.16,8.85q14.68,0,24.15-8.85t9.44-23.25V81.21a3.6,3.6,0,0,1,3.61-3.6h34.8a3.58,3.58,0,0,1,3.59,3.6v140.4q0,20.4-9.59,35.85a64.81,64.81,0,0,1-26.71,24q-17.09,8.55-39.29,8.55Q1888.33,290,1871.39,281.46Z"/><path d="M2045.86,276.81q-18-13.2-24.6-36a106.77,106.77,0,0,1-4.2-30.6,111.32,111.32,0,0,1,4.2-31.8q6.9-22.2,24.9-34.8t43.2-12.6q24.6,0,42,12.45t24.6,34.65a102.72,102.72,0,0,1,4.8,31.5,105.67,105.67,0,0,1-4.2,30.3q-6.6,23.4-24.45,36.75T2089.06,290Q2063.86,290,2045.86,276.81Zm60-29.1q6.9-6,9.9-16.5a86.5,86.5,0,0,0,2.4-21,81.2,81.2,0,0,0-2.4-21.3q-3.3-10.2-10.2-15.9a25.51,25.51,0,0,0-16.8-5.7q-10.2,0-17,5.7t-9.75,15.9q-2.4,7.2-2.4,21.3,0,13.5,2.1,21,3,10.5,10,16.5a25.71,25.71,0,0,0,17.25,6A24.71,24.71,0,0,0,2105.86,247.71Z"/><path d="M2310.91,145.71q14.7,14.7,14.7,39.9V284a3.59,3.59,0,0,1-3.6,3.6h-35.1a3.59,3.59,0,0,1-3.6-3.6v-89.7q0-12-6.75-19.5t-17.85-7.5q-11.1,0-17.85,7.5t-6.75,19.5V284a3.59,3.59,0,0,1-3.6,3.6h-35.1a3.59,3.59,0,0,1-3.6-3.6V81.21a3.59,3.59,0,0,1,3.6-3.6h35.1a3.59,3.59,0,0,1,3.6,3.6v66.3a1.21,1.21,0,0,0,.6,1.2.59.59,0,0,0,.9-.3q12.3-17.4,36.6-17.4Q2296.21,131,2310.91,145.71Z"/><path d="M2458.39,137.76q15.3,6.75,23.85,18.45a43.19,43.19,0,0,1,8.55,26.1V284a3.59,3.59,0,0,1-3.6,3.6h-35.1a3.59,3.59,0,0,1-3.6-3.6v-9.9a1.21,1.21,0,0,0-.6-1.2q-.6-.3-1.2.6-12.6,16.5-40.5,16.5-23.4,0-37.8-11.4T2354,245q0-23.1,16.2-35.85t46.2-12.75H2447a1.33,1.33,0,0,0,1.5-1.5v-6.6q0-9.9-6-15.45t-18-5.55q-9.3,0-15.45,3.3a15.41,15.41,0,0,0-7.95,9.3q-.9,3.3-3.9,3l-36.3-4.8q-3.6-.6-3.3-2.7a39.94,39.94,0,0,1,10-22.8q8.85-10.2,23.4-15.9a88.59,88.59,0,0,1,32.55-5.7Q2443.09,131,2458.39,137.76Zm-18.9,113.85q9-6.9,9-17.7v-10.8a1.33,1.33,0,0,0-1.5-1.5h-21.6q-13.5,0-21.15,5.1a16.33,16.33,0,0,0-7.65,14.4q0,8.1,5.7,12.75t15.3,4.65Q2430.49,258.51,2439.49,251.61Z"/><path d="M2646,145.71q14.7,14.7,14.7,39.9V284a3.59,3.59,0,0,1-3.6,3.6H2622a3.59,3.59,0,0,1-3.6-3.6v-89.7q0-12-6.75-19.5t-17.85-7.5q-11.1,0-17.85,7.5t-6.75,19.5V284a3.59,3.59,0,0,1-3.6,3.6h-35.1a3.59,3.59,0,0,1-3.6-3.6V137a3.59,3.59,0,0,1,3.6-3.6h35.1a3.59,3.59,0,0,1,3.6,3.6v10.5a1.21,1.21,0,0,0,.6,1.2.59.59,0,0,0,.9-.3q12.3-17.4,36.6-17.4Q2631.28,131,2646,145.71Z"/><path d="M2722.45,284q-15-5.7-23.25-15.9A35.75,35.75,0,0,1,2691,245v-3a3.59,3.59,0,0,1,3.6-3.6h33.3a3.59,3.59,0,0,1,3.6,3.6v.3q0,6.6,7.35,11.25t18.45,4.65q10.2,0,16.5-4t6.3-10q0-5.4-5.4-8.1t-17.7-5.7a178.19,178.19,0,0,1-22.2-6.9q-19.2-6.6-30.6-16.2t-11.4-27.6q0-22.2,17.25-35.25t45.75-13.05q19.2,0,33.6,6.15t22.35,17.25a42.21,42.21,0,0,1,8,25.2,3.59,3.59,0,0,1-3.6,3.6H2784a3.59,3.59,0,0,1-3.6-3.6q0-6.6-6.75-11.1t-17.85-4.5q-9.9,0-16.2,3.6t-6.3,9.9q0,6,6.15,9t20.55,6.3q3.3.9,7.5,1.95t9,2.55q21.3,6.3,33.6,16.2t12.3,28.8q0,22.2-17.55,34.65t-47.25,12.45Q2737.45,289.71,2722.45,284Z"/><path d="M2987.23,220.11q-.3,3.6-3.9,3.6h-92.7q-1.8,0-1.2,1.5a53.71,53.71,0,0,0,3.3,12q7.8,16.8,31.8,16.8,19.2-.3,30.3-15.6a3.34,3.34,0,0,1,2.7-1.8,3.29,3.29,0,0,1,2.1,1.2l21.6,21.3a4.14,4.14,0,0,1,1.5,2.7,6.18,6.18,0,0,1-1.2,2.4,65.43,65.43,0,0,1-25.5,19.05,85.21,85.21,0,0,1-34.2,6.75q-25.8,0-43.65-11.7t-25.65-32.7q-6.3-15-6.3-39.3,0-16.5,4.5-29.1,6.9-21.3,24.15-33.9t40.95-12.6q30,0,48.15,17.4t22.05,46.5A129.07,129.07,0,0,1,2987.23,220.11Zm-96-35.1a70.8,70.8,0,0,0-2.1,9.6,1.33,1.33,0,0,0,1.5,1.5h51.9q1.8,0,1.2-1.5-1.5-8.7-1.5-8.4a25.92,25.92,0,0,0-9.45-14q-6.75-4.95-16.65-4.95Q2897.23,167.31,2891.23,185Z"/><path d="M3136.63,145.71q14.68,14.7,14.7,39.9V284a3.59,3.59,0,0,1-3.6,3.6h-35.1a3.59,3.59,0,0,1-3.6-3.6v-89.7q0-12-6.75-19.5t-17.85-7.5q-11.1,0-17.85,7.5t-6.75,19.5V284a3.59,3.59,0,0,1-3.6,3.6h-35.1a3.59,3.59,0,0,1-3.6-3.6V137a3.59,3.59,0,0,1,3.6-3.6h35.1a3.59,3.59,0,0,1,3.6,3.6v10.5a1.19,1.19,0,0,0,.6,1.2.59.59,0,0,0,.9-.3q12.3-17.4,36.6-17.4Q3121.93,131,3136.63,145.71Z"/><path d="M790.34,414.73h12.6l-37.32,89H755.18l-37.2-89h12.84l29.76,72.63Z"/><path d="M824.23,503.78v-89h12.36v89Z"/><path d="M866.92,414.73h29.64q20.52,0,31.8,11.62t11.28,32.84q0,21.22-11.28,32.9t-31.8,11.69H866.92Zm28.92,78.19q31.2,0,31.2-33.73t-31.2-33.6H879.28v67.33Z"/><path d="M966.29,503.78v-89h55v10.48H978.41v28h40.44v10.61H978.41v29.43h42.84v10.49Z"/><path d="M1115.32,503.78h-13.68l-14.4-28.55a15,15,0,0,0-5.7-6.38,17.9,17.9,0,0,0-8.7-1.83h-13.92v36.76h-12.24v-89h36q14,0,21.42,6.56t7.38,19.21q0,10.23-5.46,16.79t-15.54,8.34q6.24,2,10.32,9.85Zm-34.08-47.24q9.36,0,13.86-3.86t4.5-11.93q0-8.08-4.44-11.81t-13.92-3.73H1058.8v31.33Z"/><path d="M1139.44,503.78v-89h55v10.48h-42.84v28H1192v10.61h-40.44v29.43h42.84v10.49Z"/><path d="M1287.26,456.54v41.93a50.26,50.26,0,0,1-13.56,4.61,80.67,80.67,0,0,1-16.56,1.71q-12.86,0-22.2-5.43a35.22,35.22,0,0,1-14.28-15.66q-4.94-10.24-4.92-24.51,0-14,4.92-24.32a35.48,35.48,0,0,1,14.1-15.72q9.18-5.43,21.66-5.43A47.49,47.49,0,0,1,1273,416.5a34.74,34.74,0,0,1,12.84,8.08l-4.44,9.6a41.37,41.37,0,0,0-11.88-7.45,35.57,35.57,0,0,0-13-2.28q-13.68,0-20.94,8.91t-7.26,25.83q0,17.31,7.44,26.21t21.72,8.91A60.5,60.5,0,0,0,1276,491.4v-25H1256.3v-9.85Z"/><path d="M1372.41,481.8h-42.84l-9,22h-12.48l36.72-86.65a12,12,0,0,1-4.56-4.61,13,13,0,0,1-1.68-6.51,12.69,12.69,0,0,1,3.6-9.16,11.73,11.73,0,0,1,8.76-3.72,11.87,11.87,0,0,1,8.88,3.72,12.69,12.69,0,0,1,3.6,9.16,13,13,0,0,1-1.68,6.51,12,12,0,0,1-4.56,4.61l36.6,86.65h-12.36Zm-38.64-10.36h34.44l-17.16-42.19Zm13.2-69.85a7,7,0,0,0,0,8.84,5,5,0,0,0,4,1.77,5.15,5.15,0,0,0,4-1.83,6.68,6.68,0,0,0,0-8.72,5.15,5.15,0,0,0-4-1.83A5,5,0,0,0,1347,401.59Z"/><path d="M1415.82,503.78v-89h55v10.48h-42.84v28h40.44v10.61h-40.44v29.43h42.84v10.49Z"/><path d="M1554.05,414.73h11.64v89h-9.48l-48.36-67.2v67.2h-11.64v-89h9.36l48.48,67.32Z"/><path d="M1596,414.73h29.65q20.5,0,31.8,11.62t11.27,32.84q0,21.22-11.27,32.9t-31.8,11.69H1596Zm28.92,78.19q31.2,0,31.2-33.73t-31.2-33.6h-16.55v67.33Z"/><path d="M1695.4,503.78v-89h55v10.48h-42.84v28H1748v10.61h-40.44v29.43h42.84v10.49Z"/><path d="M1830.93,502a38.76,38.76,0,0,1-14.1-8.21l4.44-9.6a40.68,40.68,0,0,0,12.9,7.64,44.87,44.87,0,0,0,14.94,2.34q9.48,0,14.64-3.73a12.23,12.23,0,0,0,5.16-10.54,9.4,9.4,0,0,0-4.8-8.66q-4.8-2.83-15.36-5.37a89.31,89.31,0,0,1-16.56-5.17,24.85,24.85,0,0,1-10.14-7.9c-2.44-3.32-3.66-7.56-3.66-12.69a24.52,24.52,0,0,1,3.9-13.77,26.06,26.06,0,0,1,11.1-9.29,39.2,39.2,0,0,1,16.68-3.34,48.72,48.72,0,0,1,16.74,2.84,32.76,32.76,0,0,1,12.9,8.15l-4.32,9.6a43,43,0,0,0-12.06-7.52,35.2,35.2,0,0,0-13.14-2.46q-9.12,0-14.34,4a13.1,13.1,0,0,0-5.22,11.05,10.36,10.36,0,0,0,4.56,9.16q4.56,3.09,14.64,5.62a116.09,116.09,0,0,1,17.1,5.24,26.21,26.21,0,0,1,10.44,7.45q3.9,4.74,3.9,12.32a23.64,23.64,0,0,1-3.9,13.51,25,25,0,0,1-11.16,9,42.87,42.87,0,0,1-17.22,3.16A56.17,56.17,0,0,1,1830.93,502Z"/><path d="M1976.46,503.78H1961l-41.64-41.94v41.94H1907v-89h12.36v40.54l39.84-40.54h15.24L1931.7,457.8Z"/><path d="M2004.49,499.23a36.38,36.38,0,0,1-13.62-15.79q-4.8-10.23-4.8-24.12t4.74-24.32a35.44,35.44,0,0,1,13.62-15.79q8.88-5.49,20.88-5.49t21,5.49A35.44,35.44,0,0,1,2059.93,435q4.74,10.31,4.74,24.19t-4.74,24.19a35.82,35.82,0,0,1-13.62,15.85q-8.88,5.56-21,5.56T2004.49,499.23Zm40.62-14.15q7.08-9.09,7.08-25.89t-7-25.83q-7-9-19.86-9-12.6,0-19.62,9t-7,25.83q0,16.8,7,25.89t19.62,9.1Q2038,494.18,2045.11,485.08Z"/><path d="M2091.39,503.78v-89h12.36v78.19h41v10.86Z"/><path d="M2167.32,503.78v-89h55v10.48h-42.84v28h40.44v10.61h-40.44v29.43h42.84v10.49Z"/><path class="cls-1" d="M0,0V359.47c0,9.48.47,24.18,1.38,33.42C15.53,535.83,136.5,647.5,283.63,647.5S551.71,535.83,565.87,392.89c.91-9.24,1.38-23.94,1.38-33.42V0Z"/><path class="cls-2" d="M291.19,470.11a.29.29,0,0,1,.22-.32.3.3,0,0,1,.33.18c9,28.16,25.55,54.08,46.19,76.59,8.51-3.46,17.63-6.69,26.91-10.21-35.07-30.67-64.95-71.34-73.65-118.51a.29.29,0,0,1,.55-.14c14.34,45,48.16,84.36,86.94,113.13a166.34,166.34,0,0,0,30.85-16.56c-51.67-30.84-106.08-84.45-118.34-151a.29.29,0,0,1,.22-.32.3.3,0,0,1,.33.18c19.61,61.58,75.63,112.49,131,140.31A95.86,95.86,0,0,0,443,475c-59-24.77-136.82-86.76-151.8-168a.29.29,0,0,1,.22-.32.3.3,0,0,1,.33.18c22.76,71.46,94.54,128.55,157.37,151.87,3.78-13,5.92-28.2,5.92-46.25-75.79-23.18-163.84-112.31-163.84-202.15h0v-56H276.07v56.06c0,88-94.1,180.77-163.84,202.1,0,18.05,2.14,33.28,5.93,46.25C181,435.37,252.77,378.28,275.52,306.82a.31.31,0,0,1,.34-.18.29.29,0,0,1,.21.32c-15,81.27-92.84,143.26-151.79,168a96,96,0,0,0,20.29,28.47c55.32-27.82,111.34-78.73,131-140.31a.31.31,0,0,1,.34-.18.29.29,0,0,1,.21.32c-12.26,66.53-66.66,120.14-118.34,151a166.66,166.66,0,0,0,30.85,16.56c38.78-28.77,72.6-68.1,86.94-113.13a.29.29,0,0,1,.34-.18.28.28,0,0,1,.21.32c-8.69,47.17-38.57,87.84-73.64,118.51,9.27,3.52,18.4,6.75,26.9,10.21C250,524.05,266.56,498.13,275.52,470a.31.31,0,0,1,.34-.18.29.29,0,0,1,.21.32c-5.47,29.67-19.32,56.76-37.56,80.42,21.76,10.11,37.55,23.43,37.56,50.73v0h15.12v0c0-27.31,15.8-40.63,37.57-50.74C310.51,526.87,296.66,499.78,291.19,470.11Z"/><ellipse class="cls-2" cx="461.22" cy="170.29" rx="16.49" ry="16.76" transform="translate(282.91 628.47) rotate(-89)"/><path class="cls-2" d="M514.31,256.61c-26,62.21-138.41,63.63-158.27-8.43,10.24,17.6,29.53,31.66,58.57,32.16,57.62,1,105.16-46.14,106.2-105.32,0-2.81,0-5.59-.17-8.35-.11-2.48-.35-4.95-.69-7.42a108.45,108.45,0,0,0-5-21.63c-6.31-21.11-15.14-42.57-12-65.61a13.16,13.16,0,1,0,5-25.42C501,46.47,495,50.22,491,58.5c-5.79,12-1.68,29.82,2.87,42.85-18.72-21.23-36.36-35.29-75.49-35.29-32.18,0-92.57,9.71-105.47-24.29A40.57,40.57,0,0,0,307,61.94c-.85,28.68,32.47,32.76,34.2,32.41-38.62,37.18,7.76,88.4,45.36,58.45,3.3-2.63,7.25-7,8.37-11a25.43,25.43,0,0,1-33.56-28.29c4.4-21,26.27-35.86,63.59-35.58-41.68,8.52-37.87,46.71-28.27,49.18,0,0-.24-2.14-.22-3.23C396.74,107.74,414,92.28,439,92.28c29.84,0,48.61,23.07,55.4,35.5a44.76,44.76,0,0,0-71.74,34.93c-.16,8.91,4.22,24.82,20.16,26.82-18.44-24.79-1.51-47.23,18.74-47.55,21.27-.34,37.28,17.92,37.28,39.2,0,34.09-35.12,57.72-71.78,57.72-15.4,0-31.28-4.74-41.41-13.31a24.9,24.9,0,0,0,17.83-23.45c.24-13.75-10.71-25.34-24.47-25.34-30.55,0-37.7,32.22-37.7,48,0,117.73,162,131.91,152.19,181.9,7.56-4.39,9.66-15,9.09-22.47-1.95-25.54-47.42-50.37-57.16-57C457.51,331.54,530.24,313,514.31,256.61Z"/><path class="cls-2" d="M57.93,46.63c21.49-1.83,28.5,32.18-1.24,56.49a10.5,10.5,0,0,1-6.44,2.67c4.56-3.43,14.06-21.34,11.83-33.94-8.64,1.2-13.93-3.33-15.49-9.65C44.72,54.63,50.46,47.27,57.93,46.63Z"/><path class="cls-2" d="M260.38,61.94a40.57,40.57,0,0,0-5.89-20.17c-12.9,34-73.29,24.29-105.48,24.29-60.74,0-103.48,49.79-102.45,109S95.14,281.35,152.75,280.34c27.74-.48,46.58-13.32,57.14-29.81h0c-18,66-127.44,69.46-155.36,6.08-11.38,10.34-7.15,30.3,3.8,35.44-5.77,25.62,36.39,41.68,59,33.51-16,8-69.18,49.62-43.52,81.14-9.93-50.78,152.43-64.23,152.43-179.43,0-10.9-3.58-50.47-37.93-50.47-13.76,0-24.71,11.59-24.47,25.34a24.9,24.9,0,0,0,17.83,23.45c-10.13,9-26,13.31-41.41,13.31-26.26,0-74.19-14.34-74.19-61.45,0-20.43,15.91-37.27,36.33-37.63a36.92,36.92,0,0,1,28.32,12.46,18.3,18.3,0,1,0-10.33,33.19c16.58-.29,18.44-18.1,18.65-17.2a43,43,0,0,0-43-50.75A42.65,42.65,0,0,0,75.81,123c18.47-28.47,42.81-30.54,52.54-30.71,25-.43,42.28,15.46,42.56,31.58a19.82,19.82,0,0,1-.41,4.29c11.46-6.56,10-43.1-28-50,33.72-.83,59,13.7,63.53,35.3a25.73,25.73,0,0,1,.37,4.33,25.44,25.44,0,0,1-33.93,24c1.11,4,5.06,8.39,8.36,11,37.61,29.95,84-21.27,45.37-58.45C227.91,94.7,261.22,90.62,260.38,61.94Z"/></g></g></svg>