<svg xmlns="http://www.w3.org/2000/svg" viewBox="0 0 2222.28 647.5"><defs><style>.cls-1{fill:#e40017;}.cls-2{fill:#ffcd00;}</style></defs><title>Logo-01-Horisontal-Bamble-Vgs-RGB_1</title><g id="Layer_2" data-name="Layer 2"><g id="ORIGINAL_2_copy_2" data-name="ORIGINAL 2 copy 2"><path d="M842.74,179.91q28.5,14.7,28.5,48.9,0,29.1-19.8,43.95t-51.9,14.85h-77.7a3.59,3.59,0,0,1-3.6-3.6V81.21a3.59,3.59,0,0,1,3.6-3.6h75.3q71.1,0,71.1,57.6,0,30-25.5,42.9Q840.94,179,842.74,179.91Zm-82.2-64.5v46.8a1.33,1.33,0,0,0,1.5,1.5h35.1q14.1,0,21.9-6.6t7.8-18q0-11.7-7.8-18.45t-21.9-6.75H762A1.33,1.33,0,0,0,760.54,115.41ZM821.14,244q7.8-7.05,7.8-19.35t-7.8-19.35q-7.8-7-21.9-7H762a1.33,1.33,0,0,0-1.5,1.5v49.8A1.33,1.33,0,0,0,762,251h37.5Q813.34,251,821.14,244Z"/><path d="M1001.74,137.76q15.3,6.75,23.85,18.45a43.19,43.19,0,0,1,8.55,26.1V284a3.59,3.59,0,0,1-3.6,3.6h-35.1a3.59,3.59,0,0,1-3.6-3.6v-9.9a1.21,1.21,0,0,0-.6-1.2q-.6-.3-1.2.6-12.6,16.5-40.5,16.5-23.4,0-37.8-11.4T897.34,245q0-23.1,16.2-35.85t46.2-12.75h30.6a1.33,1.33,0,0,0,1.5-1.5v-6.6q0-9.9-6-15.45t-18-5.55q-9.3,0-15.45,3.3a15.41,15.41,0,0,0-7.95,9.3q-.9,3.3-3.9,3l-36.3-4.8q-3.6-.6-3.3-2.7a39.94,39.94,0,0,1,10-22.8q8.85-10.2,23.4-15.9a88.59,88.59,0,0,1,32.55-5.7Q986.44,131,1001.74,137.76Zm-18.9,113.85q9-6.9,9-17.7v-10.8a1.33,1.33,0,0,0-1.5-1.5h-21.6q-13.5,0-21.15,5.1a16.33,16.33,0,0,0-7.65,14.4q0,8.1,5.7,12.75t15.3,4.65Q973.84,258.51,982.84,251.61Z"/><path d="M1277.83,145.11q13.2,14.1,13.2,39.6V284a3.59,3.59,0,0,1-3.6,3.6h-35.1a3.59,3.59,0,0,1-3.6-3.6V194q0-12.3-6.3-19.5t-16.8-7.2q-10.5,0-17.1,7.2t-6.6,19.2V284a3.59,3.59,0,0,1-3.6,3.6h-34.8a3.59,3.59,0,0,1-3.6-3.6V194q0-12-6.6-19.35t-17.1-7.35q-9.6,0-16,5.7t-7.65,15.9V284a3.59,3.59,0,0,1-3.6,3.6h-35.1a3.59,3.59,0,0,1-3.6-3.6V137a3.59,3.59,0,0,1,3.6-3.6h35.1a3.59,3.59,0,0,1,3.6,3.6v11.7a1.21,1.21,0,0,0,.6,1.2q.6.3,1.2-.6,12.3-18.3,38.1-18.3,15,0,26.25,6.3a42.23,42.23,0,0,1,17.25,18q.9,1.8,2.1,0a43.23,43.23,0,0,1,17.85-18.3,53,53,0,0,1,25.35-6Q1264.63,131,1277.83,145.11Z"/><path d="M1469.14,209.91q0,20.7-5.1,36.3-6.9,20.4-22,32.1T1406.14,290q-21.9,0-34.5-16.5a1.25,1.25,0,0,0-1.2-.45q-.6.15-.6,1.05V284a3.59,3.59,0,0,1-3.6,3.6h-35.1a3.59,3.59,0,0,1-3.6-3.6V81.21a3.59,3.59,0,0,1,3.6-3.6h35.1a3.59,3.59,0,0,1,3.6,3.6v64.2a1.21,1.21,0,0,0,.6,1.2q.6.3,1.2-.6,11.7-15,33.3-15,21.9,0,36.75,11.25t21.75,30.45Q1469.14,188.31,1469.14,209.91Zm-43.8.9q0-20.7-7.2-31.8-7.2-11.7-21.3-11.7-13.2,0-20.1,11.7-6.6,11.4-6.6,31.5t6,30.3q7.2,12.9,21,12.9,14.7,0,21.9-12.9Q1425.34,229.41,1425.34,210.81Z"/><path d="M1502.35,286.56a3.47,3.47,0,0,1-1-2.55V81.21a3.59,3.59,0,0,1,3.6-3.6H1540a3.59,3.59,0,0,1,3.6,3.6V284a3.59,3.59,0,0,1-3.6,3.6h-35.1A3.47,3.47,0,0,1,1502.35,286.56Z"/><path d="M1716.27,220.11q-.3,3.6-3.89,3.6h-92.7c-1.21,0-1.61.5-1.21,1.5a53.71,53.71,0,0,0,3.3,12q7.8,16.8,31.8,16.8,19.2-.3,30.31-15.6a2.7,2.7,0,0,1,4.8-.6l21.59,21.3a4.14,4.14,0,0,1,1.5,2.7,6.18,6.18,0,0,1-1.2,2.4,65.43,65.43,0,0,1-25.5,19.05,85.19,85.19,0,0,1-34.19,6.75q-25.82,0-43.66-11.7t-25.65-32.7q-6.28-15-6.3-39.3,0-16.5,4.5-29.1,6.9-21.3,24.16-33.9t41-12.6q30,0,48.14,17.4t22,46.5A129.07,129.07,0,0,1,1716.27,220.11Zm-96-35.1a69.45,69.45,0,0,0-2.09,9.6,1.32,1.32,0,0,0,1.5,1.5h51.89q1.8,0,1.2-1.5-1.5-8.7-1.5-8.4a25.92,25.92,0,0,0-9.45-14q-6.75-4.95-16.64-4.95Q1626.27,167.31,1620.27,185Z"/><path d="M790.34,414.73h12.6l-37.32,89H755.18l-37.2-89h12.84l29.76,72.63Z"/><path d="M824.23,503.78v-89h12.36v89Z"/><path d="M866.92,414.73h29.64q20.52,0,31.8,11.62t11.28,32.84q0,21.22-11.28,32.9t-31.8,11.69H866.92Zm28.92,78.19q31.2,0,31.2-33.73t-31.2-33.6H879.28v67.33Z"/><path d="M966.29,503.78v-89h55v10.48H978.41v28h40.44v10.61H978.41v29.43h42.84v10.49Z"/><path d="M1115.32,503.78h-13.68l-14.4-28.55a15,15,0,0,0-5.7-6.38,17.9,17.9,0,0,0-8.7-1.83h-13.92v36.76h-12.24v-89h36q14,0,21.42,6.56t7.38,19.21q0,10.23-5.46,16.79t-15.54,8.34q6.24,2,10.32,9.85Zm-34.08-47.24q9.36,0,13.86-3.86t4.5-11.93q0-8.08-4.44-11.81t-13.92-3.73H1058.8v31.33Z"/><path d="M1139.44,503.78v-89h55v10.48h-42.84v28H1192v10.61h-40.44v29.43h42.84v10.49Z"/><path d="M1287.26,456.54v41.93a50.26,50.26,0,0,1-13.56,4.61,80.67,80.67,0,0,1-16.56,1.71q-12.86,0-22.2-5.43a35.22,35.22,0,0,1-14.28-15.66q-4.94-10.24-4.92-24.51,0-14,4.92-24.32a35.48,35.48,0,0,1,14.1-15.72q9.18-5.43,21.66-5.43A47.49,47.49,0,0,1,1273,416.5a34.74,34.74,0,0,1,12.84,8.08l-4.44,9.6a41.37,41.37,0,0,0-11.88-7.45,35.57,35.57,0,0,0-13-2.28q-13.68,0-20.94,8.91t-7.26,25.83q0,17.31,7.44,26.21t21.72,8.91A60.5,60.5,0,0,0,1276,491.4v-25H1256.3v-9.85Z"/><path d="M1372.41,481.8h-42.84l-9,22h-12.48l36.72-86.65a12,12,0,0,1-4.56-4.61,13,13,0,0,1-1.68-6.51,12.69,12.69,0,0,1,3.6-9.16,11.73,11.73,0,0,1,8.76-3.72,11.87,11.87,0,0,1,8.88,3.72,12.69,12.69,0,0,1,3.6,9.16,13,13,0,0,1-1.68,6.51,12,12,0,0,1-4.56,4.61l36.6,86.65h-12.36Zm-38.64-10.36h34.44l-17.16-42.19Zm13.2-69.85a7,7,0,0,0,0,8.84,5,5,0,0,0,4,1.77,5.15,5.15,0,0,0,4-1.83,6.68,6.68,0,0,0,0-8.72,5.15,5.15,0,0,0-4-1.83A5,5,0,0,0,1347,401.59Z"/><path d="M1415.82,503.78v-89h55v10.48h-42.84v28h40.44v10.61h-40.44v29.43h42.84v10.49Z"/><path d="M1554.05,414.73h11.64v89h-9.48l-48.36-67.2v67.2h-11.64v-89h9.36l48.48,67.32Z"/><path d="M1596,414.73h29.65q20.5,0,31.8,11.62t11.27,32.84q0,21.22-11.27,32.9t-31.8,11.69H1596Zm28.92,78.19q31.2,0,31.2-33.73t-31.2-33.6h-16.55v67.33Z"/><path d="M1695.4,503.78v-89h55v10.48h-42.84v28H1748v10.61h-40.44v29.43h42.84v10.49Z"/><path d="M1830.93,502a38.76,38.76,0,0,1-14.1-8.21l4.44-9.6a40.68,40.68,0,0,0,12.9,7.64,44.87,44.87,0,0,0,14.94,2.34q9.48,0,14.64-3.73a12.23,12.23,0,0,0,5.16-10.54,9.4,9.4,0,0,0-4.8-8.66q-4.8-2.83-15.36-5.37a89.31,89.31,0,0,1-16.56-5.17,24.85,24.85,0,0,1-10.14-7.9c-2.44-3.32-3.66-7.56-3.66-12.69a24.52,24.52,0,0,1,3.9-13.77,26.06,26.06,0,0,1,11.1-9.29,39.2,39.2,0,0,1,16.68-3.34,48.72,48.72,0,0,1,16.74,2.84,32.76,32.76,0,0,1,12.9,8.15l-4.32,9.6a43,43,0,0,0-12.06-7.52,35.2,35.2,0,0,0-13.14-2.46q-9.12,0-14.34,4a13.1,13.1,0,0,0-5.22,11.05,10.36,10.36,0,0,0,4.56,9.16q4.56,3.09,14.64,5.62a116.09,116.09,0,0,1,17.1,5.24,26.21,26.21,0,0,1,10.44,7.45q3.9,4.74,3.9,12.32a23.64,23.64,0,0,1-3.9,13.51,25,25,0,0,1-11.16,9,42.87,42.87,0,0,1-17.22,3.16A56.17,56.17,0,0,1,1830.93,502Z"/><path d="M1976.46,503.78H1961l-41.64-41.94v41.94H1907v-89h12.36v40.54l39.84-40.54h15.24L1931.7,457.8Z"/><path d="M2004.49,499.23a36.38,36.38,0,0,1-13.62-15.79q-4.8-10.23-4.8-24.12t4.74-24.32a35.44,35.44,0,0,1,13.62-15.79q8.88-5.49,20.88-5.49t21,5.49A35.44,35.44,0,0,1,2059.93,435q4.74,10.31,4.74,24.19t-4.74,24.19a35.82,35.82,0,0,1-13.62,15.85q-8.88,5.56-21,5.56T2004.49,499.23Zm40.62-14.15q7.08-9.09,7.08-25.89t-7-25.83q-7-9-19.86-9-12.6,0-19.62,9t-7,25.83q0,16.8,7,25.89t19.62,9.1Q2038,494.18,2045.11,485.08Z"/><path d="M2091.39,503.78v-89h12.36v78.19h41v10.86Z"/><path d="M2167.32,503.78v-89h55v10.48h-42.84v28h40.44v10.61h-40.44v29.43h42.84v10.49Z"/><path class="cls-1" d="M0,0V359.47c0,9.48.47,24.18,1.38,33.42C15.53,535.83,136.5,647.5,283.63,647.5S551.71,535.83,565.87,392.89c.91-9.24,1.38-23.94,1.38-33.42V0Z"/><path class="cls-2" d="M291.19,470.11a.29.29,0,0,1,.22-.32.3.3,0,0,1,.33.18c9,28.16,25.55,54.08,46.19,76.59,8.51-3.46,17.63-6.69,26.91-10.21-35.07-30.67-64.95-71.34-73.65-118.51a.29.29,0,0,1,.55-.14c14.34,45,48.16,84.36,86.94,113.13a166.34,166.34,0,0,0,30.85-16.56c-51.67-30.84-106.08-84.45-118.34-151a.29.29,0,0,1,.22-.32.3.3,0,0,1,.33.18c19.61,61.58,75.63,112.49,131,140.31A95.86,95.86,0,0,0,443,475c-59-24.77-136.82-86.76-151.8-168a.29.29,0,0,1,.22-.32.3.3,0,0,1,.33.18c22.76,71.46,94.54,128.55,157.37,151.87,3.78-13,5.92-28.2,5.92-46.25-75.79-23.18-163.84-112.31-163.84-202.15h0v-56H276.07v56.06c0,88-94.1,180.77-163.84,202.1,0,18.05,2.14,33.28,5.93,46.25C181,435.37,252.77,378.28,275.52,306.82a.31.31,0,0,1,.34-.18.29.29,0,0,1,.21.32c-15,81.27-92.84,143.26-151.79,168a96,96,0,0,0,20.29,28.47c55.32-27.82,111.34-78.73,131-140.31a.31.31,0,0,1,.34-.18.29.29,0,0,1,.21.32c-12.26,66.53-66.66,120.14-118.34,151a166.66,166.66,0,0,0,30.85,16.56c38.78-28.77,72.6-68.1,86.94-113.13a.29.29,0,0,1,.34-.18.28.28,0,0,1,.21.32c-8.69,47.17-38.57,87.84-73.64,118.51,9.27,3.52,18.4,6.75,26.9,10.21C250,524.05,266.56,498.13,275.52,470a.31.31,0,0,1,.34-.18.29.29,0,0,1,.21.32c-5.47,29.67-19.32,56.76-37.56,80.42,21.76,10.11,37.55,23.43,37.56,50.73v0h15.12v0c0-27.31,15.8-40.63,37.57-50.74C310.51,526.87,296.66,499.78,291.19,470.11Z"/><ellipse class="cls-2" cx="461.22" cy="170.29" rx="16.49" ry="16.76" transform="translate(282.91 628.47) rotate(-89)"/><path class="cls-2" d="M514.31,256.61c-26,62.21-138.41,63.63-158.27-8.43,10.24,17.6,29.53,31.66,58.57,32.16,57.62,1,105.16-46.14,106.2-105.32,0-2.81,0-5.59-.17-8.35-.11-2.48-.35-4.95-.69-7.42a108.45,108.45,0,0,0-5-21.63c-6.31-21.11-15.14-42.57-12-65.61a13,13,0,0,0,6,.84,13.16,13.16,0,0,0-1-26.26C501,46.47,495,50.22,491,58.5c-5.79,12-1.68,29.82,2.87,42.85-18.72-21.23-36.36-35.29-75.49-35.29-32.18,0-92.57,9.71-105.47-24.29A40.57,40.57,0,0,0,307,61.94c-.85,28.68,32.47,32.76,34.2,32.41-38.62,37.18,7.76,88.4,45.36,58.45,3.3-2.63,7.25-7,8.37-11a25.43,25.43,0,0,1-33.56-28.29c4.4-21,26.27-35.86,63.59-35.58-41.68,8.52-37.87,46.71-28.27,49.18,0,0-.24-2.14-.22-3.23C396.74,107.74,414,92.28,439,92.28c29.84,0,48.61,23.07,55.4,35.5a44.76,44.76,0,0,0-71.74,34.93c-.16,8.91,4.22,24.82,20.16,26.82-18.44-24.79-1.51-47.23,18.74-47.55,21.27-.34,37.28,17.92,37.28,39.2,0,34.09-35.12,57.72-71.78,57.72-15.4,0-31.28-4.74-41.41-13.31a24.9,24.9,0,0,0,17.83-23.7c.12-15-13.32-26.32-28.28-24.92-27.34,2.57-33.89,32.73-33.89,47.83,0,117.73,162,131.91,152.19,181.9,7.56-4.39,9.66-15,9.09-22.47-1.95-25.54-47.42-50.37-57.16-57C457.51,331.54,530.24,313,514.31,256.61Z"/><path class="cls-2" d="M57.93,46.63c21.49-1.83,28.5,32.18-1.24,56.49a10.5,10.5,0,0,1-6.44,2.67c4.56-3.43,14.06-21.34,11.83-33.94-8.64,1.2-13.93-3.33-15.49-9.65C44.72,54.63,50.46,47.27,57.93,46.63Z"/><path class="cls-2" d="M260.38,61.94a40.57,40.57,0,0,0-5.89-20.17c-12.9,34-73.29,24.29-105.48,24.29-60.74,0-103.48,49.79-102.45,109S95.14,281.35,152.75,280.34c27.74-.48,46.58-13.32,57.14-29.81h0c-18,66-127.44,69.46-155.36,6.08-11.38,10.34-7.15,30.3,3.8,35.44-5.77,25.62,36.39,41.68,59,33.51-16,8-69.18,49.62-43.52,81.14-9.93-50.78,152.43-64.23,152.43-179.43,0-10.5-3.32-47.6-34.27-50.31-14.89-1.31-28.22,9.94-28.14,24.88a24.92,24.92,0,0,0,17.84,23.75c-10.13,9-26,13.31-41.41,13.31-26.1,0-73.6-14.16-74.18-60.59-.25-19.82,14.47-37,34.25-38.39a36.87,36.87,0,0,1,30.39,12.36,18.31,18.31,0,1,0-10.33,33.19c16.58-.29,18.44-18.1,18.65-17.2a43,43,0,0,0-42.29-50.76,42.76,42.76,0,0,0-21,5.48c18.47-28.47,42.81-30.54,52.54-30.71,25-.43,42.28,15.46,42.56,31.58a19.82,19.82,0,0,1-.41,4.29c11.46-6.56,10-43.1-28-50,33.72-.83,59,13.7,63.53,35.3a25.73,25.73,0,0,1,.37,4.33,25.44,25.44,0,0,1-33.93,24c1.11,4,5.06,8.39,8.36,11,37.61,29.95,84-21.27,45.37-58.45C227.91,94.7,261.22,90.62,260.38,61.94Z"/></g></g></svg>