<?xml version="1.0" encoding="utf-8"?>
<!-- Generator: Adobe Illustrator 21.0.2, SVG Export Plug-In . SVG Version: 6.00 Build 0)  -->
<svg version="1.1" id="Layer_1" xmlns="http://www.w3.org/2000/svg" xmlns:xlink="http://www.w3.org/1999/xlink" x="0px" y="0px"
	 viewBox="0 0 302.7 83" enable-background="new 0 0 302.7 83" xml:space="preserve">
<g>
	<polygon points="94.8,64 94.4,65.5 94.4,65.5 93.9,64 90.4,53.3 88.3,53.3 93.2,67.3 95.4,67.3 100.4,53.3 98.4,53.3 	"/>
	<rect x="102.8" y="53.3" width="2" height="13.9"/>
	<path d="M113.4,53.3h-4.8v13.9h4.8c4,0,6-2,6-7C119.4,55.4,117.6,53.3,113.4,53.3z M113.4,65.5h-2.9V55.1h2.9c2.9,0,4,1.1,4,5.1
		C117.4,64.5,116.1,65.5,113.4,65.5z"/>
	<polygon points="124.2,60.8 129.9,60.8 129.9,59.2 124.2,59.2 124.2,55.1 130.9,55.1 130.8,53.3 122.3,53.3 122.3,67.3 131.2,67.3 
		131.2,65.5 124.2,65.5 	"/>
	<path d="M143.1,57.3c0-2.7-1.4-4-4.5-4h-4.7v13.9h1.9v-5.9h2.8l3.1,5.9h2.3l-3.6-6.2C142.1,60.7,143.1,59.4,143.1,57.3z
		 M138.5,59.9h-2.8V55h2.8c1.7,0,2.5,0.7,2.5,2.4C141.1,59.2,140.3,59.9,138.5,59.9z"/>
	<polygon points="148.1,60.8 153.8,60.8 153.8,59.2 148.1,59.2 148.1,55.1 154.8,55.1 154.7,53.3 146.2,53.3 146.2,67.3 155,67.3 
		155.1,65.5 148.1,65.5 	"/>
	<path d="M165.7,65.4c-0.7,0.3-1.5,0.4-2.4,0.4c-3,0-4.2-1.3-4.2-5.4c0-4.2,1.3-5.5,4.4-5.5c1.3,0,2.4,0.2,3.4,0.7l0.2-1.7
		c-1-0.4-2.4-0.7-3.7-0.7c-4.4,0-6.3,2.2-6.3,7.2c0,5,1.9,7.2,6.3,7.2c1.5,0,3-0.3,4.1-0.8v-6.8h-1.7V65.4z"/>
	<path d="M177,52.3c0-0.9-0.6-1.5-1.9-1.5c-1.3,0-1.8,0.6-1.8,1.5c0,0.6,0.2,1,0.6,1.3l-5,13.7h2l1.1-3.3h6.1l1.1,3.3h2.1l-5.1-13.7
		C176.8,53.3,177,52.9,177,52.3z M175.1,51.7c0.6,0,0.9,0.3,0.9,0.7c0,0.5-0.3,0.7-0.9,0.7c-0.7,0-0.9-0.3-0.9-0.7
		S174.5,51.7,175.1,51.7z M177.6,62.3h-5l2.1-6.1l0.5-1.4h0.1l0.4,1.4L177.6,62.3z"/>
	<polygon points="185.5,60.8 191.2,60.8 191.2,59.2 185.5,59.2 185.5,55.1 192.2,55.1 192.1,53.3 183.6,53.3 183.6,67.3 192.5,67.3 
		192.5,65.5 185.5,65.5 	"/>
	<polygon points="203.9,62.4 204,63.9 203.9,63.9 196.9,53.3 195.1,53.3 195.1,67.3 196.9,67.3 196.9,57.9 196.8,56.4 196.9,56.4 
		197.7,57.7 204.3,67.3 205.6,67.3 205.6,53.3 203.9,53.3 	"/>
	<path d="M214,53.3h-4.8v13.9h4.8c4,0,6-2,6-7C220,55.4,218.2,53.3,214,53.3z M214,65.5h-2.9V55.1h2.9c2.9,0,4,1.1,4,5.1
		C218,64.5,216.7,65.5,214,65.5z"/>
	<polygon points="224.8,60.8 230.6,60.8 230.6,59.2 224.8,59.2 224.8,55.1 231.6,55.1 231.5,53.3 222.9,53.3 222.9,67.3 231.8,67.3 
		231.9,65.5 224.8,65.5 	"/>
	<path d="M241.2,56.9c0-1.1,0.7-2.1,2.8-2.1c1.2,0,2.2,0.2,3.3,0.7l0.3-1.7c-1-0.5-2.3-0.7-3.7-0.7c-3.2,0-4.6,1.7-4.6,3.9
		c0,4.6,6.9,3.3,6.9,6.4c0,1.5-1,2.4-2.9,2.4c-1.4,0-2.6-0.4-3.8-1.1l-0.3,1.7c1.1,0.7,2.5,1.1,4.1,1.1c3.1,0,4.8-1.6,4.8-4.2
		C248.1,58.5,241.2,59.9,241.2,56.9z"/>
	<polygon points="261.1,53.3 258.9,53.3 254.6,59.2 252.5,59.2 252.5,53.3 250.6,53.3 250.6,67.3 252.5,67.3 252.5,60.8 254.6,60.8 
		259,67.3 261.4,67.3 256.3,59.9 	"/>
	<path d="M268.8,53.1c-4.1,0-5.8,2.1-5.8,7.2c0,5.1,1.7,7.2,5.8,7.2c4.2,0,5.8-2.1,5.8-7.2C274.6,55.2,273,53.1,268.8,53.1z
		 M268.8,65.7c-2.7,0-3.8-1.2-3.8-5.4c0-4.3,1-5.4,3.8-5.4c2.8,0,3.8,1.2,3.8,5.4C272.6,64.6,271.5,65.7,268.8,65.7z"/>
	<polygon points="279.4,53.3 277.5,53.3 277.5,67.3 285.8,67.3 285.9,65.5 279.4,65.5 	"/>
	<polygon points="290,65.5 290,60.8 295.8,60.8 295.8,59.2 290,59.2 290,55.1 296.8,55.1 296.7,53.3 288.1,53.3 288.1,67.3 
		297,67.3 297.1,65.5 	"/>
	<polygon points="102.6,30.9 102.6,32.5 92.3,17.3 88,17.3 88,41.4 92.5,41.4 92.5,27.2 92.5,25.6 93.4,27 103.5,41.4 107,41.4 
		107,17.3 102.6,17.3 	"/>
	<path d="M121.6,16.9c-7.3,0-10.4,3.7-10.4,12.4c0,8.6,3.2,12.5,10.4,12.5c7.3,0,10.3-3.6,10.3-12.5
		C131.9,20.7,128.8,16.9,121.6,16.9z M121.6,37.3c-3.6,0-5.2-1.2-5.2-7.9c0-6.7,1.7-7.8,5.2-7.8c3.6,0,5.2,1.1,5.2,7.8
		C126.8,36.1,125.1,37.3,121.6,37.3z"/>
	<polygon points="160.4,41.4 160.4,17.3 155.1,17.3 148.9,32.5 148.3,34.2 141.5,17.3 136.2,17.3 136.2,41.4 140.6,41.4 140.6,27.5 
		140.6,26.5 146.5,41.4 149.9,41.4 155.5,27.5 155.9,26.5 155.8,41.4 	"/>
	<polygon points="170.5,31 179.7,31 179.7,26.9 170.5,26.9 170.5,21.8 181.3,21.8 181.2,17.3 165.6,17.3 165.6,41.4 181.7,41.4 
		181.8,37 170.5,37 	"/>
</g>
<g>
	<g>
		<g>
			<g>
				<path d="M2.6,2.3c0,0,0.1,27.7,5.4,44.5C12.9,62.1,23.9,74.8,37,83c13.1-8.2,23.8-20.9,28.7-36.1c5.4-16.8,5.4-44.5,5.4-44.5
					H2.6z"/>
			</g>
		</g>
	</g>
	<g>
		<path fill="#FFD520" d="M37,81.6C23.7,73.1,13.6,60.4,9.1,46.5C4.4,32,3.8,8.8,3.7,3.5H70c-0.1,5.4-0.7,28.5-5.4,43
			C60,60.7,50.2,73.2,37,81.6z"/>
		<g>
			<path d="M14.9,42.4c0.1-0.1,0.6-0.6,1.1-1c2.8-2.3,7.8-6.9,13.7-6.3c5.4,0.6,7.5,4.6,7.5,4.6c-2.4,2.6-3.9,6.4-4.1,9.6
				c-0.1,3.1,0.9,22.4,0.9,22.4s0.1,5.1,0.3,8.1c0.9,0.7,1.9,1.3,2.8,1.9c0.8-0.5,1.5-1,2.3-1.5l0.5-21.4c0.2-3.6-0.4-8.3,2.5-11.3
				c0.2-0.2,1.1-0.9,1.1-0.9s0.9,0.8,1.2,0.9c0.1,0.1,0.3,0.1,0.4,0l6.8-5.8c0.1-0.1,0.2-0.3,0.1-0.4c-0.2-0.5-0.6-1.2-0.6-1.2
				s5.5-5.4,8.9-7.8c0.3-0.2,0.1-0.7-0.3-0.5c-1.7,0.7-3.5,0.5-4.5-0.5c-0.4-0.4-0.6-1.1-1.2-0.7c-4,2.7-7.3,3.7-7.3,3.7
				c-1.2-1-2-2.1-2.7-3.3c-3.3-6.7-1.6-15.4,3.1-20.9C48.7,8.1,50.2,7,52,6c0.2-0.1,0.2-0.5-0.2-0.5c-14.9,0.9-28.1,10.7-34,24.3
				c-1.7,3.9-3,8.4-3.2,12.2C14.5,42.5,14.6,42.8,14.9,42.4z"/>
			<g>
				<g>
					<path fill="#FFD520" d="M52.5,33.5c0.5-0.1,1.1-0.1,1.3,0.1c0.3,0.3-0.4,1.4-0.8,2c-0.9,1.6-1,1.7-1.9,3.1c0,0-0.1-0.7,0.1-1.4
						c0.2-0.8,0.6-1.4,0.9-1.9c0.4-0.5,0.7-0.9,0.7-1.2c-0.1-0.3-1.1,0.1-1.5,0.1c-0.5,0.1-1.6,0.5-2.6-0.1
						C48.6,34.4,51.3,33.7,52.5,33.5z"/>
					<path fill="#FFD520" d="M36.8,46.9c0.4-0.1,2.3-1.4,3.8-1.2c1.1,0.1,1.7,0.5,1.7,0.5c-1.1,0.1-2-0.1-3.8,0.8
						c-0.9,0.5-2,1.4-2.7,0.7c-0.4-0.4-0.4-1.3,0-3.2c0.5-2.1,1.3-3.4,1.3-3.4s0.1,0.8-0.7,4.7C36.4,46.6,36.4,47,36.8,46.9z"/>
				</g>
				<path fill="#FFD520" d="M34.7,70c0,0-0.2,1.4,1,2.8s2.8,3.1,2.8,3.1s0.3-1.2-0.9-2.6C36.4,71.9,34.7,70,34.7,70z"/>
				<path fill="#FFD520" d="M34.3,59.6c0,0-0.1,1.5,1.1,2.9s3.2,3.3,3.2,3.3s0.2-1.2-1.1-2.7C36.3,61.7,34.3,59.6,34.3,59.6z"/>
				<path fill="#FFD520" d="M34.1,49.3c0,0-0.2,1.4,1.1,3c1.3,1.5,3.8,4.5,3.8,4.5s0.2-1.5-1.1-3.1C36.5,52.1,34.1,49.3,34.1,49.3z"
					/>
			</g>
		</g>
	</g>
</g>
</svg>
