<?xml version="1.0" encoding="utf-8"?>
<!-- Generator: Adobe Illustrator 21.0.2, SVG Export Plug-In . SVG Version: 6.00 Build 0)  -->
<svg version="1.1" id="Layer_1" xmlns="http://www.w3.org/2000/svg" xmlns:xlink="http://www.w3.org/1999/xlink" x="0px" y="0px"
	 viewBox="0 0 303.5 82.2" enable-background="new 0 0 303.5 82.2" xml:space="preserve">
<g>
	<g>
		<g>
			<g>
				<path d="M1.7,1.6c0,0,0.1,27.7,5.4,44.5C12,61.3,23,74,36.1,82.2C49.2,74,59.9,61.3,64.8,46.1c5.4-16.8,5.4-44.5,5.4-44.5H1.7z"
					/>
			</g>
		</g>
	</g>
	<g>
		<path fill="#FFD520" d="M36.1,80.9C22.8,72.4,12.7,59.6,8.2,45.8C3.5,31.3,2.9,8.1,2.8,2.8h66.2c-0.1,5.4-0.7,28.5-5.4,43
			C59.1,60,49.3,72.5,36.1,80.9z"/>
		<g>
			<path d="M14,41.7c0.1-0.1,0.6-0.6,1.1-1c2.8-2.3,7.8-6.9,13.7-6.3c5.4,0.6,7.5,4.6,7.5,4.6c-2.4,2.6-3.9,6.4-4.1,9.6
				C32.1,51.7,33,71,33,71s0.1,5.1,0.3,8.1c0.9,0.7,1.9,1.3,2.8,1.9c0.8-0.5,1.5-1,2.3-1.5L38.9,58c0.2-3.6-0.4-8.3,2.5-11.3
				c0.2-0.2,1.1-0.9,1.1-0.9s0.9,0.8,1.2,0.9c0.1,0.1,0.3,0.1,0.4,0l6.8-5.8c0.1-0.1,0.2-0.3,0.1-0.4c-0.2-0.5-0.6-1.2-0.6-1.2
				s5.5-5.4,8.9-7.8c0.3-0.2,0.1-0.7-0.3-0.5c-1.7,0.7-3.5,0.5-4.5-0.5c-0.4-0.4-0.6-1.1-1.2-0.7c-4,2.7-7.3,3.7-7.3,3.7
				c-1.2-1-2-2.1-2.7-3.3c-3.3-6.7-1.6-15.4,3.1-20.9c1.5-1.7,2.9-2.8,4.7-3.9c0.2-0.1,0.2-0.5-0.2-0.5c-14.9,0.9-28.1,10.7-34,24.3
				c-1.7,3.9-3,8.4-3.2,12.2C13.6,41.7,13.7,42.1,14,41.7z"/>
			<g>
				<g>
					<path fill="#FFD520" d="M51.6,32.8c0.5-0.1,1.1-0.1,1.3,0.1c0.3,0.3-0.4,1.4-0.8,2c-0.9,1.6-1,1.7-1.9,3.1c0,0-0.1-0.7,0.1-1.4
						c0.2-0.8,0.6-1.4,0.9-1.9c0.4-0.5,0.7-0.9,0.7-1.2c-0.1-0.3-1.1,0.1-1.5,0.1c-0.5,0.1-1.6,0.5-2.6-0.1
						C47.7,33.7,50.4,33,51.6,32.8z"/>
					<path fill="#FFD520" d="M35.9,46.2c0.4-0.1,2.3-1.4,3.8-1.2c1.1,0.1,1.7,0.5,1.7,0.5c-1.1,0.1-2-0.1-3.8,0.8
						c-0.9,0.5-2,1.4-2.7,0.7c-0.4-0.4-0.4-1.3,0-3.2c0.5-2.1,1.3-3.4,1.3-3.4s0.1,0.8-0.7,4.7C35.5,45.9,35.5,46.3,35.9,46.2z"/>
				</g>
				<path fill="#FFD520" d="M33.8,69.3c0,0-0.2,1.4,1,2.8c1.1,1.4,2.8,3.1,2.8,3.1s0.3-1.2-0.9-2.6C35.5,71.2,33.8,69.3,33.8,69.3z"
					/>
				<path fill="#FFD520" d="M33.4,58.9c0,0-0.1,1.5,1.1,2.9c1.2,1.4,3.2,3.3,3.2,3.3s0.2-1.2-1.1-2.7S33.4,58.9,33.4,58.9z"/>
				<path fill="#FFD520" d="M33.2,48.6c0,0-0.2,1.4,1.1,3c1.3,1.5,3.8,4.5,3.8,4.5s0.2-1.5-1.1-3.1S33.2,48.6,33.2,48.6z"/>
			</g>
		</g>
	</g>
</g>
<g>
	<g>
		<polygon points="93.9,63.3 93.5,64.7 93.5,64.7 93,63.3 89.5,52.6 87.4,52.6 92.3,66.6 94.5,66.6 99.5,52.6 97.5,52.6 		"/>
		<rect x="101.9" y="52.6" width="2" height="13.9"/>
		<path d="M112.5,52.6h-4.8v13.9h4.8c4,0,6-2,6-7C118.5,54.6,116.7,52.6,112.5,52.6z M112.5,64.8h-2.9V54.4h2.9c2.9,0,4,1.1,4,5.1
			C116.5,63.7,115.2,64.8,112.5,64.8z"/>
		<polygon points="123.3,60.1 129,60.1 129,58.5 123.3,58.5 123.3,54.4 130,54.4 129.9,52.6 121.4,52.6 121.4,66.6 130.3,66.6 
			130.3,64.8 123.3,64.8 		"/>
		<path d="M142.2,56.6c0-2.7-1.4-4-4.5-4H133v13.9h1.9v-5.9h2.8l3.1,5.9h2.3l-3.6-6.2C141.2,60,142.2,58.7,142.2,56.6z M137.6,59.2
			h-2.8v-4.9h2.8c1.7,0,2.5,0.7,2.5,2.4C140.2,58.5,139.4,59.2,137.6,59.2z"/>
		<polygon points="147.2,60.1 152.9,60.1 152.9,58.5 147.2,58.5 147.2,54.4 153.9,54.4 153.8,52.6 145.3,52.6 145.3,66.6 
			154.1,66.6 154.2,64.8 147.2,64.8 		"/>
		<path d="M164.8,64.6c-0.7,0.3-1.5,0.4-2.4,0.4c-3,0-4.2-1.3-4.2-5.4c0-4.2,1.3-5.5,4.4-5.5c1.3,0,2.4,0.2,3.4,0.7l0.2-1.7
			c-1-0.4-2.4-0.7-3.7-0.7c-4.4,0-6.3,2.2-6.3,7.2c0,5,1.9,7.2,6.3,7.2c1.5,0,3-0.3,4.1-0.8v-6.8h-1.7V64.6z"/>
		<path d="M176.1,51.6c0-0.9-0.6-1.5-1.9-1.5c-1.3,0-1.8,0.6-1.8,1.5c0,0.6,0.2,1,0.6,1.3l-5,13.7h2l1.1-3.3h6.1l1.1,3.3h2.1
			l-5.1-13.7C175.9,52.6,176.1,52.2,176.1,51.6z M174.2,50.9c0.6,0,0.9,0.3,0.9,0.7c0,0.5-0.3,0.7-0.9,0.7c-0.7,0-0.9-0.3-0.9-0.7
			S173.6,50.9,174.2,50.9z M176.7,61.6h-5l2.1-6.1l0.5-1.4h0.1l0.4,1.4L176.7,61.6z"/>
		<polygon points="184.6,60.1 190.3,60.1 190.3,58.5 184.6,58.5 184.6,54.4 191.3,54.4 191.2,52.6 182.7,52.6 182.7,66.6 
			191.6,66.6 191.6,64.8 184.6,64.8 		"/>
		<polygon points="203,61.6 203.1,63.1 203,63.2 196,52.6 194.2,52.6 194.2,66.6 196,66.6 196,57.2 195.9,55.7 196,55.7 196.8,57 
			203.4,66.6 204.7,66.6 204.7,52.6 203,52.6 		"/>
		<path d="M213.1,52.6h-4.8v13.9h4.8c4,0,6-2,6-7C219.1,54.6,217.3,52.6,213.1,52.6z M213.1,64.8h-2.9V54.4h2.9c2.9,0,4,1.1,4,5.1
			C217.1,63.7,215.8,64.8,213.1,64.8z"/>
		<polygon points="223.9,60.1 229.7,60.1 229.7,58.5 223.9,58.5 223.9,54.4 230.7,54.4 230.6,52.6 222,52.6 222,66.6 230.9,66.6 
			231,64.8 223.9,64.8 		"/>
		<path d="M240.3,56.2c0-1.1,0.7-2.1,2.8-2.1c1.2,0,2.2,0.2,3.3,0.7l0.3-1.7c-1-0.5-2.3-0.7-3.7-0.7c-3.2,0-4.6,1.7-4.6,3.9
			c0,4.6,6.9,3.3,6.9,6.4c0,1.5-1,2.4-2.9,2.4c-1.4,0-2.6-0.4-3.8-1.1l-0.3,1.7c1.1,0.7,2.5,1.1,4.1,1.1c3.1,0,4.8-1.6,4.8-4.2
			C247.2,57.8,240.3,59.2,240.3,56.2z"/>
		<polygon points="260.2,52.6 258,52.6 253.7,58.5 251.6,58.5 251.6,52.6 249.7,52.6 249.7,66.6 251.6,66.6 251.6,60.1 253.7,60.1 
			258.1,66.6 260.5,66.6 255.4,59.2 		"/>
		<path d="M267.9,52.4c-4.1,0-5.8,2.1-5.8,7.2c0,5.1,1.7,7.2,5.8,7.2c4.2,0,5.8-2.1,5.8-7.2C273.7,54.5,272.1,52.4,267.9,52.4z
			 M267.9,65c-2.7,0-3.8-1.2-3.8-5.4c0-4.3,1-5.4,3.8-5.4c2.8,0,3.8,1.2,3.8,5.4C271.7,63.8,270.6,65,267.9,65z"/>
		<polygon points="278.5,52.6 276.6,52.6 276.6,66.6 284.9,66.6 285,64.8 278.5,64.8 		"/>
		<polygon points="289.1,64.8 289.1,60.1 294.9,60.1 294.9,58.5 289.1,58.5 289.1,54.4 295.9,54.4 295.8,52.6 287.2,52.6 
			287.2,66.6 296.1,66.6 296.2,64.8 		"/>
	</g>
	<polygon points="91.6,26.5 91.6,24.9 92.5,26.3 102.6,40.7 106.1,40.7 106.1,16.6 101.7,16.6 101.7,30.2 101.7,31.8 91.4,16.6 
		87.1,16.6 87.1,40.7 91.6,40.7 	"/>
	<path d="M120.9,41.1c7.3,0,10.3-3.6,10.3-12.5c0-8.7-3.1-12.4-10.3-12.4c-7.3,0-10.4,3.7-10.4,12.4
		C110.5,37.3,113.7,41.1,120.9,41.1z M120.9,36.6c-3.6,0-5.2-1.2-5.2-7.9c0-6.7,1.7-7.8,5.2-7.8c3.6,0,5.2,1.1,5.2,7.8
		C126.1,35.4,124.5,36.6,120.9,36.6z"/>
	<polygon points="145.2,40.7 145.2,21.2 151.8,21.2 151.7,16.6 133.7,16.6 133.6,21.2 140.2,21.2 140.2,40.7 	"/>
	<path d="M174.8,28.7c0-8.7-3.1-12.4-10.3-12.4c-7.3,0-10.4,3.7-10.4,12.4c0,8.6,3.2,12.5,10.4,12.5
		C171.8,41.1,174.8,37.5,174.8,28.7z M164.4,36.6c-3.6,0-5.2-1.2-5.2-7.9c0-6.7,1.7-7.8,5.2-7.8c3.6,0,5.2,1.1,5.2,7.8
		C169.7,35.4,168,36.6,164.4,36.6z"/>
	<path d="M198.6,28.6c0-8.4-3.2-12-10.6-12h-8.8v24.1h8.8C195.4,40.7,198.6,37,198.6,28.6z M184.2,21.2h3.8c3.8,0,5.6,1.1,5.6,7.3
		c0,6.5-1.8,7.6-5.6,7.6h-3.8V21.2z"/>
	<path d="M211.9,16.6h-8.8v24.1h8.8c7.3,0,10.6-3.7,10.6-12.1C222.5,20.2,219.3,16.6,211.9,16.6z M208,21.2h3.8
		c3.8,0,5.6,1.1,5.6,7.3c0,6.5-1.8,7.6-5.6,7.6H208V21.2z"/>
	<polygon points="231.9,30.3 241.1,30.3 241.1,26.2 231.9,26.2 231.9,21.1 242.7,21.1 242.6,16.6 227,16.6 227,40.7 243.1,40.7 
		243.2,36.2 231.9,36.2 	"/>
	<polygon points="261.8,16.6 261.8,30.2 261.9,31.8 251.6,16.7 251.5,16.6 247.3,16.6 247.3,40.7 251.8,40.7 251.8,26.5 251.7,24.9 
		252.7,26.3 262.8,40.7 266.3,40.7 266.3,16.6 	"/>
</g>
</svg>
