<?xml version="1.0" encoding="utf-8"?>
<!-- Generator: Adobe Illustrator 21.0.2, SVG Export Plug-In . SVG Version: 6.00 Build 0)  -->
<svg version="1.1" id="Layer_1" xmlns="http://www.w3.org/2000/svg" xmlns:xlink="http://www.w3.org/1999/xlink" x="0px" y="0px"
	 viewBox="0 0 303.3 84.7" enable-background="new 0 0 303.3 84.7" xml:space="preserve">
<g>
	<polygon points="93.6,64.3 93.2,65.7 93.2,65.7 92.7,64.3 89.2,53.6 87.1,53.6 92,67.6 94.2,67.6 99.2,53.6 97.2,53.6 	"/>
	<rect x="101.6" y="53.6" width="2" height="13.9"/>
	<path d="M112.1,53.6h-4.8v13.9h4.8c4,0,6-2,6-7C118.1,55.6,116.4,53.6,112.1,53.6z M112.1,65.8h-2.9V55.4h2.9c2.9,0,4,1.1,4,5.1
		C116.2,64.8,114.9,65.8,112.1,65.8z"/>
	<polygon points="123,61.1 128.7,61.1 128.7,59.5 123,59.5 123,55.4 129.7,55.4 129.6,53.6 121.1,53.6 121.1,67.6 130,67.6 
		130,65.8 123,65.8 	"/>
	<path d="M141.8,57.6c0-2.7-1.4-4-4.5-4h-4.7v13.9h1.9v-5.9h2.8l3.1,5.9h2.3l-3.6-6.2C140.9,61,141.8,59.7,141.8,57.6z M137.3,60.2
		h-2.8v-4.9h2.8c1.7,0,2.5,0.7,2.5,2.4C139.9,59.5,139.1,60.2,137.3,60.2z"/>
	<polygon points="146.8,61.1 152.6,61.1 152.6,59.5 146.8,59.5 146.8,55.4 153.6,55.4 153.5,53.6 144.9,53.6 144.9,67.6 153.8,67.6 
		153.9,65.8 146.8,65.8 	"/>
	<path d="M164.5,65.6c-0.7,0.3-1.5,0.4-2.4,0.4c-3,0-4.2-1.3-4.2-5.4c0-4.2,1.3-5.5,4.4-5.5c1.3,0,2.4,0.2,3.4,0.7l0.2-1.7
		c-1-0.4-2.4-0.7-3.7-0.7c-4.4,0-6.3,2.2-6.3,7.2c0,5,1.9,7.2,6.3,7.2c1.5,0,3-0.3,4.1-0.8v-6.8h-1.7V65.6z"/>
	<path d="M175.8,52.6c0-0.9-0.6-1.5-1.9-1.5c-1.3,0-1.8,0.6-1.8,1.5c0,0.6,0.2,1,0.6,1.3l-5,13.7h2l1.1-3.3h6.1l1.1,3.3h2.1
		l-5.1-13.7C175.6,53.6,175.8,53.2,175.8,52.6z M173.9,52c0.6,0,0.9,0.3,0.9,0.7c0,0.5-0.3,0.7-0.9,0.7c-0.7,0-0.9-0.3-0.9-0.7
		S173.3,52,173.9,52z M176.4,62.6h-5l2.1-6.1l0.5-1.4h0.1l0.4,1.4L176.4,62.6z"/>
	<polygon points="184.3,61.1 190,61.1 190,59.5 184.3,59.5 184.3,55.4 191,55.4 190.9,53.6 182.4,53.6 182.4,67.6 191.2,67.6 
		191.3,65.8 184.3,65.8 	"/>
	<polygon points="202.7,62.7 202.8,64.1 202.7,64.2 195.7,53.6 193.9,53.6 193.9,67.6 195.6,67.6 195.6,58.2 195.6,56.7 195.7,56.7 
		196.5,58 203.1,67.6 204.4,67.6 204.4,53.6 202.7,53.6 	"/>
	<path d="M212.8,53.6H208v13.9h4.8c4,0,6-2,6-7C218.8,55.6,217,53.6,212.8,53.6z M212.8,65.8h-2.9V55.4h2.9c2.9,0,4,1.1,4,5.1
		C216.8,64.8,215.5,65.8,212.8,65.8z"/>
	<polygon points="223.6,61.1 229.4,61.1 229.4,59.5 223.6,59.5 223.6,55.4 230.3,55.4 230.3,53.6 221.7,53.6 221.7,67.6 230.6,67.6 
		230.7,65.8 223.6,65.8 	"/>
	<path d="M240,57.2c0-1.1,0.7-2.1,2.8-2.1c1.2,0,2.2,0.2,3.3,0.7l0.3-1.7c-1-0.5-2.3-0.7-3.7-0.7c-3.2,0-4.6,1.7-4.6,3.9
		c0,4.6,6.9,3.3,6.9,6.4c0,1.5-1,2.4-2.9,2.4c-1.4,0-2.6-0.4-3.8-1.1l-0.3,1.7c1.1,0.7,2.5,1.1,4.1,1.1c3.1,0,4.8-1.6,4.8-4.2
		C246.9,58.8,240,60.2,240,57.2z"/>
	<polygon points="259.9,53.6 257.7,53.6 253.4,59.5 251.3,59.5 251.3,53.6 249.4,53.6 249.4,67.6 251.3,67.6 251.3,61.1 253.4,61.1 
		257.8,67.6 260.2,67.6 255.1,60.2 	"/>
	<path d="M267.6,53.4c-4.1,0-5.8,2.1-5.8,7.2c0,5.1,1.7,7.2,5.8,7.2c4.2,0,5.8-2.1,5.8-7.2C273.4,55.5,271.8,53.4,267.6,53.4z
		 M267.6,66c-2.7,0-3.8-1.2-3.8-5.4c0-4.3,1-5.4,3.8-5.4c2.8,0,3.8,1.2,3.8,5.4C271.4,64.8,270.3,66,267.6,66z"/>
	<polygon points="278.2,53.6 276.3,53.6 276.3,67.6 284.6,67.6 284.7,65.8 278.2,65.8 	"/>
	<polygon points="288.8,65.8 288.8,61.1 294.6,61.1 294.6,59.5 288.8,59.5 288.8,55.4 295.5,55.4 295.5,53.6 286.9,53.6 286.9,67.6 
		295.8,67.6 295.9,65.8 	"/>
</g>
<g>
	<g>
		<g>
			<g>
				<path d="M1.4,2.6c0,0,0.1,27.7,5.4,44.5c4.9,15.2,15.8,27.9,29,36.1C48.9,75,59.6,62.3,64.5,47.1c5.4-16.8,5.4-44.5,5.4-44.5
					H1.4z"/>
			</g>
		</g>
	</g>
	<g>
		<path fill="#FFD520" d="M35.8,81.9C22.5,73.4,12.3,60.7,7.9,46.8C3.2,32.3,2.6,9.1,2.5,3.8h66.2c-0.1,5.4-0.7,28.5-5.4,43
			C58.8,61,49,73.5,35.8,81.9z"/>
		<g>
			<path d="M13.7,42.7c0.1-0.1,0.6-0.6,1.1-1c2.8-2.3,7.8-6.9,13.7-6.3c5.4,0.6,7.5,4.6,7.5,4.6c-2.4,2.6-3.9,6.4-4.1,9.6
				C31.7,52.7,32.7,72,32.7,72s0.1,5.1,0.3,8.1c0.9,0.7,1.9,1.3,2.8,1.9c0.8-0.5,1.5-1,2.3-1.5L38.6,59c0.2-3.6-0.4-8.3,2.5-11.3
				c0.2-0.2,1.1-0.9,1.1-0.9s0.9,0.8,1.2,0.9c0.1,0.1,0.3,0.1,0.4,0l6.8-5.8c0.1-0.1,0.2-0.3,0.1-0.4c-0.2-0.5-0.6-1.2-0.6-1.2
				s5.5-5.4,8.9-7.8c0.3-0.2,0.1-0.7-0.3-0.5c-1.7,0.7-3.5,0.5-4.5-0.5c-0.4-0.4-0.6-1.1-1.2-0.7c-4,2.7-7.3,3.7-7.3,3.7
				c-1.2-1-2-2.1-2.7-3.3c-3.3-6.7-1.6-15.4,3.1-20.9c1.5-1.7,2.9-2.8,4.7-3.9C51,6.1,51,5.7,50.5,5.8c-14.9,0.9-28.1,10.7-34,24.3
				c-1.7,3.9-3,8.4-3.2,12.2C13.3,42.7,13.4,43.1,13.7,42.7z"/>
			<g>
				<g>
					<path fill="#FFD520" d="M51.3,33.8c0.5-0.1,1.1-0.1,1.3,0.1c0.3,0.3-0.4,1.4-0.8,2c-0.9,1.6-1,1.7-1.9,3.1c0,0-0.1-0.7,0.1-1.4
						c0.2-0.8,0.6-1.4,0.9-1.9c0.4-0.5,0.7-0.9,0.7-1.2c-0.1-0.3-1.1,0.1-1.5,0.1c-0.5,0.1-1.6,0.5-2.6-0.1
						C47.4,34.7,50.1,34,51.3,33.8z"/>
					<path fill="#FFD520" d="M35.6,47.2c0.4-0.1,2.3-1.4,3.8-1.2c1.1,0.1,1.7,0.5,1.7,0.5c-1.1,0.1-2-0.1-3.8,0.8
						c-0.9,0.5-2,1.4-2.7,0.7c-0.4-0.4-0.4-1.3,0-3.2c0.5-2.1,1.3-3.4,1.3-3.4s0.1,0.8-0.7,4.7C35.2,46.9,35.2,47.3,35.6,47.2z"/>
				</g>
				<path fill="#FFD520" d="M33.5,70.3c0,0-0.2,1.4,1,2.8c1.1,1.4,2.8,3.1,2.8,3.1s0.3-1.2-0.9-2.6C35.2,72.2,33.5,70.3,33.5,70.3z"
					/>
				<path fill="#FFD520" d="M33,59.9c0,0-0.1,1.5,1.1,2.9s3.2,3.3,3.2,3.3s0.2-1.2-1.1-2.7C35.1,62,33,59.9,33,59.9z"/>
				<path fill="#FFD520" d="M32.8,49.6c0,0-0.2,1.4,1.1,3c1.3,1.5,3.8,4.5,3.8,4.5s0.2-1.5-1.1-3.1C35.3,52.4,32.8,49.6,32.8,49.6z"
					/>
			</g>
		</g>
	</g>
</g>
<path d="M91.8,33.5h3.5c6.1,0,9-2.6,9-7.8c0-5.6-2.8-8.1-9-8.1h-8.4v24.1h4.9V33.5z M91.8,21.9h3.5c3,0,4,0.9,4,3.7
	c0,2.8-1,3.7-4,3.7h-3.5V21.9z"/>
<path d="M117.7,17.2c-7.3,0-10.4,3.7-10.4,12.4c0,8.6,3.2,12.5,10.4,12.5c7.3,0,10.3-3.6,10.3-12.5C128,21,124.9,17.2,117.7,17.2z
	 M117.7,37.6c-3.6,0-5.2-1.2-5.2-7.9c0-6.7,1.7-7.8,5.2-7.8c3.6,0,5.2,1.1,5.2,7.8C122.9,36.4,121.2,37.6,117.7,37.6z"/>
<path d="M145.6,41.7h5.8l-5.9-10.2c2.6-0.8,4.1-3.1,4.1-6.5c0-4.9-2.8-7.3-8.5-7.3h-8.6v24.1h4.9v-9.2h3.5L145.6,41.7z M144.5,25.1
	c0,2.5-0.9,3.4-3.5,3.4h-3.6v-6.6h3.7C143.6,21.9,144.5,22.7,144.5,25.1z"/>
<path d="M162.2,27.2c-2.2-0.8-4.1-1.4-4.1-3c0-1.7,1.3-2.5,3.9-2.5c1.8,0,3.6,0.3,5.5,1l0.3,0.1l0.7-4.3l-0.2-0.1
	c-1.8-0.8-4.2-1.3-6.5-1.3c-5.3,0-8.4,2.7-8.4,7.2c0,4.7,3.9,6.1,7,7.2c2.3,0.8,4.2,1.5,4.2,3.2c0,1.9-1.3,2.9-4,2.9
	c-2.2,0-4.3-0.6-6.3-1.7l-0.4-0.2l-0.7,4.5l0.2,0.1c2.1,1.2,4.6,1.8,7.2,1.8c5.4,0,8.7-2.9,8.7-7.6
	C169.3,29.7,165.3,28.3,162.2,27.2z"/>
<path d="M190.6,28.5h-4.4v8.7c-0.9,0.2-1.9,0.4-2.9,0.4c-4.5,0-5.9-1.9-5.9-7.9c0-6,1.6-7.9,6.4-7.9c2,0,4,0.4,5.6,1l0.4,0.1
	l0.5-4.5l-0.2-0.1c-1.8-0.7-4.3-1.1-6.5-1.1c-7.8,0-11.3,3.9-11.3,12.5c0,8.6,3.5,12.4,11.2,12.4c2.5,0,5.2-0.5,7-1.3l0.2-0.1V28.5z
	"/>
<path d="M200.2,32.5h3.5l4.6,9.2h5.8l-5.9-10.2c2.6-0.8,4.1-3.1,4.1-6.5c0-4.9-2.8-7.3-8.5-7.3h-8.6v24.1h4.9V32.5z M207.2,25.1
	c0,2.5-0.9,3.4-3.5,3.4h-3.6v-6.6h3.7C206.4,21.9,207.2,22.7,207.2,25.1z"/>
<path d="M230.9,32.9c0,3.2-1.4,4.6-4.6,4.6c-3.3,0-4.7-1.4-4.7-4.6V17.6h-4.9V33c0,6.1,3.2,9.2,9.5,9.2c6.3,0,9.5-3.1,9.5-9.2V17.6
	h-4.9V32.9z"/>
<polygon points="255.4,31.2 255.5,32.8 245.2,17.7 245.1,17.6 240.9,17.6 240.9,41.7 245.3,41.7 245.3,27.5 245.3,25.9 246.2,27.3 
	256.3,41.7 259.8,41.7 259.8,17.6 255.4,17.6 "/>
<polygon points="279.8,17.6 279.8,31.2 279.9,32.8 269.6,17.7 269.5,17.6 265.3,17.6 265.3,41.7 269.7,41.7 269.7,27.5 269.7,25.9 
	270.6,27.3 280.8,41.7 284.3,41.7 284.3,17.6 "/>
</svg>
