<?xml version="1.0" encoding="utf-8"?>
<!-- Generator: Adobe Illustrator 21.0.2, SVG Export Plug-In . SVG Version: 6.00 Build 0)  -->
<svg version="1.1" id="Layer_1" xmlns="http://www.w3.org/2000/svg" xmlns:xlink="http://www.w3.org/1999/xlink" x="0px" y="0px"
	 viewBox="0 0 301 82.9" enable-background="new 0 0 301 82.9" xml:space="preserve">
<g>
	<polygon points="93.6,64 93.2,65.4 93.2,65.4 92.7,64 89.2,53.3 87.1,53.3 92,67.2 94.2,67.2 99.2,53.3 97.2,53.3 	"/>
	<rect x="101.6" y="53.3" width="2" height="13.9"/>
	<path d="M112.1,53.3h-4.8v13.9h4.8c4,0,6-2,6-7C118.1,55.3,116.4,53.3,112.1,53.3z M112.1,65.5h-2.9V55.1h2.9c2.9,0,4,1.1,4,5.1
		C116.2,64.4,114.9,65.5,112.1,65.5z"/>
	<polygon points="123,60.8 128.7,60.8 128.7,59.2 123,59.2 123,55 129.7,55 129.6,53.3 121.1,53.3 121.1,67.2 130,67.2 130,65.5 
		123,65.5 	"/>
	<path d="M141.8,57.3c0-2.7-1.4-4-4.5-4h-4.7v13.9h1.9v-5.9h2.8l3.1,5.9h2.3l-3.6-6.2C140.9,60.7,141.8,59.4,141.8,57.3z
		 M137.3,59.9h-2.8v-4.9h2.8c1.7,0,2.5,0.7,2.5,2.4C139.9,59.2,139.1,59.9,137.3,59.9z"/>
	<polygon points="146.8,60.8 152.6,60.8 152.6,59.2 146.8,59.2 146.8,55 153.6,55 153.5,53.3 144.9,53.3 144.9,67.2 153.8,67.2 
		153.9,65.5 146.8,65.5 	"/>
	<path d="M164.5,65.3c-0.7,0.3-1.5,0.4-2.4,0.4c-3,0-4.2-1.3-4.2-5.4c0-4.2,1.3-5.5,4.4-5.5c1.3,0,2.4,0.2,3.4,0.7l0.2-1.7
		c-1-0.4-2.4-0.7-3.7-0.7c-4.4,0-6.3,2.2-6.3,7.2c0,5,1.9,7.2,6.3,7.2c1.5,0,3-0.3,4.1-0.8v-6.8h-1.7V65.3z"/>
	<path d="M175.8,52.3c0-0.9-0.6-1.5-1.9-1.5c-1.3,0-1.8,0.6-1.8,1.5c0,0.6,0.2,1,0.6,1.3l-5,13.7h2l1.1-3.3h6.1l1.1,3.3h2.1
		l-5.1-13.7C175.6,53.3,175.8,52.8,175.8,52.3z M173.9,51.6c0.6,0,0.9,0.3,0.9,0.7c0,0.5-0.3,0.7-0.9,0.7c-0.7,0-0.9-0.3-0.9-0.7
		S173.3,51.6,173.9,51.6z M176.4,62.2h-5l2.1-6.1l0.5-1.4h0.1l0.4,1.4L176.4,62.2z"/>
	<polygon points="184.3,60.8 190,60.8 190,59.2 184.3,59.2 184.3,55 191,55 190.9,53.3 182.4,53.3 182.4,67.2 191.2,67.2 
		191.3,65.5 184.3,65.5 	"/>
	<polygon points="202.7,62.3 202.8,63.8 202.7,63.8 195.7,53.3 193.9,53.3 193.9,67.2 195.6,67.2 195.6,57.9 195.6,56.4 195.7,56.4 
		196.5,57.6 203.1,67.2 204.4,67.2 204.4,53.3 202.7,53.3 	"/>
	<path d="M212.8,53.3H208v13.9h4.8c4,0,6-2,6-7C218.8,55.3,217,53.3,212.8,53.3z M212.8,65.5h-2.9V55.1h2.9c2.9,0,4,1.1,4,5.1
		C216.8,64.4,215.5,65.5,212.8,65.5z"/>
	<polygon points="223.6,60.8 229.4,60.8 229.4,59.2 223.6,59.2 223.6,55 230.3,55 230.3,53.3 221.7,53.3 221.7,67.2 230.6,67.2 
		230.7,65.5 223.6,65.5 	"/>
	<path d="M240,56.9c0-1.1,0.7-2.1,2.8-2.1c1.2,0,2.2,0.2,3.3,0.7l0.3-1.7c-1-0.5-2.3-0.7-3.7-0.7c-3.2,0-4.6,1.7-4.6,3.9
		c0,4.6,6.9,3.3,6.9,6.4c0,1.5-1,2.4-2.9,2.4c-1.4,0-2.6-0.4-3.8-1.1l-0.3,1.7c1.1,0.7,2.5,1.1,4.1,1.1c3.1,0,4.8-1.6,4.8-4.2
		C246.9,58.5,240,59.9,240,56.9z"/>
	<polygon points="259.9,53.3 257.7,53.3 253.4,59.2 251.3,59.2 251.3,53.3 249.4,53.3 249.4,67.2 251.3,67.2 251.3,60.8 253.4,60.8 
		257.8,67.2 260.2,67.2 255.1,59.9 	"/>
	<path d="M267.6,53.1c-4.1,0-5.8,2.1-5.8,7.2c0,5.1,1.7,7.2,5.8,7.2c4.2,0,5.8-2.1,5.8-7.2C273.4,55.2,271.8,53.1,267.6,53.1z
		 M267.6,65.7c-2.7,0-3.8-1.2-3.8-5.4c0-4.3,1-5.4,3.8-5.4c2.8,0,3.8,1.2,3.8,5.4C271.4,64.5,270.3,65.7,267.6,65.7z"/>
	<polygon points="278.2,53.3 276.3,53.3 276.3,67.2 284.6,67.2 284.7,65.4 278.2,65.4 	"/>
	<polygon points="288.8,65.5 288.8,60.8 294.6,60.8 294.6,59.2 288.8,59.2 288.8,55 295.5,55 295.5,53.3 286.9,53.3 286.9,67.2 
		295.8,67.2 295.9,65.5 	"/>
</g>
<g>
	<g>
		<g>
			<g>
				<path d="M1.4,2.3c0,0,0.1,27.7,5.4,44.5c4.9,15.2,15.8,27.9,29,36.1C48.9,74.7,59.6,62,64.5,46.8C69.8,30,69.9,2.3,69.9,2.3H1.4
					z"/>
			</g>
		</g>
	</g>
	<g>
		<path fill="#FFD520" d="M35.8,81.6C22.5,73.1,12.3,60.3,7.9,46.5C3.2,32,2.6,8.8,2.5,3.4h66.2c-0.1,5.4-0.7,28.5-5.4,43
			C58.8,60.7,49,73.1,35.8,81.6z"/>
		<g>
			<path d="M13.7,42.4c0.1-0.1,0.6-0.6,1.1-1c2.8-2.3,7.8-6.9,13.7-6.3c5.4,0.6,7.5,4.6,7.5,4.6c-2.4,2.6-3.9,6.4-4.1,9.6
				c-0.1,3.1,0.9,22.4,0.9,22.4s0.1,5.1,0.3,8.1c0.9,0.7,1.9,1.3,2.8,1.9c0.8-0.5,1.5-1,2.3-1.5l0.5-21.4c0.2-3.6-0.4-8.3,2.5-11.3
				c0.2-0.2,1.1-0.9,1.1-0.9s0.9,0.8,1.2,0.9c0.1,0.1,0.3,0.1,0.4,0l6.8-5.8c0.1-0.1,0.2-0.3,0.1-0.4c-0.2-0.5-0.6-1.2-0.6-1.2
				s5.5-5.4,8.9-7.8c0.3-0.2,0.1-0.7-0.3-0.5c-1.7,0.7-3.5,0.5-4.5-0.5c-0.4-0.4-0.6-1.1-1.2-0.7c-4,2.7-7.3,3.7-7.3,3.7
				c-1.2-1-2-2.1-2.7-3.3c-3.3-6.7-1.6-15.4,3.1-20.9c1.5-1.7,2.9-2.8,4.7-3.9C51,5.8,51,5.4,50.5,5.4c-14.9,0.9-28.1,10.7-34,24.3
				c-1.7,3.9-3,8.4-3.2,12.2C13.3,42.4,13.4,42.7,13.7,42.4z"/>
			<g>
				<g>
					<path fill="#FFD520" d="M51.3,33.4c0.5-0.1,1.1-0.1,1.3,0.1c0.3,0.3-0.4,1.4-0.8,2c-0.9,1.6-1,1.7-1.9,3.1c0,0-0.1-0.7,0.1-1.4
						c0.2-0.8,0.6-1.4,0.9-1.9c0.4-0.5,0.7-0.9,0.7-1.2c-0.1-0.3-1.1,0.1-1.5,0.1c-0.5,0.1-1.6,0.5-2.6-0.1
						C47.4,34.4,50.1,33.7,51.3,33.4z"/>
					<path fill="#FFD520" d="M35.6,46.8c0.4-0.1,2.3-1.4,3.8-1.2c1.1,0.1,1.7,0.5,1.7,0.5c-1.1,0.1-2-0.1-3.8,0.8
						c-0.9,0.5-2,1.4-2.7,0.7c-0.4-0.4-0.4-1.3,0-3.2c0.5-2.1,1.3-3.4,1.3-3.4s0.1,0.8-0.7,4.7C35.2,46.5,35.2,47,35.6,46.8z"/>
				</g>
				<path fill="#FFD520" d="M33.5,70c0,0-0.2,1.4,1,2.8c1.1,1.4,2.8,3.1,2.8,3.1s0.3-1.2-0.9-2.6C35.2,71.8,33.5,70,33.5,70z"/>
				<path fill="#FFD520" d="M33,59.6c0,0-0.1,1.5,1.1,2.9c1.2,1.4,3.2,3.3,3.2,3.3s0.2-1.2-1.1-2.7S33,59.6,33,59.6z"/>
				<path fill="#FFD520" d="M32.8,49.3c0,0-0.2,1.4,1.1,3c1.3,1.5,3.8,4.5,3.8,4.5s0.2-1.5-1.1-3.1S32.8,49.3,32.8,49.3z"/>
			</g>
		</g>
	</g>
</g>
<path d="M99.8,31.2c2.6-0.8,4.1-3.1,4.1-6.5c0-4.9-2.8-7.3-8.5-7.3h-8.6v24.1h4.9v-9.2h3.5l4.6,9.2h5.8L99.8,31.2z M95.3,28.2h-3.6
	v-6.6h3.7c2.5,0,3.4,0.8,3.4,3.2C98.8,27.3,97.9,28.2,95.3,28.2z"/>
<path d="M121.4,32.8V17.3h-5v15.4c0,3.2-1.5,4.6-4.8,4.6c-1.5,0-2.7-0.3-3.6-0.9l-0.4-0.3l-0.3,4.5l0.2,0.1c1.3,0.8,3,1.2,4.8,1.2
	C118.3,41.8,121.4,38.8,121.4,32.8z"/>
<path d="M136,41.8c6.3,0,9.5-3.1,9.5-9.2V17.3h-4.9v15.3c0,3.2-1.4,4.6-4.6,4.6c-3.3,0-4.6-1.4-4.6-4.6V17.3h-4.9v15.4
	C126.4,38.7,129.6,41.8,136,41.8z"/>
<polygon points="162.4,28.7 170.1,17.3 164.4,17.3 158,26.9 155.5,26.9 155.5,17.3 150.6,17.3 150.6,41.4 155.5,41.4 155.5,31.1 
	157.9,31.1 164.5,41.4 170.5,41.4 "/>
<path d="M185.5,17.3h-5.6l-8.6,24.1h5.3l1.6-5h9l1.5,5h5.5L185.5,17.3z M182.7,21.7l0.4,1.6l2.7,8.8h-6.3l2.7-8.8L182.7,21.7z"/>
<polygon points="211.7,17.3 211.7,30.9 211.8,32.5 201.5,17.4 201.4,17.3 197.2,17.3 197.2,41.4 201.7,41.4 201.7,27.2 201.6,25.5 
	202.6,26.9 212.7,41.4 216.2,41.4 216.2,17.3 "/>
</svg>
