<?xml version="1.0" encoding="utf-8"?>
<!-- Generator: Adobe Illustrator 21.0.2, SVG Export Plug-In . SVG Version: 6.00 Build 0)  -->
<svg version="1.1" id="Layer_1" xmlns="http://www.w3.org/2000/svg" xmlns:xlink="http://www.w3.org/1999/xlink" x="0px" y="0px"
	 viewBox="0 0 299.7 85.8" enable-background="new 0 0 299.7 85.8" xml:space="preserve">
<g>
	<g>
		<g>
			<g>
				<path d="M2.4,3.5c0,0,0.1,27.7,5.4,44.5c4.9,15.2,15.8,27.9,29,36.1C49.9,75.9,60.6,63.2,65.5,48c5.4-16.8,5.4-44.5,5.4-44.5
					H2.4z"/>
			</g>
		</g>
	</g>
	<g>
		<path fill="#FFD520" d="M36.8,82.7C23.5,74.2,13.3,61.5,8.9,47.6C4.2,33.1,3.6,10,3.5,4.6h66.2c-0.1,5.4-0.7,28.5-5.4,43
			C59.8,61.9,50,74.3,36.8,82.7z"/>
		<g>
			<path d="M14.7,43.5c0.1-0.1,0.6-0.6,1.1-1c2.8-2.3,7.8-6.9,13.7-6.3c5.4,0.6,7.5,4.6,7.5,4.6c-2.4,2.6-3.9,6.4-4.1,9.6
				c-0.1,3.1,0.9,22.4,0.9,22.4s0.1,5.1,0.3,8.1c0.9,0.7,1.9,1.3,2.8,1.9c0.8-0.5,1.5-1,2.3-1.5l0.5-21.4c0.2-3.6-0.4-8.3,2.5-11.3
				c0.2-0.2,1.1-0.9,1.1-0.9s0.9,0.8,1.2,0.9c0.1,0.1,0.3,0.1,0.4,0l6.8-5.8c0.1-0.1,0.2-0.3,0.1-0.4c-0.2-0.5-0.6-1.2-0.6-1.2
				s5.5-5.4,8.9-7.8c0.3-0.2,0.1-0.7-0.3-0.5c-1.7,0.7-3.5,0.5-4.5-0.5c-0.4-0.4-0.6-1.1-1.2-0.7c-4,2.7-7.3,3.7-7.3,3.7
				c-1.2-1-2-2.1-2.7-3.3c-3.3-6.7-1.6-15.4,3.1-20.9c1.5-1.7,2.9-2.8,4.7-3.9C52,7,52,6.6,51.5,6.6c-14.9,0.9-28.1,10.7-34,24.3
				c-1.7,3.9-3,8.4-3.2,12.2C14.3,43.6,14.4,43.9,14.7,43.5z"/>
			<g>
				<g>
					<path fill="#FFD520" d="M52.3,34.6c0.5-0.1,1.1-0.1,1.3,0.1c0.3,0.3-0.4,1.4-0.8,2c-0.9,1.6-1,1.7-1.9,3.1c0,0-0.1-0.7,0.1-1.4
						c0.2-0.8,0.6-1.4,0.9-1.9c0.4-0.5,0.7-0.9,0.7-1.2c-0.1-0.3-1.1,0.1-1.5,0.1c-0.5,0.1-1.6,0.5-2.6-0.1
						C48.4,35.5,51.1,34.8,52.3,34.6z"/>
					<path fill="#FFD520" d="M36.6,48c0.4-0.1,2.3-1.4,3.8-1.2c1.1,0.1,1.7,0.5,1.7,0.5c-1.1,0.1-2-0.1-3.8,0.8
						c-0.9,0.5-2,1.4-2.7,0.7c-0.4-0.4-0.4-1.3,0-3.2c0.5-2.1,1.3-3.4,1.3-3.4s0.1,0.8-0.7,4.7C36.2,47.7,36.2,48.2,36.6,48z"/>
				</g>
				<path fill="#FFD520" d="M34.5,71.1c0,0-0.2,1.4,1,2.8c1.1,1.4,2.8,3.1,2.8,3.1s0.3-1.2-0.9-2.6C36.2,73,34.5,71.1,34.5,71.1z"/>
				<path fill="#FFD520" d="M34,60.8c0,0-0.1,1.5,1.1,2.9s3.2,3.3,3.2,3.3s0.2-1.2-1.1-2.7C36.1,62.8,34,60.8,34,60.8z"/>
				<path fill="#FFD520" d="M33.8,50.4c0,0-0.2,1.4,1.1,3c1.3,1.5,3.8,4.5,3.8,4.5s0.2-1.5-1.1-3.1C36.3,53.2,33.8,50.4,33.8,50.4z"
					/>
			</g>
		</g>
	</g>
</g>
<g>
	<g>
		<polygon points="94.6,65.1 94.2,66.6 94.2,66.6 93.7,65.1 90.2,54.5 88.1,54.5 93,68.4 95.2,68.4 100.2,54.5 98.2,54.5 		"/>
		<rect x="102.6" y="54.5" width="2" height="13.9"/>
		<path d="M113.1,54.5h-4.8v13.9h4.8c4,0,6-2,6-7C119.1,56.5,117.4,54.5,113.1,54.5z M113.1,66.6h-2.9V56.2h2.9c2.9,0,4,1.1,4,5.1
			C117.2,65.6,115.9,66.6,113.1,66.6z"/>
		<polygon points="124,61.9 129.7,61.9 129.7,60.3 124,60.3 124,56.2 130.7,56.2 130.6,54.5 122.1,54.5 122.1,68.4 131,68.4 
			131,66.7 124,66.7 		"/>
		<path d="M142.8,58.4c0-2.7-1.4-4-4.5-4h-4.7v13.9h1.9v-5.9h2.8l3.1,5.9h2.3l-3.6-6.2C141.9,61.9,142.8,60.6,142.8,58.4z M138.3,61
			h-2.8v-4.9h2.8c1.7,0,2.5,0.7,2.5,2.4C140.9,60.3,140.1,61,138.3,61z"/>
		<polygon points="147.8,61.9 153.6,61.9 153.6,60.3 147.8,60.3 147.8,56.2 154.6,56.2 154.5,54.5 145.9,54.5 145.9,68.4 
			154.8,68.4 154.9,66.7 147.8,66.7 		"/>
		<path d="M165.5,66.5c-0.7,0.3-1.5,0.4-2.4,0.4c-3,0-4.2-1.3-4.2-5.4c0-4.2,1.3-5.5,4.4-5.5c1.3,0,2.4,0.2,3.4,0.7l0.2-1.7
			c-1-0.4-2.4-0.7-3.7-0.7c-4.4,0-6.3,2.2-6.3,7.2c0,5,1.9,7.2,6.3,7.2c1.5,0,3-0.3,4.1-0.8V61h-1.7V66.5z"/>
		<path d="M176.8,53.4c0-0.9-0.6-1.5-1.9-1.5c-1.3,0-1.8,0.6-1.8,1.5c0,0.6,0.2,1,0.6,1.3l-5,13.7h2l1.1-3.3h6.1l1.1,3.3h2.1
			l-5.1-13.7C176.6,54.4,176.8,54,176.8,53.4z M174.9,52.8c0.6,0,0.9,0.3,0.9,0.7c0,0.5-0.3,0.7-0.9,0.7c-0.7,0-0.9-0.3-0.9-0.7
			S174.3,52.8,174.9,52.8z M177.4,63.4h-5l2.1-6.1l0.5-1.4h0.1l0.4,1.4L177.4,63.4z"/>
		<polygon points="185.3,61.9 191,61.9 191,60.3 185.3,60.3 185.3,56.2 192,56.2 191.9,54.5 183.4,54.5 183.4,68.4 192.2,68.4 
			192.3,66.7 185.3,66.7 		"/>
		<polygon points="203.7,63.5 203.8,65 203.7,65 196.7,54.5 194.9,54.5 194.9,68.4 196.6,68.4 196.6,59.1 196.6,57.6 196.7,57.5 
			197.5,58.8 204.1,68.4 205.4,68.4 205.4,54.5 203.7,54.5 		"/>
		<path d="M213.8,54.5H209v13.9h4.8c4,0,6-2,6-7C219.8,56.5,218,54.5,213.8,54.5z M213.8,66.6h-2.9V56.2h2.9c2.9,0,4,1.1,4,5.1
			C217.8,65.6,216.5,66.6,213.8,66.6z"/>
		<polygon points="224.6,61.9 230.4,61.9 230.4,60.3 224.6,60.3 224.6,56.2 231.3,56.2 231.3,54.5 222.7,54.5 222.7,68.4 
			231.6,68.4 231.7,66.7 224.6,66.7 		"/>
		<path d="M241,58c0-1.1,0.7-2.1,2.8-2.1c1.2,0,2.2,0.2,3.3,0.7l0.3-1.7c-1-0.5-2.3-0.7-3.7-0.7c-3.2,0-4.6,1.7-4.6,3.9
			c0,4.6,6.9,3.3,6.9,6.4c0,1.5-1,2.4-2.9,2.4c-1.4,0-2.6-0.4-3.8-1.1l-0.3,1.7c1.1,0.7,2.5,1.1,4.1,1.1c3.1,0,4.8-1.6,4.8-4.2
			C247.9,59.6,241,61.1,241,58z"/>
		<polygon points="260.9,54.5 258.7,54.5 254.4,60.3 252.3,60.3 252.3,54.5 250.4,54.5 250.4,68.4 252.3,68.4 252.3,62 254.4,62 
			258.8,68.4 261.2,68.4 256.1,61.1 		"/>
		<path d="M268.6,54.2c-4.1,0-5.8,2.1-5.8,7.2c0,5.1,1.7,7.2,5.8,7.2c4.2,0,5.8-2.1,5.8-7.2C274.4,56.3,272.8,54.2,268.6,54.2z
			 M268.6,66.9c-2.7,0-3.8-1.2-3.8-5.4c0-4.3,1-5.4,3.8-5.4c2.8,0,3.8,1.2,3.8,5.4C272.4,65.7,271.3,66.9,268.6,66.9z"/>
		<polygon points="279.2,54.5 277.3,54.5 277.3,68.4 285.6,68.4 285.7,66.6 279.2,66.6 		"/>
		<polygon points="289.8,66.7 289.8,61.9 295.6,61.9 295.6,60.3 289.8,60.3 289.8,56.2 296.5,56.2 296.5,54.5 287.9,54.5 
			287.9,68.4 296.8,68.4 296.9,66.7 		"/>
	</g>
	<g>
		<path d="M102.7,35.3c0-4.8-3.9-6.2-7.1-7.3c-2.2-0.8-4.1-1.4-4.1-3c0-1.7,1.3-2.5,3.9-2.5c1.8,0,3.6,0.3,5.5,1l0.3,0.1l0.7-4.3
			l-0.2-0.1c-1.8-0.8-4.2-1.3-6.5-1.3c-5.3,0-8.4,2.7-8.4,7.2c0,4.7,3.9,6.1,7,7.2c2.3,0.8,4.2,1.5,4.2,3.2c0,1.9-1.3,2.9-4,2.9
			c-2.2,0-4.3-0.6-6.3-1.7l-0.4-0.2l-0.7,4.5l0.2,0.1c2.1,1.2,4.6,1.8,7.2,1.8C99.5,43,102.7,40.1,102.7,35.3z"/>
		<polygon points="126.2,18.4 120.4,18.4 114.1,28 111.6,28 111.6,18.4 106.6,18.4 106.6,42.5 111.6,42.5 111.6,32.2 114,32.2 
			120.6,42.5 126.6,42.5 118.5,29.9 		"/>
		<rect x="130.2" y="18.4" width="5" height="24.1"/>
		<polygon points="157.2,38.1 145.9,38.1 145.9,32.2 155,32.2 155,28 145.9,28 145.9,23 156.7,23 156.6,18.4 141,18.4 141,42.5 
			157.1,42.5 		"/>
		<polygon points="165.7,28.4 165.7,26.7 166.6,28.1 176.7,42.5 180.2,42.5 180.2,18.4 175.8,18.4 175.8,32 175.8,33.6 165.6,18.6 
			165.5,18.4 161.3,18.4 161.3,42.5 165.7,42.5 		"/>
	</g>
</g>
</svg>
