<?xml version="1.0" encoding="utf-8"?>
<!-- Generator: Adobe Illustrator 21.0.2, SVG Export Plug-In . SVG Version: 6.00 Build 0)  -->
<svg version="1.1" id="Layer_1" xmlns="http://www.w3.org/2000/svg" xmlns:xlink="http://www.w3.org/1999/xlink" x="0px" y="0px"
	 viewBox="0 0 302 83.9" enable-background="new 0 0 302 83.9" xml:space="preserve">
<g>
	<polygon points="94.6,65 94.2,66.4 94.2,66.4 93.7,65 90.2,54.3 88.1,54.3 93,68.2 95.2,68.2 100.2,54.3 98.2,54.3 	"/>
	<rect x="102.6" y="54.3" width="2" height="13.9"/>
	<path d="M113.1,54.3h-4.8v13.9h4.8c4,0,6-2,6-7C119.1,56.3,117.4,54.3,113.1,54.3z M113.1,66.5h-2.9V56.1h2.9c2.9,0,4,1.1,4,5.1
		C117.2,65.4,115.9,66.5,113.1,66.5z"/>
	<polygon points="124,61.8 129.7,61.8 129.7,60.2 124,60.2 124,56 130.7,56 130.6,54.3 122.1,54.3 122.1,68.2 131,68.2 131,66.5 
		124,66.5 	"/>
	<path d="M142.8,58.3c0-2.7-1.4-4-4.5-4h-4.7v13.9h1.9v-5.9h2.8l3.1,5.9h2.3l-3.6-6.2C141.9,61.7,142.8,60.4,142.8,58.3z
		 M138.3,60.9h-2.8v-4.9h2.8c1.7,0,2.5,0.7,2.5,2.4C140.9,60.2,140.1,60.9,138.3,60.9z"/>
	<polygon points="147.8,61.8 153.6,61.8 153.6,60.2 147.8,60.2 147.8,56 154.6,56 154.5,54.3 145.9,54.3 145.9,68.2 154.8,68.2 
		154.9,66.5 147.8,66.5 	"/>
	<path d="M165.5,66.3c-0.7,0.3-1.5,0.4-2.4,0.4c-3,0-4.2-1.3-4.2-5.4c0-4.2,1.3-5.5,4.4-5.5c1.3,0,2.4,0.2,3.4,0.7l0.2-1.7
		c-1-0.4-2.4-0.7-3.7-0.7c-4.4,0-6.3,2.2-6.3,7.2c0,5,1.9,7.2,6.3,7.2c1.5,0,3-0.3,4.1-0.8v-6.8h-1.7V66.3z"/>
	<path d="M176.8,53.3c0-0.9-0.6-1.5-1.9-1.5c-1.3,0-1.8,0.6-1.8,1.5c0,0.6,0.2,1,0.6,1.3l-5,13.7h2l1.1-3.3h6.1l1.1,3.3h2.1
		l-5.1-13.7C176.6,54.3,176.8,53.8,176.8,53.3z M174.9,52.6c0.6,0,0.9,0.3,0.9,0.7c0,0.5-0.3,0.7-0.9,0.7c-0.7,0-0.9-0.3-0.9-0.7
		S174.3,52.6,174.9,52.6z M177.4,63.2h-5l2.1-6.1l0.5-1.4h0.1l0.4,1.4L177.4,63.2z"/>
	<polygon points="185.3,61.8 191,61.8 191,60.2 185.3,60.2 185.3,56 192,56 191.9,54.3 183.4,54.3 183.4,68.2 192.2,68.2 
		192.3,66.5 185.3,66.5 	"/>
	<polygon points="203.7,63.3 203.8,64.8 203.7,64.8 196.7,54.3 194.9,54.3 194.9,68.2 196.6,68.2 196.6,58.9 196.6,57.4 196.7,57.4 
		197.5,58.6 204.1,68.2 205.4,68.2 205.4,54.3 203.7,54.3 	"/>
	<path d="M213.8,54.3H209v13.9h4.8c4,0,6-2,6-7C219.8,56.3,218,54.3,213.8,54.3z M213.8,66.5h-2.9V56.1h2.9c2.9,0,4,1.1,4,5.1
		C217.8,65.4,216.5,66.5,213.8,66.5z"/>
	<polygon points="224.6,61.8 230.4,61.8 230.4,60.2 224.6,60.2 224.6,56 231.3,56 231.3,54.3 222.7,54.3 222.7,68.2 231.6,68.2 
		231.7,66.5 224.6,66.5 	"/>
	<path d="M241,57.9c0-1.1,0.7-2.1,2.8-2.1c1.2,0,2.2,0.2,3.3,0.7l0.3-1.7c-1-0.5-2.3-0.7-3.7-0.7c-3.2,0-4.6,1.7-4.6,3.9
		c0,4.6,6.9,3.3,6.9,6.4c0,1.5-1,2.4-2.9,2.4c-1.4,0-2.6-0.4-3.8-1.1l-0.3,1.7c1.1,0.7,2.5,1.1,4.1,1.1c3.1,0,4.8-1.6,4.8-4.2
		C247.9,59.5,241,60.9,241,57.9z"/>
	<polygon points="260.9,54.3 258.7,54.3 254.4,60.2 252.3,60.2 252.3,54.3 250.4,54.3 250.4,68.2 252.3,68.2 252.3,61.8 254.4,61.8 
		258.8,68.2 261.2,68.2 256.1,60.9 	"/>
	<path d="M268.6,54.1c-4.1,0-5.8,2.1-5.8,7.2c0,5.1,1.7,7.2,5.8,7.2c4.2,0,5.8-2.1,5.8-7.2C274.4,56.2,272.8,54.1,268.6,54.1z
		 M268.6,66.7c-2.7,0-3.8-1.2-3.8-5.4c0-4.3,1-5.4,3.8-5.4c2.8,0,3.8,1.2,3.8,5.4C272.4,65.5,271.3,66.7,268.6,66.7z"/>
	<polygon points="279.2,54.3 277.3,54.3 277.3,68.2 285.6,68.2 285.7,66.4 279.2,66.4 	"/>
	<polygon points="289.8,66.5 289.8,61.8 295.6,61.8 295.6,60.2 289.8,60.2 289.8,56 296.5,56 296.5,54.3 287.9,54.3 287.9,68.2 
		296.8,68.2 296.9,66.5 	"/>
	<path d="M95.6,27.9c-2.2-0.8-4.1-1.4-4.1-3c0-1.7,1.3-2.5,3.9-2.5c1.8,0,3.6,0.3,5.5,1l0.3,0.1l0.7-4.3l-0.2-0.1
		c-1.8-0.8-4.2-1.3-6.5-1.3c-5.3,0-8.4,2.7-8.4,7.2c0,4.7,3.9,6.1,7,7.2c2.3,0.8,4.2,1.5,4.2,3.2c0,1.9-1.3,2.9-4,2.9
		c-2.2,0-4.3-0.6-6.3-1.7l-0.4-0.2l-0.7,4.5l0.2,0.1c2.1,1.2,4.6,1.8,7.2,1.8c5.4,0,8.7-2.9,8.7-7.6C102.7,30.4,98.8,29,95.6,27.9z"
		/>
	<polygon points="118.3,29.7 126,18.3 120.2,18.3 113.9,27.9 111.3,27.9 111.3,18.3 106.4,18.3 106.4,42.4 111.3,42.4 111.3,32.1 
		113.8,32.1 120.4,42.4 126.4,42.4 	"/>
	<path d="M149.1,30.3c0-8.7-3.1-12.4-10.3-12.4c-7.3,0-10.4,3.7-10.4,12.4c0,8.6,3.2,12.5,10.4,12.5
		C146.1,42.8,149.1,39.2,149.1,30.3z M138.7,22.5c3.6,0,5.2,1.1,5.2,7.8c0,6.7-1.7,7.9-5.2,7.9c-3.6,0-5.2-1.2-5.2-7.9
		C133.5,23.7,135.2,22.5,138.7,22.5z"/>
	<path d="M170.6,41.5l0.2-0.1V29.2h-4.4v8.7c-0.9,0.2-1.9,0.4-2.9,0.4c-4.5,0-5.9-1.9-5.9-7.9c0-6,1.6-7.9,6.4-7.9c2,0,4,0.4,5.6,1
		l0.4,0.1l0.5-4.5l-0.2-0.1c-1.8-0.7-4.3-1.1-6.5-1.1c-7.8,0-11.3,3.9-11.3,12.5c0,8.6,3.5,12.4,11.2,12.4
		C166,42.8,168.7,42.3,170.6,41.5z"/>
	<polygon points="199.3,42.4 199.3,18.3 194,18.3 187.9,33.4 187.2,35.2 180.5,18.3 175.1,18.3 175.1,42.4 179.6,42.4 179.6,28.5 
		179.6,27.5 185.5,42.4 188.8,42.4 194.4,28.4 194.8,27.4 194.8,42.4 	"/>
	<path d="M214,17.9c-7.3,0-10.4,3.7-10.4,12.4c0,8.6,3.2,12.5,10.4,12.5c7.3,0,10.3-3.6,10.3-12.5C224.3,21.6,221.2,17.9,214,17.9z
		 M214,38.2c-3.6,0-5.2-1.2-5.2-7.9c0-6.7,1.7-7.8,5.2-7.8c3.6,0,5.2,1.1,5.2,7.8C219.2,37.1,217.5,38.2,214,38.2z"/>
</g>
<g>
	<g>
		<g>
			<g>
				<path d="M2.4,3.3c0,0,0.1,27.7,5.4,44.5c4.9,15.2,15.8,27.9,29,36.1C49.9,75.7,60.6,63,65.5,47.8C70.8,31,70.9,3.3,70.9,3.3H2.4
					z"/>
			</g>
		</g>
	</g>
	<g>
		<path fill="#FFD520" d="M36.8,82.6C23.5,74.1,13.3,61.3,8.9,47.5C4.2,33,3.6,9.8,3.5,4.4h66.2c-0.1,5.4-0.7,28.5-5.4,43
			C59.8,61.7,50,74.1,36.8,82.6z"/>
		<g>
			<path d="M14.7,43.4c0.1-0.1,0.6-0.6,1.1-1c2.8-2.3,7.8-6.9,13.7-6.3c5.4,0.6,7.5,4.6,7.5,4.6c-2.4,2.6-3.9,6.4-4.1,9.6
				c-0.1,3.1,0.9,22.4,0.9,22.4s0.1,5.1,0.3,8.1c0.9,0.7,1.9,1.3,2.8,1.9c0.8-0.5,1.5-1,2.3-1.5l0.5-21.4c0.2-3.6-0.4-8.3,2.5-11.3
				c0.2-0.2,1.1-0.9,1.1-0.9s0.9,0.8,1.2,0.9c0.1,0.1,0.3,0.1,0.4,0l6.8-5.8c0.1-0.1,0.2-0.3,0.1-0.4c-0.2-0.5-0.6-1.2-0.6-1.2
				s5.5-5.4,8.9-7.8c0.3-0.2,0.1-0.7-0.3-0.5c-1.7,0.7-3.5,0.5-4.5-0.5c-0.4-0.4-0.6-1.1-1.2-0.7c-4,2.7-7.3,3.7-7.3,3.7
				c-1.2-1-2-2.1-2.7-3.3c-3.3-6.7-1.6-15.4,3.1-20.9c1.5-1.7,2.9-2.8,4.7-3.9C52,6.8,52,6.4,51.5,6.4c-14.9,0.9-28.1,10.7-34,24.3
				c-1.7,3.9-3,8.4-3.2,12.2C14.3,43.4,14.4,43.7,14.7,43.4z"/>
			<g>
				<g>
					<path fill="#FFD520" d="M52.3,34.4c0.5-0.1,1.1-0.1,1.3,0.1c0.3,0.3-0.4,1.4-0.8,2c-0.9,1.6-1,1.7-1.9,3.1c0,0-0.1-0.7,0.1-1.4
						c0.2-0.8,0.6-1.4,0.9-1.9c0.4-0.5,0.7-0.9,0.7-1.2c-0.1-0.3-1.1,0.1-1.5,0.1c-0.5,0.1-1.6,0.5-2.6-0.1
						C48.4,35.4,51.1,34.7,52.3,34.4z"/>
					<path fill="#FFD520" d="M36.6,47.8c0.4-0.1,2.3-1.4,3.8-1.2c1.1,0.1,1.7,0.5,1.7,0.5c-1.1,0.1-2-0.1-3.8,0.8
						c-0.9,0.5-2,1.4-2.7,0.7c-0.4-0.4-0.4-1.3,0-3.2c0.5-2.1,1.3-3.4,1.3-3.4s0.1,0.8-0.7,4.7C36.2,47.5,36.2,48,36.6,47.8z"/>
				</g>
				<path fill="#FFD520" d="M34.5,71c0,0-0.2,1.4,1,2.8c1.1,1.4,2.8,3.1,2.8,3.1s0.3-1.2-0.9-2.6C36.2,72.8,34.5,71,34.5,71z"/>
				<path fill="#FFD520" d="M34,60.6c0,0-0.1,1.5,1.1,2.9c1.2,1.4,3.2,3.3,3.2,3.3s0.2-1.2-1.1-2.7C36.1,62.6,34,60.6,34,60.6z"/>
				<path fill="#FFD520" d="M33.8,50.3c0,0-0.2,1.4,1.1,3c1.3,1.5,3.8,4.5,3.8,4.5s0.2-1.5-1.1-3.1S33.8,50.3,33.8,50.3z"/>
			</g>
		</g>
	</g>
</g>
</svg>
