<?xml version="1.0" encoding="utf-8"?>
<!-- Generator: Adobe Illustrator 21.0.2, SVG Export Plug-In . SVG Version: 6.00 Build 0)  -->
<svg version="1.1" id="Layer_1" xmlns="http://www.w3.org/2000/svg" xmlns:xlink="http://www.w3.org/1999/xlink" x="0px" y="0px"
	 viewBox="0 0 356.5 82.9" enable-background="new 0 0 356.5 82.9" xml:space="preserve">
<g>
	<polygon points="93.9,63 93.5,64.4 93.4,64.4 93,63 89.5,52.3 87.3,52.3 92.3,66.2 94.5,66.2 99.4,52.3 97.4,52.3 	"/>
	<rect x="101.9" y="52.3" width="2" height="13.9"/>
	<path d="M112.4,52.3h-4.8v13.9h4.8c4,0,6-2,6-7C118.4,54.3,116.7,52.3,112.4,52.3z M112.4,64.5h-2.9V54.1h2.9c2.9,0,4,1.1,4,5.1
		C116.4,63.4,115.1,64.5,112.4,64.5z"/>
	<path d="M125,52.3l-5.1,13.9h2l1.1-3.3h6.1l1.1,3.3h2.1l-5.1-13.9H125z M123.6,61.3l2.1-6.1l0.5-1.4h0.1l0.4,1.4l2,6.1H123.6z"/>
	<path d="M143.7,56.3c0-2.7-1.4-4-4.5-4h-4.7v13.9h1.9v-5.9h2.8l3.1,5.9h2.3L141,60C142.8,59.7,143.7,58.4,143.7,56.3z M139.2,58.9
		h-2.8V54h2.8c1.7,0,2.5,0.7,2.5,2.4C141.8,58.2,141,58.9,139.2,58.9z"/>
	<polygon points="148.7,59.8 154.5,59.8 154.5,58.2 148.7,58.2 148.7,54.1 155.5,54.1 155.4,52.3 146.9,52.3 146.9,66.2 155.7,66.2 
		155.8,64.5 148.7,64.5 	"/>
	<path d="M166.4,64.3c-0.7,0.3-1.5,0.4-2.4,0.4c-3,0-4.2-1.3-4.2-5.4c0-4.2,1.3-5.5,4.4-5.5c1.3,0,2.4,0.2,3.4,0.7l0.2-1.7
		c-1-0.4-2.4-0.7-3.7-0.7c-4.4,0-6.3,2.2-6.3,7.2c0,5,1.9,7.2,6.3,7.2c1.5,0,3-0.3,4.1-0.8v-6.8h-1.7V64.3z"/>
	<path d="M177.7,51.3c0-0.9-0.6-1.5-1.9-1.5c-1.3,0-1.8,0.6-1.8,1.5c0,0.6,0.2,1,0.6,1.3l-5,13.7h2l1.1-3.3h6.1l1.1,3.3h2.1
		l-5.1-13.7C177.5,52.3,177.7,51.9,177.7,51.3z M175.8,50.6c0.6,0,0.9,0.3,0.9,0.7c0,0.5-0.3,0.7-0.9,0.7c-0.7,0-0.9-0.3-0.9-0.7
		S175.2,50.6,175.8,50.6z M178.3,61.3h-5l2.1-6.1l0.5-1.4h0.1l0.4,1.4L178.3,61.3z"/>
	<path d="M187.9,52.3l-5.1,13.9h2l1.1-3.3h6.1l1.1,3.3h2.1l-5.1-13.9H187.9z M186.5,61.3l2.1-6.1l0.5-1.4h0.1l0.4,1.4l2,6.1H186.5z"
		/>
	<polygon points="206.3,61.3 206.3,62.8 206.3,62.8 199.2,52.3 197.5,52.3 197.5,66.2 199.2,66.2 199.2,56.9 199.2,55.4 199.2,55.4 
		200,56.7 206.6,66.2 208,66.2 208,52.3 206.3,52.3 	"/>
	<path d="M216.3,52.3h-4.8v13.9h4.8c4,0,6-2,6-7C222.3,54.3,220.6,52.3,216.3,52.3z M216.3,64.5h-2.9V54.1h2.9c2.9,0,4,1.1,4,5.1
		C220.4,63.4,219.1,64.5,216.3,64.5z"/>
	<polygon points="227.2,59.8 232.9,59.8 232.9,58.2 227.2,58.2 227.2,54.1 233.9,54.1 233.8,52.3 225.3,52.3 225.3,66.2 234.1,66.2 
		234.2,64.5 227.2,64.5 	"/>
	<path d="M243.5,55.9c0-1.1,0.7-2.1,2.8-2.1c1.2,0,2.2,0.2,3.3,0.7l0.3-1.7c-1-0.5-2.3-0.7-3.7-0.7c-3.2,0-4.6,1.7-4.6,3.9
		c0,4.6,6.9,3.3,6.9,6.4c0,1.5-1,2.4-2.9,2.4c-1.4,0-2.6-0.4-3.8-1.1l-0.3,1.7c1.1,0.7,2.5,1.1,4.1,1.1c3.1,0,4.8-1.6,4.8-4.2
		C250.4,57.5,243.5,58.9,243.5,55.9z"/>
	<polygon points="263.5,52.3 261.2,52.3 256.9,58.2 254.9,58.2 254.9,52.3 253,52.3 253,66.2 254.9,66.2 254.9,59.8 256.9,59.8 
		261.4,66.2 263.8,66.2 258.7,58.9 	"/>
	<path d="M274.5,61.2c0,2.4-1.1,3.5-3.4,3.5c-2.3,0-3.4-1.1-3.4-3.5v-8.9h-1.9v8.9c0,3.7,1.9,5.3,5.3,5.3c3.4,0,5.3-1.6,5.3-5.3
		v-8.9h-1.9V61.2z"/>
	<polygon points="281.6,52.3 279.7,52.3 279.7,66.2 288.1,66.2 288.1,64.5 281.6,64.5 	"/>
	<polygon points="292.3,59.8 298,59.8 298,58.2 292.3,58.2 292.3,54.1 299,54.1 298.9,52.3 290.4,52.3 290.4,66.2 299.3,66.2 
		299.3,64.5 292.3,64.5 	"/>
	<polygon points="96.3,33.4 95.9,35 90.2,16.3 84.8,16.3 93.1,40.2 93.1,40.4 98.4,40.4 106.8,16.3 101.7,16.3 	"/>
	<polygon points="125.9,35.9 114.6,35.9 114.6,30 123.8,30 123.8,25.9 114.6,25.9 114.6,20.8 125.4,20.8 125.3,16.3 109.7,16.3 
		109.7,40.4 125.8,40.4 	"/>
	<path d="M137.6,25.9c-2.2-0.8-4.1-1.4-4.1-3c0-1.7,1.3-2.5,3.9-2.5c1.8,0,3.6,0.3,5.5,1l0.3,0.1l0.7-4.3l-0.2-0.1
		c-1.8-0.8-4.2-1.3-6.5-1.3c-5.3,0-8.4,2.7-8.4,7.2c0,4.7,3.9,6.1,7,7.2c2.3,0.8,4.2,1.5,4.2,3.2c0,1.9-1.3,2.9-4,2.9
		c-2.2,0-4.3-0.6-6.3-1.7l-0.4-0.2l-0.7,4.5l0.2,0.1c2.1,1.2,4.6,1.8,7.2,1.8c5.4,0,8.7-2.9,8.7-7.6C144.7,28.4,140.8,27,137.6,25.9
		z"/>
	<polygon points="152.8,40.4 157.8,40.4 157.8,20.9 164.4,20.9 164.3,16.3 146.3,16.3 146.2,20.9 152.8,20.9 	"/>
	<rect x="166.1" y="27.6" width="9.3" height="3.6"/>
	<polygon points="177.2,16.3 177.1,20.9 183.8,20.9 183.8,40.4 188.7,40.4 188.7,20.9 195.4,20.9 195.2,16.3 	"/>
	<polygon points="214.6,35.9 203.3,35.9 203.3,30 212.5,30 212.5,25.9 203.3,25.9 203.3,20.8 214.1,20.8 214,16.3 198.4,16.3 
		198.4,40.4 214.5,40.4 	"/>
	<polygon points="233.7,35.8 223.5,35.8 223.5,16.3 218.5,16.3 218.5,40.4 233.6,40.4 	"/>
	<polygon points="253.2,35.9 241.9,35.9 241.9,30 251.1,30 251.1,25.9 241.9,25.9 241.9,20.8 252.7,20.8 252.6,16.3 237,16.3 
		237,40.4 253.1,40.4 	"/>
	<polygon points="281.3,40.4 281.3,16.3 276,16.3 269.8,31.5 269.2,33.2 262.4,16.3 257.1,16.3 257.1,40.4 261.5,40.4 261.5,26.5 
		261.5,25.5 267.4,40.4 270.8,40.4 276.4,26.4 276.8,25.4 276.7,40.4 	"/>
	<path d="M292.7,16.3l-8.6,24.1h5.3l1.6-5h9l1.5,5h5.5l-8.6-24.1H292.7z M295.5,20.7l0.4,1.6l2.7,8.8h-6.3l2.7-8.8L295.5,20.7z"/>
	<path d="M326.9,23.6c0-4.9-2.8-7.3-8.5-7.3h-8.6v24.1h4.9v-9.2h3.5l4.6,9.2h5.8l-5.9-10.2C325.4,29.4,326.9,27.1,326.9,23.6z
		 M321.8,23.8c0,2.5-0.9,3.4-3.5,3.4h-3.6v-6.6h3.7C320.9,20.6,321.8,21.4,321.8,23.8z"/>
	<polygon points="343.3,27.8 351,16.3 345.3,16.3 339,25.9 336.4,25.9 336.4,16.3 331.5,16.3 331.5,40.4 336.4,40.4 336.4,30.1 
		338.9,30.1 345.5,40.4 351.4,40.4 	"/>
</g>
<g>
	<g>
		<g>
			<g>
				<path d="M1.6,1.3c0,0,0.1,27.7,5.4,44.5C12,61,22.9,73.7,36.1,81.9C49.2,73.7,59.8,61,64.7,45.8c5.4-16.8,5.4-44.5,5.4-44.5H1.6
					z"/>
			</g>
		</g>
	</g>
	<g>
		<path fill="#FFD520" d="M36.1,80.6C22.8,72.1,12.6,59.3,8.2,45.5C3.5,31,2.9,7.8,2.8,2.5H69c-0.1,5.4-0.7,28.5-5.4,43
			C59.1,59.7,49.3,72.2,36.1,80.6z"/>
		<g>
			<path d="M14,41.4c0.1-0.1,0.6-0.6,1.1-1c2.8-2.3,7.8-6.9,13.7-6.3c5.4,0.6,7.5,4.6,7.5,4.6c-2.4,2.6-3.9,6.4-4.1,9.6
				C32,51.4,33,70.7,33,70.7s0.1,5.1,0.3,8.1c0.9,0.7,1.9,1.3,2.8,1.9c0.8-0.5,1.5-1,2.3-1.5l0.5-21.4c0.2-3.6-0.4-8.3,2.5-11.3
				c0.2-0.2,1.1-0.9,1.1-0.9s0.9,0.8,1.2,0.9c0.1,0.1,0.3,0.1,0.4,0l6.8-5.8c0.1-0.1,0.2-0.3,0.1-0.4c-0.2-0.5-0.6-1.2-0.6-1.2
				s5.5-5.4,8.9-7.8c0.3-0.2,0.1-0.7-0.3-0.5c-1.7,0.7-3.5,0.5-4.5-0.5c-0.4-0.4-0.6-1.1-1.2-0.7c-4,2.7-7.3,3.7-7.3,3.7
				c-1.2-1-2-2.1-2.7-3.3C40,23,41.6,14.3,46.4,8.8C47.8,7.1,49.3,6,51,4.9c0.2-0.1,0.2-0.5-0.2-0.5c-14.9,0.9-28.1,10.7-34,24.3
				c-1.7,3.9-3,8.4-3.2,12.2C13.5,41.4,13.6,41.7,14,41.4z"/>
			<g>
				<g>
					<path fill="#FFD520" d="M51.6,32.5c0.5-0.1,1.1-0.1,1.3,0.1c0.3,0.3-0.4,1.4-0.8,2c-0.9,1.6-1,1.7-1.9,3.1c0,0-0.1-0.7,0.1-1.4
						c0.2-0.8,0.6-1.4,0.9-1.9c0.4-0.5,0.7-0.9,0.7-1.2c-0.1-0.3-1.1,0.1-1.5,0.1c-0.5,0.1-1.6,0.5-2.6-0.1
						C47.7,33.4,50.4,32.7,51.6,32.5z"/>
					<path fill="#FFD520" d="M35.9,45.8c0.4-0.1,2.3-1.4,3.8-1.2c1.1,0.1,1.7,0.5,1.7,0.5c-1.1,0.1-2-0.1-3.8,0.8
						c-0.9,0.5-2,1.4-2.7,0.7c-0.4-0.4-0.4-1.3,0-3.2c0.5-2.1,1.3-3.4,1.3-3.4s0.1,0.8-0.7,4.7C35.4,45.5,35.4,46,35.9,45.8z"/>
				</g>
				<path fill="#FFD520" d="M33.8,69c0,0-0.2,1.4,1,2.8c1.1,1.4,2.8,3.1,2.8,3.1s0.3-1.2-0.9-2.6C35.5,70.9,33.8,69,33.8,69z"/>
				<path fill="#FFD520" d="M33.3,58.6c0,0-0.1,1.5,1.1,2.9c1.2,1.4,3.2,3.3,3.2,3.3s0.2-1.2-1.1-2.7C35.3,60.7,33.3,58.6,33.3,58.6
					z"/>
				<path fill="#FFD520" d="M33.1,48.3c0,0-0.2,1.4,1.1,3c1.3,1.5,3.8,4.5,3.8,4.5s0.2-1.5-1.1-3.1C35.5,51.1,33.1,48.3,33.1,48.3z"
					/>
			</g>
		</g>
	</g>
</g>
</svg>
